<?xml version="1.0" encoding="utf-8"?>
<!-- Generator: Adobe Illustrator 19.1.0, SVG Export Plug-In . SVG Version: 6.00 Build 0)  -->
<svg version="1.1" xmlns="http://www.w3.org/2000/svg" xmlns:xlink="http://www.w3.org/1999/xlink" x="0px" y="0px"
	 viewBox="0 0 360 540" style="enable-background:new 0 0 360 540;" xml:space="preserve">
<style type="text/css">
	.st0{display:none;}
	.st1{display:inline;fill:#666766;}
	.st2{fill:none;stroke:#000000;stroke-miterlimit:10;}
	.st3{fill:none;stroke:#CCCCCC;stroke-miterlimit:10;}
	.st4{fill:#CCCCCC;}
	.st5{fill:none;stroke:#CCCCCC;stroke-width:3;stroke-miterlimit:10;}
	.st6{fill:none;stroke:#CCCCCC;stroke-width:2;stroke-miterlimit:10;}
	.st7{fill:none;stroke:#CCCCCC;stroke-width:7;stroke-miterlimit:10;}
	.st8{fill:none;}
	.st9{fill:none;stroke:#CCCCCC;stroke-miterlimit:10;stroke-dasharray:12,12;}
	.st10{clip-path:url(#SVGID_2_);fill:none;stroke:#CCCCCC;stroke-miterlimit:10;}
	.st11{clip-path:url(#SVGID_2_);fill:none;stroke:#CCCCCC;stroke-width:7;stroke-miterlimit:10;}
	.st12{clip-path:url(#SVGID_2_);}
	.st13{clip-path:url(#SVGID_2_);fill:#CCCCCC;}
	.st14{clip-path:url(#SVGID_2_);fill:none;stroke:#CCCCCC;stroke-miterlimit:10;stroke-dasharray:12,12;}
	.st15{fill:#010101;stroke:#CCCCCC;stroke-width:2;stroke-miterlimit:10;}
	.st16{fill:#010101;}
	.st17{fill:none;stroke:#CCCCCC;stroke-width:2;stroke-miterlimit:10;stroke-dasharray:12;}
	.st18{fill:none;stroke:#FFFFFF;stroke-miterlimit:10;}
	.st19{clip-path:url(#SVGID_4_);fill:none;stroke:#CCCCCC;stroke-miterlimit:10;}
	.st20{clip-path:url(#SVGID_4_);}
	.st21{fill:none;stroke:#000000;stroke-width:7;stroke-miterlimit:10;}
</style>
<g id="Layer_4" class="st0">
</g>
<g id="Layer_1">
	<g>
		<path class="st18" d="M31.3,257.1c30.6-75.7,113.7-137.8,190.4-144.4l1.8-4.5c-79.1,6.5-165.1,70.7-196.7,148.8
			s2.5,142.3,76.4,148.8l1.8-4.5C33.7,395,0.7,332.8,31.3,257.1z"/>
		<path class="st18" d="M327.7,279.7c32.5-80.5-4.6-146.2-83.1-149.3l-1.8,4.5c76,3.1,112,66.7,80.5,144.8S204.3,421.4,125.8,424.5
			L124,429C205,425.9,295.2,360.2,327.7,279.7z"/>
		<path class="st18" d="M318.9,279.7c-30.6,75.6-115.2,137.3-191.4,140.4l-1.8,4.4c78.5-3.1,165.9-66.7,197.5-144.8
			s-4.5-141.7-80.5-144.8l-1.8,4.4C314.6,142.4,349.5,204.1,318.9,279.7z"/>
		<path class="st18" d="M314.7,279.7C285.1,353,203,412.8,129.2,415.9l-1.7,4.2c76.1-3.1,160.8-64.8,191.4-140.4
			s-4.3-137.3-77.9-140.4l-1.7,4.2C310.6,146.6,344.3,206.4,314.7,279.7z"/>
		<path class="st18" d="M110.2,388.8l-1.7,4.1c3.1,0.3,6.2,0.5,9.4,0.6l1.7-4.1C116.4,389.3,113.2,389.1,110.2,388.8z"/>
		<path class="st18" d="M310.6,279.7c-28.7,71.1-108.2,129-179.7,132.1l-1.7,4.1c73.8-3.1,155.8-62.9,185.4-136.2
			s-4.1-133.1-75.4-136.2l-1.7,4.1C306.7,150.7,339.3,208.7,310.6,279.7z"/>
		<path class="st18" d="M306.6,279.7c-27.8,68.9-104.8,125.1-174.1,128.2l-1.6,4c71.5-3.1,151-61.1,179.7-132.1
			c28.7-71.1-3.9-129-72.9-132.1l-1.6,4C302.9,154.7,334.4,210.9,306.6,279.7z"/>
		<path class="st18" d="M121.2,385.4c-3.2-0.1-6.3-0.3-9.4-0.6l-1.6,4c3.1,0.3,6.2,0.5,9.4,0.6L121.2,385.4z"/>
		<path class="st18" d="M47.9,257.1c26.9-66.5,99.6-121.2,167-127.7l1.6-4C146.9,131.9,71.7,188.4,44,257.1s1.8,125.2,66.2,131.6
			l1.6-4C49.6,378.3,21.1,323.6,47.9,257.1z"/>
		<path class="st18" d="M302.8,279.7C275.8,346.5,201.3,400.9,134,404l-1.6,3.9c69.3-3.1,146.3-59.3,174.1-128.2
			c27.8-68.9-3.7-125.1-70.6-128.2l-1.6,3.9C299.2,158.5,329.7,213,302.8,279.7z"/>
		<path class="st18" d="M113.4,380.9l-1.6,3.9c3.1,0.3,6.2,0.5,9.4,0.6l1.6-3.8C119.5,381.4,116.4,381.2,113.4,380.9z"/>
		<path class="st18" d="M51.8,257.1c26-64.4,96.3-117.4,161.6-123.8l1.6-3.9c-67.4,6.4-140.1,61.1-167,127.7s1.7,121.2,63.9,127.7
			l1.6-3.9C53.3,374.5,25.8,321.5,51.8,257.1z"/>
		<path class="st18" d="M302.8,279.7c27-66.7-3.6-121.2-68.3-124.3l-1.5,3.7c62.7,3.1,92.2,55.9,66.1,120.6
			c-26.1,64.7-98.3,117.5-163.5,120.6L134,404C201.3,400.9,275.8,346.5,302.8,279.7z"/>
		<path class="st18" d="M114.9,377.2l-1.5,3.8c3,0.3,6.2,0.5,9.4,0.6l1.5-3.7C121,377.7,117.9,377.5,114.9,377.2z"/>
		<path class="st18" d="M59.1,257.1c24.4-60.3,90.1-110,151.3-116.4l1.5-3.6c-63.2,6.4-131.2,57.7-156.4,120s1.3,113.6,59.4,120
			l1.5-3.6C60.3,367.1,34.8,317.4,59.1,257.1z"/>
		<path class="st18" d="M62.7,257.1c23.6-58.4,87.1-106.5,146.3-112.9l1.4-3.5c-61.2,6.4-126.9,56.1-151.3,116.4s1.2,110,57.2,116.4
			l1.4-3.5C63.7,363.6,39.1,315.5,62.7,257.1z"/>
		<path class="st18" d="M285.2,279.7c-23,57-86.5,103.6-144,106.7l-1.3,3.3c59.3-3.1,124.9-51.2,148.7-110
			c23.8-58.9-2.9-106.9-59.8-110l-1.3,3.3C282.4,176.1,308.2,222.7,285.2,279.7z"/>
		<path class="st18" d="M282,279.7c-22.3,55.3-83.8,100.4-139.5,103.5l-1.3,3.2c57.5-3.1,121-49.7,144-106.7s-2.8-103.6-57.8-106.7
			l-1.3,3.2C279.3,179.3,304.3,224.5,282,279.7z"/>
		<path class="st18" d="M282,279.7c22.3-55.3-2.7-100.4-55.9-103.5l-1.3,3.1c51.5,3.1,75.7,46.8,54.1,100.4
			c-21.6,53.5-81.2,97.3-135.2,100.4l-1.3,3.1C198.2,380.1,259.7,335,282,279.7z"/>
		<path class="st18" d="M81.6,257.1c-19.3,47.9,0.2,87.5,43.9,93.7l1.2-2.9c-42.1-6.2-60.9-44.6-42.2-90.9s68.5-84.6,115.6-90.9
			l1.2-2.9C152.5,169.7,101,209.2,81.6,257.1z"/>
		<path class="st18" d="M87.2,257.1c18.1-44.8,66.2-81.9,111.8-88.1l1.1-2.8c-47.1,6.2-96.9,44.6-115.6,90.9s0.1,84.6,42.2,90.9
			l1.1-2.8C87.2,339,69.1,301.9,87.2,257.1z"/>
		<path class="st18" d="M92.5,257.1c16.9-41.9,61.7-76.6,104.3-82.8l1.1-2.6c-44.1,6.2-90.5,42.1-108,85.4s-0.1,79.2,39,85.4
			l1.1-2.6C92.3,333.7,75.5,299,92.5,257.1z"/>
		<path class="st18" d="M264.7,279.7c18.5-45.7-1.9-83.1-45.6-86.1l-1.1,2.6c42.3,3,61.9,39.3,44.1,83.5s-66.9,80.5-111.6,83.5
			l-1.1,2.6C195.6,362.8,246.2,325.4,264.7,279.7z"/>
		<path class="st18" d="M95,257.1c16.4-40.5,59.6-74.1,100.8-80.2l1-2.5c-42.7,6.2-87.4,40.9-104.3,82.8s-0.2,76.6,37.5,82.8l1-2.5
			C94.7,331.2,78.6,297.6,95,257.1z"/>
		<path class="st18" d="M259.6,279.7c-17.3,42.9-64.7,78-108,81l-1,2.5c44.7-3,93.7-39.3,111.6-83.5s-1.8-80.5-44.1-83.5l-1,2.5
			C257.9,201.7,276.9,236.9,259.6,279.7z"/>
		<path class="st18" d="M97.4,257.1c15.8-39.1,57.5-71.6,97.4-77.8l1-2.5c-41.2,6.2-84.4,39.7-100.8,80.2s-0.3,74.1,36,80.2l1-2.5
			C97,328.7,81.6,296.3,97.4,257.1z"/>
		<path class="st18" d="M257.1,279.7c-16.8,41.5-62.6,75.5-104.6,78.6l-1,2.4c43.3-3,90.7-38.2,108-81c17.3-42.9-1.7-78-42.6-81
			l-1,2.4C255.5,204.2,273.9,238.2,257.1,279.7z"/>
		<path class="st18" d="M254.8,279.7c-16.2,40.2-60.6,73.2-101.3,76.2l-1,2.4c42-3,87.8-37.1,104.6-78.6s-1.6-75.5-41.1-78.6l-1,2.4
			C253.3,206.5,271,239.5,254.8,279.7z"/>
		<path class="st18" d="M252.5,279.7c-15.7,39-58.7,70.9-98.1,73.9l-0.9,2.3c40.7-3,85-36,101.3-76.2s-1.5-73.2-39.7-76.2l-0.9,2.3
			C251.1,208.8,268.2,240.8,252.5,279.7z"/>
		<path class="st18" d="M250.2,279.7c-15.2,37.7-56.8,68.7-94.9,71.7l-0.9,2.2c39.4-3,82.3-35,98.1-73.9s-1.4-70.9-38.3-73.9
			l-0.9,2.2C248.9,211.1,265.5,242,250.2,279.7z"/>
		<path class="st18" d="M104.3,257.1c14.3-35.3,51.6-64.7,87.7-70.8l0.9-2.3c-37.3,6.1-76,36.5-90.8,73s-0.6,66.9,31.8,73l0.9-2.3
			C103.6,321.8,90,292.5,104.3,257.1z"/>
		<path class="st18" d="M106.5,257.1c13.8-34.1,49.8-62.5,84.6-68.6l0.9-2.2c-36,6.1-73.4,35.4-87.7,70.8s-0.7,64.7,30.5,70.8
			l0.9-2.2C105.7,319.7,92.7,291.3,106.5,257.1z"/>
		<path class="st18" d="M250.2,279.7c15.2-37.7-1.3-68.7-37-71.7l-0.9,2.2c34.5,3,50.5,33,35.7,69.5c-14.8,36.5-54.9,66.5-91.9,69.5
			l-0.9,2.2C193.5,348.4,235,317.4,250.2,279.7z"/>
		<path class="st18" d="M108.6,257.1c13.3-33,48-60.4,81.7-66.4l0.9-2.1c-34.8,6-70.8,34.4-84.6,68.6s-0.7,62.5,29.2,68.6l0.9-2.1
			C107.7,317.6,95.2,290.1,108.6,257.1z"/>
		<path class="st18" d="M246,279.7c-14.3,35.4-53.2,64.4-89,67.4l-0.8,2.1c37-3,77.1-33,91.9-69.5c14.8-36.5-1.2-66.5-35.7-69.5
			l-0.8,2.1C244.9,215.3,260.3,244.4,246,279.7z"/>
		<path class="st18" d="M110.6,257.1c12.9-31.9,46.3-58.4,78.8-64.4l0.8-2.1c-33.7,6-68.3,33.5-81.7,66.4s-0.8,60.4,28,66.4l0.8-2.1
			C109.7,315.5,97.7,289,110.6,257.1z"/>
		<path class="st18" d="M244,279.7c-13.8,34.2-51.4,62.4-86.1,65.4l-0.8,2c35.8-3,74.7-32,89-67.4c14.3-35.4-1.1-64.4-34.5-67.4
			l-0.8,2C242.9,217.4,257.8,245.5,244,279.7z"/>
		<path class="st18" d="M242,279.7c-13.4,33.2-49.8,60.4-83.3,63.4l-0.8,2c34.7-3,72.3-31.1,86.1-65.4c13.8-34.2-1-62.4-33.3-65.4
			l-0.8,2C241,219.3,255.4,246.6,242,279.7z"/>
		<path class="st18" d="M240.1,279.7c-13,32.1-48.1,58.5-80.7,61.5l-0.8,1.9c33.6-3,69.9-30.2,83.3-63.4c13.4-33.2-1-60.4-32.1-63.4
			l-0.8,1.9C239.2,221.2,253.1,247.6,240.1,279.7z"/>
		<path class="st18" d="M114.5,257.1c12-29.7,43-54.5,73.3-60.4l0.8-2c-31.4,5.9-63.6,31.6-76,62.4c-12.4,30.8-1,56.4,25.6,62.4
			l0.8-2C113.4,311.6,102.5,286.8,114.5,257.1z"/>
		<path class="st18" d="M238.2,279.7c-12.6,31.1-46.6,56.6-78.1,59.6l-0.8,1.9c32.5-3,67.7-29.4,80.7-61.5s-0.9-58.5-31-61.5
			l-0.8,1.9C237.4,223.1,250.8,248.6,238.2,279.7z"/>
		<path class="st18" d="M116.3,257.1c11.6-28.7,41.4-52.6,70.7-58.5l0.8-1.9c-30.3,5.9-61.3,30.7-73.3,60.4s-1.1,54.5,24.5,60.4
			l0.8-1.9C115.2,309.8,104.7,285.8,116.3,257.1z"/>
		<path class="st18" d="M118.1,257.1c11.2-27.7,39.9-50.8,68.2-56.7l0.7-1.8c-29.3,5.9-59.1,29.8-70.7,58.5
			c-11.6,28.7-1.1,52.6,23.4,58.5l0.7-1.8C116.9,308,106.9,284.8,118.1,257.1z"/>
		<path class="st18" d="M238.2,279.7c12.6-31.1-0.8-56.6-29.9-59.6l-0.7,1.8c28.1,3,41,27.7,28.8,57.8c-12.2,30.1-45,54.8-75.5,57.8
			l-0.7,1.8C191.7,336.4,225.7,310.8,238.2,279.7z"/>
		<path class="st18" d="M119.9,257.1c10.8-26.7,38.4-49.1,65.7-54.9l0.7-1.8c-28.3,5.8-57,29-68.2,56.7s-1.2,50.8,22.4,56.7l0.7-1.8
			C118.6,306.2,109.1,283.8,119.9,257.1z"/>
		<path class="st18" d="M234.7,279.7c-11.8,29.1-43.5,53.1-73.1,56.1l-0.7,1.8c30.5-3,63.4-27.7,75.5-57.8
			c12.2-30.1-0.7-54.8-28.8-57.8l-0.7,1.8C234.1,226.6,246.5,250.6,234.7,279.7z"/>
		<path class="st18" d="M123.2,257.1c10-24.9,35.6-45.7,61-51.5l1.4-3.4c-27.3,5.8-54.9,28.2-65.7,54.9
			c-10.8,26.7-1.3,49.1,21.3,54.9l1.4-3.4C121.8,302.8,113.1,282,123.2,257.1z"/>
		<path class="st18" d="M231.4,279.7c-11,27.3-40.7,49.8-68.4,52.7l-1.4,3.4c29.5-3,61.3-26.9,73.1-56.1
			c11.8-29.1-0.6-53.1-27.8-56.1l-1.4,3.4C230.9,230,242.4,252.4,231.4,279.7z"/>
		<path class="st18" d="M155.4,308.6c-1.1,0-2.1,0-3.2-0.1l-0.6,1.6c1,0.1,2.1,0.1,3.2,0.1c2,0,4-0.1,6.1-0.3l0.6-1.6
			C159.5,308.4,157.4,308.6,155.4,308.6z"/>
		<path class="st18" d="M229.8,279.7c-10.7,26.4-39.3,48.2-66.2,51.1l-0.6,1.6c27.7-3,57.4-25.4,68.4-52.7
			c11-27.3-0.5-49.8-25.8-52.7l-0.6,1.6C229.3,231.6,240.4,253.3,229.8,279.7z"/>
		<path class="st18" d="M197,205.7c2,0,3.9,0.1,5.8,0.3l0.6-1.6c-1.9-0.2-3.8-0.3-5.8-0.3c-1.1,0-2.2,0-3.3,0.1l-0.6,1.6
			C194.8,205.7,195.9,205.7,197,205.7z"/>
		<path class="st18" d="M123.2,257.1c-10,24.9-1.4,45.7,19.4,51.5l0.7-1.6c-19.9-5.7-28.1-25.9-18.5-49.8
			c9.7-24,34.2-44.1,58.7-49.8l0.7-1.6C158.8,211.4,133.2,232.3,123.2,257.1z"/>
		<path class="st18" d="M226.7,279.7c-10,24.7-36.8,45.1-61.9,48l-1.2,3.1c26.8-2.9,55.5-24.7,66.2-51.1
			c10.7-26.4-0.4-48.2-24.9-51.1l-1.2,3.1C226.4,234.6,236.7,255,226.7,279.7z"/>
		<path class="st18" d="M156.7,305.5c-1.1,0-2.1,0-3.2-0.1l-1.2,3c1,0.1,2.1,0.1,3.2,0.1c2,0,4-0.1,6.1-0.3l1.2-3.1
			C160.7,305.4,158.7,305.5,156.7,305.5z"/>
		<path class="st18" d="M195.8,208.7c2,0,3.9,0.1,5.8,0.4l1.2-3.1c-1.9-0.2-3.8-0.3-5.8-0.3c-1.1,0-2.2,0-3.3,0.1l-1.2,3
			C193.6,208.8,194.7,208.7,195.8,208.7z"/>
		<path class="st18" d="M127.8,257.1c9-22.3,31.6-41,54.4-46.7l1.3-3.2c-24.5,5.7-49,25.9-58.7,49.8c-9.7,24-1.4,44.1,18.5,49.8
			l1.3-3.2C126.3,298.2,118.8,279.4,127.8,257.1z"/>
		<path class="st18" d="M195.2,210.2c2,0,3.9,0.1,5.8,0.4l0.6-1.5c-1.9-0.2-3.8-0.4-5.8-0.4c-1.1,0-2.2,0-3.3,0.1l-0.6,1.5
			C193,210.2,194.1,210.2,195.2,210.2z"/>
		<path class="st18" d="M225.3,279.7c-9.7,23.9-35.5,43.7-59.8,46.6l-0.6,1.5c25.1-2.9,51.9-23.3,61.9-48c10-24.7-0.3-45.1-23.1-48
			l-0.6,1.5C225,236.1,234.9,255.8,225.3,279.7z"/>
		<path class="st18" d="M129.3,257.1c8.7-21.5,30.4-39.6,52.4-45.2l0.6-1.5c-22.8,5.6-45.4,24.4-54.4,46.7s-1.5,41,16.7,46.7
			l0.6-1.5C127.7,296.7,120.6,278.6,129.3,257.1z"/>
		<path class="st18" d="M162.8,305.2l0.6-1.5c-2,0.2-4.1,0.4-6.1,0.4c-1.1,0-2.1,0-3.2-0.1l-0.6,1.5c1,0.1,2.1,0.1,3.2,0.1
			C158.7,305.5,160.7,305.4,162.8,305.2z"/>
		<path class="st18" d="M130.7,257.1c8.4-20.7,29.2-38.2,50.4-43.7l0.6-1.5c-21.9,5.6-43.7,23.7-52.4,45.2s-1.6,39.6,15.9,45.2
			l0.6-1.5C129.1,295.3,122.3,277.8,130.7,257.1z"/>
		<path class="st18" d="M194.6,211.6c2,0,3.9,0.1,5.8,0.4l0.6-1.4c-1.8-0.2-3.8-0.4-5.8-0.4c-1.1,0-2.2,0-3.3,0.1l-0.6,1.4
			C192.5,211.6,193.5,211.6,194.6,211.6z"/>
		<path class="st18" d="M157.8,302.7c-1.1,0-2.1,0-3.2-0.1l-0.6,1.4c1,0.1,2.1,0.1,3.2,0.1c2,0,4-0.1,6.1-0.4l0.6-1.4
			C161.9,302.5,159.8,302.7,157.8,302.7z"/>
		<path class="st18" d="M225.3,279.7c9.7-23.9-0.2-43.7-22.2-46.6l-0.6,1.4c21.2,2.9,30.7,22,21.4,45.2
			c-9.3,23.1-34.3,42.2-57.8,45.2l-0.6,1.4C189.8,323.4,215.6,303.6,225.3,279.7z"/>
		<path class="st18" d="M132,257.1c8.1-19.9,28.1-36.8,48.4-42.3l0.6-1.4c-21.1,5.5-42,23-50.4,43.7s-1.6,38.2,15,43.7l0.6-1.4
			C130.4,293.9,124,277.1,132,257.1z"/>
		<path class="st18" d="M191.4,211.7l-0.6,1.4c1.1-0.1,2.2-0.1,3.3-0.1c2,0,3.9,0.1,5.8,0.4l0.6-1.4c-1.8-0.3-3.8-0.4-5.8-0.4
			C193.5,211.6,192.5,211.6,191.4,211.7z"/>
		<path class="st18" d="M158.4,301.3c-1.1,0-2.1,0-3.2-0.1l-0.6,1.4c1,0.1,2.1,0.1,3.2,0.1c2,0,4-0.1,6.1-0.4l0.6-1.4
			C162.4,301.2,160.4,301.3,158.4,301.3z"/>
		<path class="st18" d="M222.5,279.7c-9,22.4-33.2,40.9-55.9,43.8l-0.6,1.4c23.5-2.9,48.5-22,57.8-45.2c9.3-23.1-0.2-42.2-21.4-45.2
			l-0.6,1.4C222.4,238.8,231.5,257.3,222.5,279.7z"/>
		<path class="st18" d="M159.9,297.4c-1.1,0-2.1,0-3.2-0.1l-1.6,3.9c1,0.1,2.1,0.1,3.2,0.1c2,0,4.1-0.1,6.1-0.4l1.6-3.9
			C164,297.3,162,297.4,159.9,297.4z"/>
		<path class="st18" d="M135.9,257.1c7.2-17.8,24.8-32.9,42.9-38.2l1.6-4c-20.4,5.5-40.4,22.3-48.4,42.3s-1.7,36.8,14.2,42.3l1.6-4
			C134.1,290,128.7,274.9,135.9,257.1z"/>
		<path class="st18" d="M192.5,216.8c2,0,3.9,0.2,5.8,0.4l1.6-3.9c-1.8-0.3-3.8-0.4-5.8-0.4c-1.1,0-2.2,0-3.3,0.1l-1.6,3.9
			C190.3,216.8,191.4,216.8,192.5,216.8z"/>
		<path class="st18" d="M218.6,279.7c-8.2,20.2-29.9,37-50.5,39.9l-1.6,3.9c22.8-2.9,46.9-21.4,55.9-43.8c9-22.4-0.1-40.9-20.5-43.8
			l-1.6,3.9C218.7,242.7,226.8,259.5,218.6,279.7z"/>
		<path class="st18" d="M160.9,295.1c-1.1,0-2.1,0-3.2-0.1l-1,2.4c1,0.1,2.1,0.1,3.2,0.1c2,0,4.1-0.2,6.1-0.4l1-2.4
			C165,294.9,162.9,295.1,160.9,295.1z"/>
		<path class="st18" d="M216.3,279.7c-7.6,18.9-27.9,34.6-47.1,37.5l-1,2.4c20.6-2.9,42.3-19.6,50.5-39.9c8.2-20.2,0-37-18.3-39.9
			l-1,2.4C216.4,245.1,223.9,260.8,216.3,279.7z"/>
		<path class="st18" d="M191.6,219.2c2,0,3.9,0.2,5.8,0.5l1-2.4c-1.8-0.3-3.7-0.4-5.8-0.4c-1.1,0-2.2,0-3.3,0.1l-1,2.4
			C189.4,219.2,190.5,219.2,191.6,219.2z"/>
		<path class="st18" d="M135.9,257.1c-7.2,17.8-1.8,32.9,12,38.2l1-2.5c-12.5-5.3-17.3-19.3-10.7-35.7c6.6-16.4,22.8-30.4,39.5-35.7
			l1-2.5C160.7,224.3,143.1,239.3,135.9,257.1z"/>
		<path class="st18" d="M161.4,293.9c-1.1,0-2.1,0-3.2-0.1l-0.5,1.1c1,0.1,2.1,0.1,3.2,0.1c2,0,4.1-0.2,6.1-0.5l0.5-1.2
			C165.4,293.8,163.4,293.9,161.4,293.9z"/>
		<path class="st18" d="M191.1,220.3c2,0,3.9,0.2,5.7,0.5l0.5-1.2c-1.8-0.3-3.7-0.5-5.8-0.5c-1.1,0-2.2,0-3.3,0.1l-0.5,1.1
			C188.9,220.4,190,220.3,191.1,220.3z"/>
		<path class="st18" d="M215.1,279.7c-7.4,18.3-26.9,33.5-45.5,36.3l-0.5,1.2c19.3-2.9,39.5-18.5,47.1-37.5
			c7.6-18.9,0.1-34.6-16.9-37.5l-0.5,1.2C215.3,246.2,222.5,261.4,215.1,279.7z"/>
		<path class="st18" d="M139.4,257.1c6.4-15.8,21.8-29.3,37.9-34.5l0.5-1.2c-16.8,5.3-32.9,19.3-39.5,35.7
			c-6.6,16.4-1.8,30.4,10.7,35.7l0.5-1.2C137.6,286.4,133,272.9,139.4,257.1z"/>
		<path class="st18" d="M190.6,221.4c2,0,3.9,0.2,5.7,0.5l0.5-1.1c-1.8-0.3-3.7-0.5-5.7-0.5c-1.1,0-2.2,0-3.3,0.1l-0.4,1.1
			C188.5,221.5,189.6,221.4,190.6,221.4z"/>
		<path class="st18" d="M214,279.7c-7.1,17.7-25.9,32.4-44,35.2l-0.5,1.1c18.6-2.8,38.1-18,45.5-36.3c7.4-18.3,0.2-33.5-16.2-36.3
			l-0.5,1.1C214.2,247.4,221.2,262,214,279.7z"/>
		<path class="st18" d="M167.5,293.4l0.5-1.1c-2.1,0.3-4.1,0.5-6.1,0.5c-1.1,0-2.1-0.1-3.2-0.1l-0.4,1.1c1,0.1,2.1,0.1,3.2,0.1
			C163.4,293.9,165.4,293.8,167.5,293.4z"/>
		<path class="st18" d="M140.5,257.1c6.1-15.2,20.9-28.2,36.3-33.3l0.5-1.2c-16.1,5.2-31.5,18.7-37.9,34.5
			c-6.4,15.8-1.9,29.3,10,34.5l0.5-1.2C138.6,285.3,134.4,272.3,140.5,257.1z"/>
		<path class="st18" d="M143.6,257.1c5.4-13.4,18.2-25,31.8-29.9l1.4-3.4c-15.4,5.2-30.2,18.1-36.3,33.3
			c-6.1,15.2-1.9,28.2,9.4,33.3l1.4-3.4C141.7,282.1,138.2,270.6,143.6,257.1z"/>
		<path class="st18" d="M189.4,224.5c2,0,3.9,0.2,5.7,0.5l1.3-3.2c-1.8-0.3-3.7-0.5-5.7-0.5c-1.1,0-2.2,0.1-3.3,0.1l-1.3,3.1
			C187.2,224.6,188.3,224.5,189.4,224.5z"/>
		<path class="st18" d="M214,279.7c7.1-17.7,0.2-32.4-15.5-35.2l-1.3,3.2c14,2.8,20.1,16.1,13.7,32s-23.3,29.2-39.6,32l-1.3,3.2
			C188.1,312.1,206.9,297.4,214,279.7z"/>
		<path class="st18" d="M163.1,289.7c-1.1,0-2.1-0.1-3.1-0.2l-1.3,3.1c1,0.1,2.1,0.1,3.2,0.1c2,0,4.1-0.2,6.1-0.5l1.3-3.2
			C167.2,289.5,165.1,289.7,163.1,289.7z"/>
		<path class="st18" d="M146.5,257.1c4.8-11.8,15.8-22,27.7-26.8l1.3-3.1c-13.6,5-26.4,16.5-31.8,29.9c-5.4,13.4-2,25,7.6,29.9
			l1.3-3.1C144.5,279.1,141.7,268.9,146.5,257.1z"/>
		<path class="st18" d="M186.1,224.7l-1.2,2.9c1.1-0.1,2.2-0.2,3.3-0.2c2,0,3.9,0.2,5.7,0.6l1.2-2.9c-1.8-0.4-3.7-0.5-5.7-0.5
			C188.3,224.5,187.2,224.6,186.1,224.7z"/>
		<path class="st18" d="M164.2,286.9c-1.1,0-2.1-0.1-3.1-0.2l-1.2,2.9c1,0.1,2.1,0.2,3.1,0.2c2,0,4.1-0.2,6.2-0.5l1.2-2.9
			C168.3,286.7,166.2,286.9,164.2,286.9z"/>
		<path class="st18" d="M208.1,279.7c-5.8,14.4-20.9,26.4-35.6,29.1l-1.2,2.9c16.3-2.8,33.1-16.1,39.6-32s0.3-29.2-13.7-32l-1.2,2.9
			C208.5,253.3,213.9,265.3,208.1,279.7z"/>
		<path class="st18" d="M164.9,285.1c-1.1,0-2.1-0.1-3.1-0.2l-0.7,1.8c1,0.1,2.1,0.2,3.1,0.2c2,0,4.1-0.2,6.2-0.6l0.7-1.8
			C169,284.9,167,285.1,164.9,285.1z"/>
		<path class="st18" d="M148.3,257.1c4.4-10.8,14.3-20.2,25.2-24.9l0.8-2c-11.9,4.8-22.9,15-27.7,26.8c-4.8,11.8-2,22,6,26.8l0.8-2
			C146.2,277.3,143.9,267.9,148.3,257.1z"/>
		<path class="st18" d="M187.5,229.1c2,0,3.9,0.2,5.7,0.6l0.7-1.8c-1.8-0.4-3.7-0.6-5.7-0.6c-1.1,0-2.2,0.1-3.3,0.2l-0.7,1.8
			C185.3,229.2,186.4,229.1,187.5,229.1z"/>
		<path class="st18" d="M206.3,279.7c-5.4,13.4-19.4,24.6-33.1,27.3l-0.7,1.8c14.7-2.8,29.8-14.8,35.6-29.1
			c5.8-14.4,0.4-26.4-12-29.1l-0.7,1.8C206.8,255.1,211.7,266.3,206.3,279.7z"/>
		<path class="st18" d="M165.3,284.3c-1.1,0-2.1-0.1-3.1-0.2l-0.3,0.8c1,0.1,2.1,0.2,3.1,0.2c2,0,4.1-0.2,6.2-0.6l0.3-0.9
			C169.4,284,167.3,284.3,165.3,284.3z"/>
		<path class="st18" d="M205.5,279.7c-5.2,12.9-18.7,23.8-31.9,26.5l-0.3,0.9c13.7-2.7,27.7-13.9,33.1-27.3
			c5.4-13.4,0.5-24.6-11-27.3l-0.3,0.9C206,256,210.7,266.8,205.5,279.7z"/>
		<path class="st18" d="M187.2,230c2,0,3.9,0.2,5.7,0.7l0.3-0.9c-1.7-0.4-3.6-0.6-5.7-0.6c-1.1,0-2.2,0.1-3.3,0.2l-0.3,0.8
			C185,230.1,186.1,230,187.2,230z"/>
		<path class="st18" d="M148.3,257.1c-4.4,10.8-2,20.2,5.1,24.9l0.4-0.9c-6.7-4.6-8.8-13.6-4.6-23.9c4.2-10.3,13.6-19.3,23.9-23.9
			l0.4-0.9C162.6,236.9,152.6,246.3,148.3,257.1z"/>
		<path class="st18" d="M203.9,279.7c-4.9,12.1-17.3,22.2-29.6,24.8l-0.7,1.6c13.2-2.7,26.7-13.5,31.9-26.5S206,256,195,253.2
			l-0.7,1.6C204.5,257.6,208.7,267.7,203.9,279.7z"/>
		<path class="st18" d="M186.5,231.6c2,0,3.9,0.2,5.7,0.7l0.7-1.6c-1.7-0.4-3.6-0.7-5.7-0.7c-1.1,0-2.2,0.1-3.3,0.2l-0.7,1.6
			C184.4,231.7,185.5,231.6,186.5,231.6z"/>
		<path class="st18" d="M165.9,282.7c-1.1,0-2.1-0.1-3.1-0.2l-0.7,1.6c1,0.1,2,0.2,3.1,0.2c2,0,4.1-0.2,6.2-0.7l0.7-1.6
			C170,282.4,168,282.7,165.9,282.7z"/>
		<path class="st18" d="M150.7,257.1c3.8-9.4,12.2-17.6,21.6-22.1l0.7-1.8c-10.4,4.6-19.8,13.6-23.9,23.9c-4.2,10.3-2,19.3,4.6,23.9
			l0.7-1.8C148.7,274.8,146.9,266.5,150.7,257.1z"/>
		<path class="st18" d="M185.4,234.5c2.1,0,3.9,0.3,5.6,0.8l1.2-3c-1.7-0.5-3.6-0.7-5.7-0.7c-1.1,0-2.2,0.1-3.3,0.2l-1.2,3
			C183.2,234.6,184.3,234.5,185.4,234.5z"/>
		<path class="st18" d="M200.9,279.7c-4.2,10.4-14.8,19.2-25.5,21.8l-1.2,3c12.3-2.7,24.8-12.8,29.6-24.8
			c4.9-12.1,0.6-22.2-9.6-24.8l-1.2,3C201.6,260.5,205.1,269.3,200.9,279.7z"/>
		<path class="st18" d="M172.1,282l1.2-3c-2.1,0.5-4.2,0.8-6.3,0.8c-1.1,0-2.1-0.1-3.1-0.2l-1.2,3c1,0.1,2,0.2,3.1,0.2
			C168,282.7,170,282.4,172.1,282z"/>
		<path class="st18" d="M153.6,257.1c3.1-7.7,9.7-14.5,17.3-18.6l1.4-3.5c-9.4,4.4-17.8,12.7-21.6,22.1c-3.8,9.4-2,17.6,3.8,22.1
			l1.4-3.5C151.6,271.6,150.5,264.8,153.6,257.1z"/>
		<path class="st18" d="M184.3,237.1c2.1,0,3.9,0.3,5.6,0.9l1.1-2.7c-1.7-0.5-3.6-0.8-5.6-0.8c-1.1,0-2.2,0.1-3.3,0.2l-1.1,2.6
			C182.1,237.2,183.2,237.1,184.3,237.1z"/>
		<path class="st18" d="M156.2,257.1c2.5-6.2,7.5-11.7,13.4-15.3l1.3-3.3c-7.5,4.1-14.2,10.9-17.3,18.6c-3.1,7.7-2,14.5,2.2,18.6
			l1.3-3.3C154.3,268.8,153.7,263.3,156.2,257.1z"/>
		<path class="st18" d="M200.9,279.7c4.2-10.4,0.7-19.2-7.9-21.8l-1.1,2.7c7.1,2.5,10,10.1,6.3,19.1c-3.6,9-12.6,16.6-21.8,19.1
			l-1.1,2.7C186.1,298.9,196.7,290.2,200.9,279.7z"/>
		<path class="st18" d="M168.1,277.1c-1.1,0-2.1-0.1-3.1-0.3l-1.1,2.6c1,0.1,2,0.2,3.1,0.2c2.1,0,4.2-0.3,6.3-0.8l1.1-2.7
			C172.3,276.8,170.2,277.1,168.1,277.1z"/>
		<path class="st18" d="M158,257.1c2.1-5.1,6-9.7,10.7-13l1-2.4c-5.9,3.7-10.9,9.2-13.4,15.3c-2.5,6.2-1.9,11.7,1,15.3l1-2.4
			C156.1,266.8,155.9,262.2,158,257.1z"/>
		<path class="st18" d="M181,237.4l-0.7,1.8c1.1-0.2,2.2-0.3,3.3-0.3c2.1,0,3.9,0.4,5.5,1l0.7-1.8c-1.6-0.6-3.5-0.9-5.6-0.9
			C183.2,237.1,182.1,237.2,181,237.4z"/>
		<path class="st18" d="M168.8,275.4c-1.1,0-2.1-0.1-3.1-0.3l-0.7,1.8c1,0.2,2,0.3,3.1,0.3c2.1,0,4.2-0.3,6.3-0.9l0.7-1.8
			C173.1,275,170.9,275.4,168.8,275.4z"/>
		<path class="st18" d="M196.6,279.7c-3.2,8-11.1,14.8-19.3,17.3l-0.7,1.8c9.2-2.5,18.2-10.1,21.8-19.1c3.6-9,0.8-16.6-6.3-19.1
			l-0.7,1.8C197.4,264.9,199.8,271.7,196.6,279.7z"/>
		<path class="st18" d="M168.8,275.4c2.1,0,4.2-0.4,6.3-1l14-34.5c-1.6-0.6-3.5-1-5.5-1c-1.1,0-2.2,0.1-3.3,0.3l-14.5,36
			C166.7,275.3,167.8,275.4,168.8,275.4z"/>
		<path class="st18" d="M196.6,279.7c3.2-8,0.8-14.8-5.3-17.3l-14,34.5C185.5,294.5,193.4,287.7,196.6,279.7z"/>
		<path class="st18" d="M158,257.1c-2.1,5.1-1.8,9.7,0.2,13l10.5-25.9C163.9,247.5,160,252,158,257.1z"/>
	</g>
</g>
<g id="Layer_2">
</g>
<g id="Layer_3">
</g>
<g id="Layer_5">
</g>
<g id="Layer_6">
</g>
</svg>
