<?xml version="1.0" encoding="utf-8"?>
<!-- Generator: Adobe Illustrator 19.1.0, SVG Export Plug-In . SVG Version: 6.00 Build 0)  -->
<svg version="1.1" xmlns="http://www.w3.org/2000/svg" xmlns:xlink="http://www.w3.org/1999/xlink" x="0px" y="0px"
	 viewBox="0 0 360 540" style="enable-background:new 0 0 360 540;" xml:space="preserve">
<style type="text/css">
	.st0{display:none;}
	.st1{display:inline;fill:#666766;}
	.st2{fill:none;stroke:#000000;stroke-miterlimit:10;}
	.st3{fill:none;stroke:#CCCCCC;stroke-miterlimit:10;}
	.st4{fill:#CCCCCC;}
	.st5{fill:none;stroke:#CCCCCC;stroke-width:3;stroke-miterlimit:10;}
	.st6{fill:none;stroke:#CCCCCC;stroke-width:2;stroke-miterlimit:10;}
	.st7{fill:none;stroke:#CCCCCC;stroke-width:7;stroke-miterlimit:10;}
	.st8{fill:none;}
	.st9{fill:none;stroke:#CCCCCC;stroke-miterlimit:10;stroke-dasharray:12,12;}
	.st10{clip-path:url(#SVGID_2_);fill:none;stroke:#CCCCCC;stroke-miterlimit:10;}
	.st11{clip-path:url(#SVGID_2_);fill:none;stroke:#CCCCCC;stroke-width:7;stroke-miterlimit:10;}
	.st12{clip-path:url(#SVGID_2_);}
	.st13{clip-path:url(#SVGID_2_);fill:#CCCCCC;}
	.st14{clip-path:url(#SVGID_2_);fill:none;stroke:#CCCCCC;stroke-miterlimit:10;stroke-dasharray:12,12;}
	.st15{fill:#010101;stroke:#CCCCCC;stroke-width:2;stroke-miterlimit:10;}
	.st16{fill:#010101;}
	.st17{fill:none;stroke:#CCCCCC;stroke-width:2;stroke-miterlimit:10;stroke-dasharray:12;}
	.st18{fill:none;stroke:#FFFFFF;stroke-miterlimit:10;}
	.st19{clip-path:url(#SVGID_4_);fill:none;stroke:#CCCCCC;stroke-miterlimit:10;}
	.st20{clip-path:url(#SVGID_4_);}
	.st21{fill:none;stroke:#000000;stroke-width:7;stroke-miterlimit:10;}
</style>
<g id="Layer_4" class="st0">
</g>
<g id="Layer_1">
	<path class="st18" d="M19.6,263.8c0-83.5,64-152,145.6-159.2v-5c-84.4,7.2-150.6,77.9-150.6,164.2s66.2,157,150.6,164.2v-5
		C83.6,415.8,19.6,347.3,19.6,263.8z"/>
	<path class="st18" d="M344.1,263.8c0-88.8-70.3-161.2-158.2-164.6v4.9c85.2,3.4,153.3,73.6,153.3,159.7s-68,156.3-153.3,159.7v4.9
		C273.9,425,344.1,352.6,344.1,263.8z"/>
	<path class="st18" d="M165.2,423v5c3.5,0.3,7.1,0.5,10.6,0.6v-4.9C172.3,423.5,168.7,423.3,165.2,423z"/>
	<path class="st18" d="M24.3,263.8c0-80.8,61.9-147.2,140.9-154.4v-4.8c-81.6,7.2-145.6,75.7-145.6,159.2s64,152,145.6,159.2v-4.8
		C86.2,411,24.3,344.7,24.3,263.8z"/>
	<path class="st18" d="M165.2,418.2v4.8c3.5,0.3,7.1,0.5,10.6,0.6v-4.8C172.3,418.7,168.7,418.5,165.2,418.2z"/>
	<path class="st18" d="M334.4,263.8c0,83.4-65.9,151.5-148.5,154.9v4.8c85.2-3.4,153.3-73.6,153.3-159.7s-68-156.3-153.3-159.7v4.8
		C268.5,112.4,334.4,180.4,334.4,263.8z"/>
	<path class="st18" d="M29,263.8c0-78.3,59.8-142.6,136.2-149.7v-4.7c-79,7.2-140.9,73.5-140.9,154.4S86.2,411,165.2,418.2v-4.7
		C88.8,406.4,29,342.1,29,263.8z"/>
	<path class="st18" d="M165.2,413.5v4.7c3.5,0.3,7.1,0.5,10.6,0.6v-4.7C172.3,414.1,168.7,413.9,165.2,413.5z"/>
	<path class="st18" d="M329.8,263.8c0,80.9-63.8,146.8-143.8,150.2v4.7c82.6-3.4,148.5-71.5,148.5-154.9s-65.9-151.5-148.5-154.9
		v4.7C265.9,117,329.8,183,329.8,263.8z"/>
	<path class="st18" d="M165.2,409v4.5c3.5,0.3,7.1,0.5,10.6,0.6v-4.5C172.3,409.5,168.7,409.3,165.2,409z"/>
	<path class="st18" d="M325.2,263.8c0,78.4-61.8,142.3-139.3,145.7v4.5c80-3.4,143.8-69.4,143.8-150.2S265.9,117,185.9,113.6v4.5
		C263.4,121.5,325.2,185.4,325.2,263.8z"/>
	<path class="st18" d="M29,263.8c0,78.3,59.8,142.6,136.2,149.7V409c-73.9-7.1-131.7-69.4-131.7-145.2s57.8-138.1,131.7-145.2v-4.5
		C88.8,121.2,29,185.5,29,263.8z"/>
	<path class="st18" d="M320.9,263.8c0,75.9-59.8,137.9-134.9,141.3v4.4c77.5-3.4,139.3-67.4,139.3-145.7s-61.8-142.3-139.3-145.7
		v4.4C261,125.9,320.9,187.9,320.9,263.8z"/>
	<path class="st18" d="M175.8,405.3c-3.6-0.1-7.1-0.3-10.6-0.7v4.4c3.5,0.3,7.1,0.6,10.6,0.6V405.3z"/>
	<path class="st18" d="M37.9,263.8c0-73.4,55.8-133.7,127.3-140.8v-4.4C91.3,125.8,33.5,188,33.5,263.8S91.3,401.9,165.2,409v-4.4
		C93.7,397.5,37.9,337.2,37.9,263.8z"/>
	<path class="st18" d="M316.6,263.8c0,73.6-57.9,133.7-130.7,137.1v4.2c75.1-3.4,134.9-65.4,134.9-141.3
		c0-75.9-59.8-137.9-134.9-141.3v4.2C258.7,130.1,316.6,190.2,316.6,263.8z"/>
	<path class="st18" d="M165.2,400.3v4.3c3.5,0.3,7.1,0.6,10.6,0.7V401C172.3,400.9,168.7,400.7,165.2,400.3z"/>
	<path class="st18" d="M42.1,263.8c0-71,53.9-129.4,123.1-136.5V123c-71.5,7.1-127.3,67.4-127.3,140.8s55.8,133.7,127.3,140.8v-4.3
		C96.1,393.2,42.1,334.8,42.1,263.8z"/>
	<path class="st18" d="M316.6,263.8c0-73.6-57.9-133.7-130.7-137.1v4.1c70.5,3.4,126.6,61.6,126.6,133s-56.1,129.6-126.6,133v4.1
		C258.7,397.5,316.6,337.4,316.6,263.8z"/>
	<path class="st18" d="M46.2,263.8c0-68.7,52.1-125.3,119-132.4v-4.1c-69.1,7.1-123.1,65.5-123.1,136.5s53.9,129.4,123.1,136.5v-4.1
		C98.3,389.1,46.2,332.5,46.2,263.8z"/>
	<path class="st18" d="M165.2,396.2v4.1c3.5,0.4,7.1,0.6,10.6,0.7v-4.1C172.3,396.8,168.7,396.6,165.2,396.2z"/>
	<path class="st18" d="M50.2,263.8c0-66.5,50.3-121.3,115-128.4v-4c-66.9,7.1-119,63.6-119,132.4s52.1,125.3,119,132.4v-4
		C100.6,385.1,50.2,330.3,50.2,263.8z"/>
	<path class="st18" d="M308.5,263.8c0,69.1-54.3,125.6-122.6,129v4c70.5-3.4,126.6-61.6,126.6-133s-56.1-129.6-126.6-133v4
		C254.2,138.3,308.5,194.7,308.5,263.8z"/>
	<path class="st18" d="M54.1,263.8c0-64.4,48.6-117.4,111.1-124.5v-3.9c-64.6,7.1-115,61.8-115,128.4s50.3,121.3,115,128.4v-3.9
		C102.7,381.2,54.1,328.2,54.1,263.8z"/>
	<path class="st18" d="M304.6,263.8c0,67-52.6,121.7-118.7,125.1v3.9c68.3-3.4,122.6-59.8,122.6-129s-54.3-125.6-122.6-129v3.9
		C252.1,142.1,304.6,196.8,304.6,263.8z"/>
	<path class="st18" d="M300.9,263.8c0,64.9-50.9,117.9-114.9,121.3v3.8c66.1-3.4,118.7-58.1,118.7-125.1s-52.6-121.7-118.7-125.1
		v3.8C250,145.9,300.9,198.9,300.9,263.8z"/>
	<path class="st18" d="M54.1,263.8c0,64.4,48.6,117.4,111.1,124.5v-3.8c-60.4-7-107.3-58.4-107.3-120.7s46.9-113.7,107.3-120.7v-3.8
		C102.7,146.4,54.1,199.4,54.1,263.8z"/>
	<path class="st18" d="M297.2,263.8c0,62.9-49.3,114.3-111.3,117.7v3.7c64.1-3.4,114.9-56.4,114.9-121.3
		c0-64.9-50.9-117.9-114.9-121.3v3.7C248,149.5,297.2,200.9,297.2,263.8z"/>
	<path class="st18" d="M61.5,263.8c0-60.3,45.3-110,103.7-117v-3.7c-60.4,7-107.3,58.4-107.3,120.7s46.9,113.7,107.3,120.7v-3.7
		C106.8,373.8,61.5,324.1,61.5,263.8z"/>
	<path class="st18" d="M293.7,263.8c0,60.9-47.7,110.7-107.8,114.1v3.5c62-3.4,111.3-54.8,111.3-117.7S248,149.5,185.9,146.1v3.5
		C246,153.1,293.7,202.9,293.7,263.8z"/>
	<path class="st18" d="M65.1,263.8c0-58.3,43.7-106.5,100.1-113.4v-3.6c-58.4,7-103.7,56.7-103.7,117s45.3,110,103.7,117v-3.6
		C108.8,370.3,65.1,322.1,65.1,263.8z"/>
	<path class="st18" d="M68.5,263.8c0-56.4,42.2-103,96.7-110v-3.5c-56.4,7-100.1,55.1-100.1,113.4s43.7,106.5,100.1,113.4v-3.5
		C110.7,366.8,68.5,320.3,68.5,263.8z"/>
	<path class="st18" d="M293.7,263.8c0-60.9-47.7-110.7-107.8-114.1v3.4c58.2,3.4,104.3,51.7,104.3,110.7s-46.1,107.3-104.3,110.7
		v3.4C246,374.5,293.7,324.7,293.7,263.8z"/>
	<path class="st18" d="M71.8,263.8c0-54.6,40.7-99.7,93.4-106.6v-3.4c-54.5,7-96.7,53.6-96.7,110s42.2,103,96.7,110v-3.4
		C112.5,363.5,71.8,318.4,71.8,263.8z"/>
	<path class="st18" d="M286.9,263.8c0,57.2-44.7,104-101,107.4v3.3c58.2-3.4,104.3-51.7,104.3-110.7s-46.1-107.3-104.3-110.7v3.3
		C242.3,159.8,286.9,206.6,286.9,263.8z"/>
	<path class="st18" d="M75,263.8c0-52.8,39.2-96.5,90.2-103.4v-3.3c-52.7,6.9-93.4,52-93.4,106.6s40.7,99.7,93.4,106.6v-3.3
		C114.3,360.3,75,316.6,75,263.8z"/>
	<path class="st18" d="M283.7,263.8c0,55.4-43.2,100.8-97.8,104.1v3.2c56.4-3.4,101-50.2,101-107.4c0-57.2-44.7-104-101-107.4v3.2
		C240.5,163.1,283.7,208.4,283.7,263.8z"/>
	<path class="st18" d="M280.6,263.8c0,53.7-41.8,97.6-94.7,101v3.1c54.6-3.4,97.8-48.7,97.8-104.1s-43.2-100.8-97.8-104.1v3.1
		C238.8,166.2,280.6,210.1,280.6,263.8z"/>
	<path class="st18" d="M75,263.8c0,52.8,39.2,96.5,90.2,103.4V364c-49.2-6.9-87-49.1-87-100.2s37.8-93.3,87-100.2v-3.2
		C114.3,167.3,75,211,75,263.8z"/>
	<path class="st18" d="M277.5,263.8c0,52-40.5,94.6-91.6,98v3c52.8-3.4,94.7-47.3,94.7-101s-41.8-97.6-94.7-101v3
		C237.1,169.2,277.5,211.8,277.5,263.8z"/>
	<path class="st18" d="M81.2,263.8c0-49.4,36.5-90.3,84-97.2v-3.1c-49.2,6.9-87,49.1-87,100.2s37.8,93.3,87,100.2V361
		C117.7,354.1,81.2,313.2,81.2,263.8z"/>
	<path class="st18" d="M274.6,263.8c0,50.4-39.1,91.6-88.7,95v3c51.2-3.4,91.6-45.9,91.6-98s-40.5-94.6-91.6-98v3
		C235.5,172.2,274.6,213.4,274.6,263.8z"/>
	<path class="st18" d="M84.2,263.8c0-47.8,35.2-87.3,81.1-94.2v-3c-47.5,6.9-84,47.7-84,97.2s36.5,90.3,84,97.2v-3
		C119.3,351.1,84.2,311.6,84.2,263.8z"/>
	<path class="st18" d="M87,263.8c0-46.2,33.9-84.5,78.2-91.3v-2.9c-45.9,6.8-81.1,46.4-81.1,94.2s35.2,87.3,81.1,94.2v-2.9
		C120.9,348.3,87,310,87,263.8z"/>
	<path class="st18" d="M274.6,263.8c0-50.4-39.1-91.6-88.7-95v2.9c48,3.4,85.8,43.3,85.8,92.1s-37.9,88.8-85.8,92.1v2.9
		C235.5,355.4,274.6,314.2,274.6,263.8z"/>
	<path class="st18" d="M89.8,263.8c0-44.7,32.7-81.7,75.4-88.5v-2.8c-44.3,6.8-78.2,45.1-78.2,91.3s33.9,84.5,78.2,91.3v-2.8
		C122.5,345.5,89.8,308.5,89.8,263.8z"/>
	<path class="st18" d="M269,263.8c0,47.3-36.6,86-83,89.4v2.8c48-3.4,85.8-43.3,85.8-92.1s-37.9-88.8-85.8-92.1v2.8
		C232.4,177.8,269,216.5,269,263.8z"/>
	<path class="st18" d="M92.5,263.8c0-43.2,31.5-79,72.7-85.8v-2.7c-42.7,6.8-75.4,43.8-75.4,88.5s32.7,81.7,75.4,88.5v-2.7
		C123.9,342.8,92.5,307,92.5,263.8z"/>
	<path class="st18" d="M266.3,263.8c0,45.8-35.4,83.3-80.4,86.7v2.7c46.4-3.4,83-42.1,83-89.4c0-47.3-36.6-86-83-89.4v2.7
		C230.9,180.5,266.3,218,266.3,263.8z"/>
	<path class="st18" d="M263.7,263.8c0,44.4-34.3,80.7-77.8,84.1v2.6c44.9-3.3,80.4-40.9,80.4-86.7s-35.4-83.3-80.4-86.7v2.6
		C229.4,183.1,263.7,219.5,263.7,263.8z"/>
	<path class="st18" d="M92.5,263.8c0,43.2,31.5,79,72.7,85.8v-2.6c-39.8-6.7-70.1-41.4-70.1-83.1s30.3-76.4,70.1-83.1v-2.6
		C123.9,184.8,92.5,220.6,92.5,263.8z"/>
	<path class="st18" d="M261.1,263.8c0,43-33.1,78.2-75.2,81.5v2.5c43.5-3.3,77.8-39.7,77.8-84.1s-34.3-80.7-77.8-84.1v2.5
		C228,185.6,261.1,220.9,261.1,263.8z"/>
	<path class="st18" d="M97.6,263.8c0-40.3,29.2-73.8,67.6-80.5v-2.6c-39.8,6.7-70.1,41.4-70.1,83.1s30.3,76.4,70.1,83.1v-2.6
		C126.8,337.6,97.6,304.1,97.6,263.8z"/>
	<path class="st18" d="M258.7,263.8c0,41.6-32,75.7-72.8,79v2.5c42.1-3.3,75.2-38.6,75.2-81.5c0-43-33.1-78.2-75.2-81.5v2.5
		C226.7,188.1,258.7,222.2,258.7,263.8z"/>
	<path class="st18" d="M100.1,263.8c0-39,28.1-71.4,65.1-78.1v-2.5c-38.4,6.7-67.6,40.2-67.6,80.5s29.2,73.8,67.6,80.5v-2.5
		C128.2,335.2,100.1,302.8,100.1,263.8z"/>
	<path class="st18" d="M102.4,263.8c0-37.7,27-69,62.8-75.6v-2.4c-37,6.7-65.1,39.1-65.1,78.1s28.1,71.4,65.1,78.1v-2.4
		C129.5,332.8,102.4,301.5,102.4,263.8z"/>
	<path class="st18" d="M258.7,263.8c0-41.6-32-75.7-72.8-79v2.4c39.4,3.3,70.4,36.4,70.4,76.7c0,40.3-31,73.3-70.4,76.7v2.4
		C226.7,339.5,258.7,305.4,258.7,263.8z"/>
	<path class="st18" d="M104.7,263.8c0-36.4,26-66.7,60.5-73.3v-2.4c-35.7,6.7-62.8,38-62.8,75.6s27,69,62.8,75.6v-2.4
		C130.8,330.5,104.7,300.2,104.7,263.8z"/>
	<path class="st18" d="M254,263.8c0,39-29.9,71-68.1,74.3v2.3c39.4-3.3,70.4-36.4,70.4-76.7c0-40.3-31-73.3-70.4-76.7v2.3
		C224.1,192.8,254,224.8,254,263.8z"/>
	<path class="st18" d="M107,263.8c0-35.1,25-64.4,58.2-71v-2.3c-34.4,6.6-60.5,36.9-60.5,73.3s26,66.7,60.5,73.3v-2.3
		C132,328.2,107,298.9,107,263.8z"/>
	<path class="st18" d="M251.8,263.8c0,37.8-28.9,68.8-65.8,72.1v2.2c38.1-3.3,68.1-35.3,68.1-74.3s-29.9-71-68.1-74.3v2.2
		C222.8,195,251.8,226,251.8,263.8z"/>
	<path class="st18" d="M249.6,263.8c0,36.6-28,66.6-63.7,69.9v2.2c36.9-3.3,65.8-34.3,65.8-72.1c0-37.8-28.9-68.8-65.8-72.1v2.2
		C221.6,197.2,249.6,227.2,249.6,263.8z"/>
	<path class="st18" d="M107,263.8c0,35.1,25,64.4,58.2,71v-2.2c-32-6.6-56-34.9-56-68.8c0-33.9,24.1-62.2,56-68.8v-2.2
		C132,199.4,107,228.7,107,263.8z"/>
	<path class="st18" d="M247.5,263.8c0,35.4-27,64.5-61.6,67.8v2.1c35.7-3.3,63.7-33.3,63.7-69.9c0-36.6-28-66.6-63.7-69.9v2.1
		C220.5,199.3,247.5,228.4,247.5,263.8z"/>
	<path class="st18" d="M111.3,263.8c0-32.8,23.1-60.1,53.9-66.6V195c-32,6.6-56,34.9-56,68.8c0,33.9,24.1,62.2,56,68.8v-2.2
		C134.4,323.9,111.3,296.6,111.3,263.8z"/>
	<path class="st18" d="M245.4,263.8c0,34.3-26.1,62.5-59.5,65.7v2.1c34.5-3.3,61.6-32.4,61.6-67.8s-27-64.5-61.6-67.8v2.1
		C219.3,201.4,245.4,229.5,245.4,263.8z"/>
	<path class="st18" d="M113.3,263.8c0-31.6,22.2-58.1,51.9-64.5v-2.1c-30.8,6.5-53.9,33.9-53.9,66.6s23.1,60.1,53.9,66.6v-2.1
		C135.5,321.9,113.3,295.4,113.3,263.8z"/>
	<path class="st18" d="M115.3,263.8c0-30.5,21.3-56.1,49.9-62.5v-2c-29.7,6.5-51.9,32.9-51.9,64.5c0,31.6,22.2,58.1,51.9,64.5v-2
		C136.6,319.9,115.3,294.3,115.3,263.8z"/>
	<path class="st18" d="M245.4,263.8c0-34.3-26.1-62.5-59.5-65.7v2c32.3,3.3,57.5,30.6,57.5,63.8s-25.2,60.5-57.5,63.8v2
		C219.3,326.3,245.4,298.1,245.4,263.8z"/>
	<path class="st18" d="M117.2,263.8c0-29.5,20.5-54.1,48-60.5v-2c-28.6,6.5-49.9,32-49.9,62.5s21.3,56.1,49.9,62.5v-2
		C137.7,317.9,117.2,293.3,117.2,263.8z"/>
	<path class="st18" d="M241.5,263.8c0,32.1-24.4,58.5-55.6,61.8v1.9c32.3-3.3,57.5-30.6,57.5-63.8s-25.2-60.5-57.5-63.8v1.9
		C217.2,205.3,241.5,231.7,241.5,263.8z"/>
	<path class="st18" d="M120.9,263.8c0-27.4,18.9-50.4,44.3-56.8v-3.8c-27.5,6.4-48,31.1-48,60.5c0,29.5,20.5,54.1,48,60.5v-3.8
		C139.7,314.2,120.9,291.2,120.9,263.8z"/>
	<path class="st18" d="M237.9,263.8c0,30.1-22.7,54.9-51.9,58.1v3.7c31.3-3.3,55.6-29.7,55.6-61.8c0-32.1-24.4-58.5-55.6-61.8v3.7
		C215.1,208.9,237.9,233.7,237.9,263.8z"/>
	<path class="st18" d="M179.4,320.5c-1.2,0-2.4,0-3.5-0.1v1.8c1.2,0.1,2.4,0.1,3.5,0.1c2.2,0,4.4-0.1,6.6-0.4v-1.8
		C183.8,320.4,181.6,320.5,179.4,320.5z"/>
	<path class="st18" d="M236.1,263.8c0,29.1-21.9,53.1-50.2,56.4v1.8c29.2-3.3,51.9-28,51.9-58.1c0-30.1-22.7-54.9-51.9-58.1v1.8
		C214.2,210.7,236.1,234.7,236.1,263.8z"/>
	<path class="st18" d="M179.4,207.1c2.2,0,4.4,0.1,6.6,0.4v-1.8c-2.2-0.2-4.3-0.4-6.6-0.4c-1.2,0-2.4,0-3.5,0.1v1.8
		C177,207.1,178.2,207.1,179.4,207.1z"/>
	<path class="st18" d="M120.9,263.8c0,27.4,18.9,50.4,44.3,56.8v-1.8c-24.5-6.3-42.6-28.5-42.6-55c0-26.4,18.1-48.7,42.6-55v-1.8
		C139.7,213.4,120.9,236.4,120.9,263.8z"/>
	<path class="st18" d="M232.8,263.8c0,27.3-20.4,49.8-46.8,53v3.4c28.2-3.2,50.2-27.2,50.2-56.4s-21.9-53.1-50.2-56.4v3.4
		C212.3,214.1,232.8,236.5,232.8,263.8z"/>
	<path class="st18" d="M179.4,317.2c-1.2,0-2.4,0-3.5-0.1v3.4c1.2,0.1,2.4,0.1,3.5,0.1c2.2,0,4.4-0.1,6.6-0.4v-3.4
		C183.8,317.1,181.6,317.2,179.4,317.2z"/>
	<path class="st18" d="M179.4,210.4c2.2,0,4.4,0.1,6.6,0.4v-3.4c-2.2-0.2-4.3-0.4-6.6-0.4c-1.2,0-2.4,0-3.5,0.1v3.4
		C177,210.5,178.2,210.4,179.4,210.4z"/>
	<path class="st18" d="M126,263.8c0-24.6,16.6-45.3,39.2-51.5v-3.5c-24.5,6.3-42.6,28.5-42.6,55c0,26.4,18.1,48.7,42.6,55v-3.5
		C142.6,309.1,126,288.4,126,263.8z"/>
	<path class="st18" d="M179.4,212c2.2,0,4.4,0.1,6.6,0.4v-1.6c-2.1-0.3-4.3-0.4-6.6-0.4c-1.2,0-2.4,0-3.5,0.1v1.6
		C177,212.1,178.2,212,179.4,212z"/>
	<path class="st18" d="M231.2,263.8c0,26.4-19.7,48.2-45.2,51.4v1.6c26.4-3.2,46.8-25.7,46.8-53c0-27.3-20.4-49.8-46.8-53v1.6
		C211.4,215.7,231.2,237.4,231.2,263.8z"/>
	<path class="st18" d="M127.6,263.8c0-23.7,15.9-43.7,37.6-49.8v-1.7c-22.6,6.2-39.2,26.9-39.2,51.5c0,24.6,16.6,45.3,39.2,51.5
		v-1.7C143.5,307.5,127.6,287.5,127.6,263.8z"/>
	<path class="st18" d="M185.9,316.8v-1.6c-2.1,0.3-4.3,0.4-6.6,0.4c-1.2,0-2.4,0-3.5-0.1v1.6c1.2,0.1,2.4,0.1,3.5,0.1
		C181.6,317.2,183.8,317.1,185.9,316.8z"/>
	<path class="st18" d="M129.1,263.8c0-22.8,15.2-42.1,36.1-48.2V214c-21.7,6.2-37.6,26.1-37.6,49.8s15.9,43.7,37.6,49.8V312
		C144.4,305.9,129.1,286.6,129.1,263.8z"/>
	<path class="st18" d="M179.4,213.6c2.2,0,4.4,0.1,6.6,0.4v-1.6c-2.1-0.3-4.3-0.4-6.6-0.4c-1.2,0-2.4,0-3.5,0.1v1.6
		C177,213.6,178.2,213.6,179.4,213.6z"/>
	<path class="st18" d="M179.4,314c-1.2,0-2.4,0-3.5-0.1v1.6c1.2,0.1,2.4,0.1,3.5,0.1c2.2,0,4.4-0.1,6.6-0.4v-1.6
		C183.8,313.9,181.6,314,179.4,314z"/>
	<path class="st18" d="M231.2,263.8c0-26.4-19.7-48.2-45.2-51.4v1.6c24.6,3.2,43.7,24.3,43.7,49.8c0,25.5-19,46.6-43.7,49.8v1.6
		C211.4,312,231.2,290.2,231.2,263.8z"/>
	<path class="st18" d="M130.7,263.8c0-22,14.6-40.6,34.5-46.6v-1.6c-20.8,6.1-36.1,25.4-36.1,48.2c0,22.8,15.2,42.1,36.1,48.2v-1.6
		C145.2,304.4,130.7,285.8,130.7,263.8z"/>
	<path class="st18" d="M175.8,213.7v1.5c1.2-0.1,2.4-0.1,3.5-0.1c2.2,0,4.4,0.2,6.6,0.4V214c-2.1-0.3-4.3-0.4-6.6-0.4
		C178.2,213.6,177,213.6,175.8,213.7z"/>
	<path class="st18" d="M179.4,312.5c-1.2,0-2.4,0-3.5-0.1v1.5c1.2,0.1,2.4,0.1,3.5,0.1c2.2,0,4.4-0.1,6.6-0.4v-1.5
		C183.8,312.4,181.6,312.5,179.4,312.5z"/>
	<path class="st18" d="M228.1,263.8c0,24.7-18.4,45.1-42.2,48.3v1.5c24.6-3.2,43.7-24.3,43.7-49.8c0-25.5-19-46.6-43.7-49.8v1.5
		C209.7,218.7,228.1,239.1,228.1,263.8z"/>
	<path class="st18" d="M179.4,308.3c-1.2,0-2.4,0-3.5-0.1v4.3c1.2,0.1,2.4,0.1,3.5,0.1c2.2,0,4.4-0.2,6.6-0.4v-4.3
		C183.8,308.1,181.6,308.3,179.4,308.3z"/>
	<path class="st18" d="M134.9,263.8c0-19.6,12.7-36.2,30.3-42.2v-4.5c-20,6.1-34.5,24.6-34.5,46.6c0,22,14.6,40.6,34.5,46.6V306
		C147.6,300.1,134.9,283.4,134.9,263.8z"/>
	<path class="st18" d="M179.4,219.3c2.2,0,4.4,0.2,6.6,0.5v-4.3c-2.1-0.3-4.3-0.4-6.6-0.4c-1.2,0-2.4,0-3.5,0.1v4.3
		C177,219.4,178.2,219.3,179.4,219.3z"/>
	<path class="st18" d="M223.8,263.8c0,22.3-16.5,40.8-37.9,44v4.3c23.8-3.2,42.2-23.6,42.2-48.3s-18.4-45.1-42.2-48.3v4.3
		C207.4,223,223.8,241.5,223.8,263.8z"/>
	<path class="st18" d="M179.4,305.7c-1.2,0-2.4-0.1-3.5-0.2v2.6c1.2,0.1,2.4,0.1,3.5,0.1c2.2,0,4.4-0.2,6.6-0.5v-2.7
		C183.8,305.5,181.6,305.7,179.4,305.7z"/>
	<path class="st18" d="M221.2,263.8c0,20.9-15.3,38.2-35.3,41.3v2.7c21.5-3.2,37.9-21.7,37.9-44s-16.5-40.8-37.9-44v2.7
		C205.9,225.6,221.2,242.9,221.2,263.8z"/>
	<path class="st18" d="M179.4,222c2.2,0,4.4,0.2,6.6,0.5v-2.7c-2.1-0.3-4.3-0.5-6.6-0.5c-1.2,0-2.4,0-3.5,0.1v2.6
		C177,222,178.2,222,179.4,222z"/>
	<path class="st18" d="M134.9,263.8c0,19.6,12.7,36.2,30.3,42.2v-2.8c-16.1-5.8-27.7-21.2-27.7-39.4s11.5-33.6,27.7-39.4v-2.8
		C147.6,227.6,134.9,244.2,134.9,263.8z"/>
	<path class="st18" d="M179.4,304.4c-1.2,0-2.4-0.1-3.5-0.2v1.3c1.2,0.1,2.3,0.2,3.5,0.2c2.2,0,4.4-0.2,6.6-0.5v-1.3
		C183.8,304.2,181.6,304.4,179.4,304.4z"/>
	<path class="st18" d="M179.4,223.2c2.2,0,4.4,0.2,6.6,0.5v-1.3c-2.1-0.3-4.3-0.5-6.6-0.5c-1.2,0-2.4,0.1-3.5,0.2v1.3
		C177,223.3,178.2,223.2,179.4,223.2z"/>
	<path class="st18" d="M220,263.8c0,20.2-14.7,36.9-34,40.1v1.3c20-3.1,35.3-20.4,35.3-41.3c0-20.9-15.3-38.2-35.3-41.3v1.3
		C205.2,226.9,220,243.6,220,263.8z"/>
	<path class="st18" d="M138.8,263.8c0-17.4,11-32.3,26.4-38v-1.3c-16.1,5.8-27.7,21.2-27.7,39.4s11.5,33.6,27.7,39.4v-1.3
		C149.8,296.1,138.8,281.2,138.8,263.8z"/>
	<path class="st18" d="M179.4,224.4c2.2,0,4.4,0.2,6.6,0.5v-1.2c-2.1-0.3-4.3-0.5-6.6-0.5c-1.2,0-2.4,0.1-3.5,0.2v1.2
		C177,224.5,178.2,224.4,179.4,224.4z"/>
	<path class="st18" d="M218.7,263.8c0,19.5-14.2,35.7-32.8,38.8v1.2c19.3-3.1,34-19.9,34-40.1c0-20.2-14.7-36.9-34-40.1v1.2
		C204.6,228.1,218.7,244.3,218.7,263.8z"/>
	<path class="st18" d="M185.9,303.9v-1.2c-2.1,0.4-4.3,0.5-6.6,0.5c-1.2,0-2.4-0.1-3.5-0.2v1.2c1.2,0.1,2.3,0.2,3.5,0.2
		C181.6,304.4,183.8,304.2,185.9,303.9z"/>
	<path class="st18" d="M140,263.8c0-16.7,10.5-31,25.2-36.7v-1.3c-15.4,5.7-26.4,20.6-26.4,38c0,17.4,11,32.3,26.4,38v-1.3
		C150.5,294.9,140,280.6,140,263.8z"/>
	<path class="st18" d="M143.4,263.8c0-14.8,9-27.5,21.8-33v-3.7c-14.7,5.7-25.2,20-25.2,36.7c0,16.7,10.5,31,25.2,36.7v-3.7
		C152.4,291.3,143.4,278.6,143.4,263.8z"/>
	<path class="st18" d="M179.4,227.9c2.2,0,4.4,0.2,6.6,0.6V225c-2.1-0.4-4.3-0.5-6.6-0.5c-1.2,0-2.4,0.1-3.5,0.2v3.5
		C177,227.9,178.2,227.9,179.4,227.9z"/>
	<path class="st18" d="M218.7,263.8c0-19.5-14.2-35.7-32.8-38.8v3.5c16.7,3.1,29.4,17.7,29.4,35.3c0,17.6-12.7,32.3-29.4,35.3v3.5
		C204.6,299.5,218.7,283.3,218.7,263.8z"/>
	<path class="st18" d="M179.4,299.7c-1.2,0-2.4-0.1-3.5-0.2v3.5c1.2,0.1,2.3,0.2,3.5,0.2c2.2,0,4.4-0.2,6.6-0.5v-3.5
		C183.8,299.5,181.6,299.7,179.4,299.7z"/>
	<path class="st18" d="M146.6,263.8c0-13,7.6-24.3,18.6-29.6v-3.4c-12.8,5.5-21.8,18.2-21.8,33c0,14.8,9,27.5,21.8,33v-3.4
		C154.2,288.1,146.6,276.8,146.6,263.8z"/>
	<path class="st18" d="M175.8,228.1v3.2c1.2-0.1,2.3-0.2,3.5-0.2c2.2,0,4.4,0.2,6.6,0.7v-3.2c-2.1-0.4-4.3-0.6-6.6-0.6
		C178.2,227.9,177,227.9,175.8,228.1z"/>
	<path class="st18" d="M179.4,296.6c-1.2,0-2.4-0.1-3.5-0.2v3.2c1.2,0.1,2.3,0.2,3.5,0.2c2.2,0,4.4-0.2,6.6-0.6v-3.2
		C183.8,296.4,181.6,296.6,179.4,296.6z"/>
	<path class="st18" d="M212.2,263.8c0,15.9-11.3,29.1-26.2,32.1v3.2c16.7-3.1,29.4-17.7,29.4-35.3c0-17.6-12.7-32.3-29.4-35.3v3.2
		C200.9,234.7,212.2,247.9,212.2,263.8z"/>
	<path class="st18" d="M179.4,294.7c-1.2,0-2.4-0.1-3.5-0.2v2c1.2,0.1,2.3,0.2,3.5,0.2c2.2,0,4.4-0.2,6.6-0.7v-2
		C183.8,294.4,181.6,294.7,179.4,294.7z"/>
	<path class="st18" d="M148.5,263.8c0-11.9,6.8-22.3,16.7-27.4v-2.2c-11,5.3-18.6,16.5-18.6,29.6c0,13,7.6,24.3,18.6,29.6v-2.2
		C155.3,286.1,148.5,275.7,148.5,263.8z"/>
	<path class="st18" d="M179.4,233c2.2,0,4.4,0.2,6.6,0.7v-2c-2.1-0.4-4.3-0.7-6.6-0.7c-1.2,0-2.4,0.1-3.5,0.2v2
		C177,233,178.2,233,179.4,233z"/>
	<path class="st18" d="M210.2,263.8c0,14.8-10.4,27.2-24.3,30.2v2c15-3,26.2-16.3,26.2-32.1c0-15.9-11.3-29.1-26.2-32.1v2
		C199.8,236.7,210.2,249,210.2,263.8z"/>
	<path class="st18" d="M179.4,293.7c-1.2,0-2.4-0.1-3.5-0.2v0.9c1.2,0.1,2.3,0.2,3.5,0.2c2.2,0,4.4-0.2,6.6-0.7V293
		C183.8,293.5,181.6,293.7,179.4,293.7z"/>
	<path class="st18" d="M209.3,263.8c0,14.3-10,26.2-23.4,29.2v0.9c13.9-3,24.3-15.4,24.3-30.2c0-14.8-10.4-27.1-24.3-30.2v0.9
		C199.3,237.6,209.3,249.5,209.3,263.8z"/>
	<path class="st18" d="M179.4,233.9c2.3,0,4.4,0.3,6.6,0.7v-0.9c-2.1-0.5-4.3-0.7-6.6-0.7c-1.2,0-2.4,0.1-3.5,0.2v0.9
		C177,234,178.2,233.9,179.4,233.9z"/>
	<path class="st18" d="M148.5,263.8c0,11.9,6.8,22.3,16.7,27.4v-1c-9.4-5.1-15.8-15-15.8-26.4c0-11.4,6.4-21.3,15.8-26.4v-1
		C155.3,241.5,148.5,251.9,148.5,263.8z"/>
	<path class="st18" d="M207.5,263.8c0,13.3-9.2,24.4-21.6,27.4v1.8c13.4-3,23.4-14.9,23.4-29.2c0-14.3-10-26.2-23.4-29.2v1.8
		C198.3,239.4,207.5,250.5,207.5,263.8z"/>
	<path class="st18" d="M179.4,235.7c2.3,0,4.4,0.3,6.6,0.8v-1.8c-2.1-0.5-4.3-0.7-6.6-0.7c-1.2,0-2.4,0.1-3.5,0.2v1.8
		C177,235.7,178.2,235.7,179.4,235.7z"/>
	<path class="st18" d="M179.4,292c-1.2,0-2.4-0.1-3.5-0.2v1.8c1.2,0.1,2.3,0.2,3.5,0.2c2.3,0,4.4-0.3,6.6-0.7v-1.8
		C183.8,291.7,181.6,292,179.4,292z"/>
	<path class="st18" d="M151.2,263.8c0-10.4,5.6-19.5,14-24.3v-2c-9.4,5.1-15.8,15-15.8,26.4c0,11.4,6.4,21.3,15.8,26.4v-2
		C156.8,283.3,151.2,274.2,151.2,263.8z"/>
	<path class="st18" d="M179.4,238.9c2.3,0,4.5,0.3,6.6,0.9v-3.3c-2.1-0.5-4.3-0.8-6.6-0.8c-1.2,0-2.4,0.1-3.5,0.2v3.3
		C177,239,178.2,238.9,179.4,238.9z"/>
	<path class="st18" d="M204.3,263.8c0,11.5-7.8,21.2-18.4,24.1v3.3c12.4-3,21.6-14.1,21.6-27.4c0-13.3-9.2-24.4-21.6-27.4v3.3
		C196.5,242.6,204.3,252.3,204.3,263.8z"/>
	<path class="st18" d="M185.9,291.2v-3.3c-2.1,0.6-4.3,0.9-6.6,0.9c-1.2,0-2.4-0.1-3.5-0.3v3.3c1.2,0.1,2.3,0.2,3.5,0.2
		C181.6,292,183.8,291.7,185.9,291.2z"/>
	<path class="st18" d="M154.4,263.8c0-8.5,4.3-16,10.8-20.5v-3.8c-8.4,4.9-14,14-14,24.3c0,10.4,5.6,19.5,14,24.3v-3.8
		C158.7,279.8,154.4,272.3,154.4,263.8z"/>
	<path class="st18" d="M179.4,241.7c2.3,0,4.5,0.3,6.6,1v-3c-2.1-0.6-4.3-0.9-6.6-0.9c-1.2,0-2.4,0.1-3.5,0.3v2.9
		C177,241.8,178.2,241.7,179.4,241.7z"/>
	<path class="st18" d="M157.3,263.8c0-6.8,3.1-12.9,7.9-16.9v-3.6c-6.5,4.5-10.8,12-10.8,20.5c0,8.5,4.3,16,10.8,20.5v-3.6
		C160.4,276.7,157.3,270.6,157.3,263.8z"/>
	<path class="st18" d="M204.3,263.8c0-11.5-7.8-21.2-18.4-24.1v3c9,2.8,15.5,11.2,15.5,21.1c0,9.9-6.5,18.3-15.5,21.1v3
		C196.5,285,204.3,275.3,204.3,263.8z"/>
	<path class="st18" d="M179.4,285.9c-1.2,0-2.4-0.1-3.5-0.3v2.9c1.2,0.2,2.3,0.3,3.5,0.3c2.3,0,4.5-0.3,6.6-0.9v-3
		C183.9,285.5,181.7,285.9,179.4,285.9z"/>
	<path class="st18" d="M159.2,263.8c0-5.6,2.3-10.7,6-14.3v-2.6c-4.8,4-7.9,10.1-7.9,16.9c0,6.8,3.1,12.9,7.9,16.9v-2.6
		C161.5,274.5,159.2,269.4,159.2,263.8z"/>
	<path class="st18" d="M175.8,242v2c1.2-0.2,2.3-0.3,3.5-0.3c2.3,0,4.5,0.4,6.6,1.1v-2c-2.1-0.6-4.3-1-6.6-1
		C178.2,241.7,177,241.8,175.8,242z"/>
	<path class="st18" d="M179.4,284c-1.2,0-2.4-0.1-3.5-0.3v2c1.2,0.2,2.3,0.3,3.5,0.3c2.3,0,4.5-0.3,6.6-1v-2
		C183.9,283.6,181.7,284,179.4,284z"/>
	<path class="st18" d="M199.5,263.8c0,8.8-5.7,16.3-13.6,19v2c9-2.8,15.5-11.2,15.5-21.1c0-9.9-6.5-18.3-15.5-21.1v2
		C193.8,247.5,199.5,255,199.5,263.8z"/>
	<path class="st18" d="M179.4,284c2.3,0,4.5-0.4,6.6-1.1v-38.1c-2.1-0.7-4.3-1.1-6.6-1.1c-1.2,0-2.4,0.1-3.5,0.3v39.7
		C177,283.8,178.2,284,179.4,284z"/>
	<path class="st18" d="M199.5,263.8c0-8.8-5.7-16.3-13.6-19v38.1C193.8,280.1,199.5,272.6,199.5,263.8z"/>
	<path class="st18" d="M159.2,263.8c0,5.6,2.3,10.7,6,14.3v-28.6C161.5,253.2,159.2,258.2,159.2,263.8z"/>
</g>
<g id="Layer_2">
</g>
<g id="Layer_3">
</g>
<g id="Layer_5">
</g>
<g id="Layer_6">
</g>
</svg>
