<?xml version="1.0" encoding="utf-8"?>
<!-- Generator: Adobe Illustrator 19.1.0, SVG Export Plug-In . SVG Version: 6.00 Build 0)  -->
<svg version="1.1" xmlns="http://www.w3.org/2000/svg" xmlns:xlink="http://www.w3.org/1999/xlink" x="0px" y="0px"
	 viewBox="0 0 360 540" style="enable-background:new 0 0 360 540;" xml:space="preserve">
<style type="text/css">
	.st0{display:none;}
	.st1{display:inline;fill:#666766;}
	.st2{fill:none;stroke:#000000;stroke-miterlimit:10;}
	.st3{fill:none;stroke:#CCCCCC;stroke-miterlimit:10;}
	.st4{fill:#CCCCCC;}
	.st5{fill:none;stroke:#CCCCCC;stroke-width:3;stroke-miterlimit:10;}
	.st6{fill:none;stroke:#CCCCCC;stroke-width:2;stroke-miterlimit:10;}
	.st7{fill:none;stroke:#FFFFFF;stroke-width:7;stroke-miterlimit:10;}
	.st8{fill:none;stroke:#FFFFFF;stroke-miterlimit:10;}
	.st9{fill:#FFFFFF;}
	.st10{fill:none;}
	.st11{fill:none;stroke:#CCCCCC;stroke-width:7;stroke-miterlimit:10;}
	.st12{fill:none;stroke:#CCCCCC;stroke-miterlimit:10;stroke-dasharray:12,12;}
	.st13{clip-path:url(#SVGID_2_);fill:none;stroke:#CCCCCC;stroke-miterlimit:10;}
	.st14{clip-path:url(#SVGID_2_);fill:none;stroke:#CCCCCC;stroke-width:7;stroke-miterlimit:10;}
	.st15{clip-path:url(#SVGID_2_);}
	.st16{clip-path:url(#SVGID_2_);fill:#CCCCCC;}
	.st17{clip-path:url(#SVGID_2_);fill:none;stroke:#CCCCCC;stroke-miterlimit:10;stroke-dasharray:12,12;}
	.st18{fill:#010101;stroke:#FFFFFF;stroke-width:2;stroke-miterlimit:10;}
	.st19{fill:#010101;}
	.st20{fill:none;stroke:#FFFFFF;stroke-width:2;stroke-miterlimit:10;}
	.st21{fill:none;stroke:#CCCCCC;stroke-width:2;stroke-miterlimit:10;stroke-dasharray:12;}
	.st22{clip-path:url(#SVGID_4_);fill:none;stroke:#CCCCCC;stroke-miterlimit:10;}
	.st23{clip-path:url(#SVGID_4_);}
	.st24{fill:none;stroke:#000000;stroke-width:7;stroke-miterlimit:10;}
	.st25{clip-path:url(#SVGID_6_);}
	.st26{fill:none;stroke:#FFFFFF;stroke-miterlimit:10;stroke-dasharray:12,12;}
</style>
<g id="Layer_4" class="st0">
</g>
<g id="Layer_1">
	<g>
		<g>
			<rect x="181.5" y="217.2" class="st9" width="0.4" height="122.4"/>
		</g>
		<g>
			<rect x="95.1" y="217" class="st9" width="173.5" height="0.4"/>
		</g>
		<g>
			<rect x="59.9" y="223" class="st9" width="244" height="0.4"/>
		</g>
		<g>
			<rect x="36.7" y="230.1" class="st9" width="291.1" height="0.4"/>
		</g>
		<g>
			<rect x="143.5" y="235.6" class="st9" width="76.6" height="0.4"/>
		</g>
		<g>
			<rect x="159" y="251.5" class="st9" width="45.7" height="0.4"/>
		</g>
		<g>
			<rect x="165.4" y="261.2" class="st9" width="32.9" height="0.4"/>
		</g>
		<g>
			<rect x="170.9" y="272.4" class="st9" width="21.7" height="0.4"/>
		</g>
		<g>
			<rect x="175.5" y="285.5" class="st9" width="12.7" height="0.4"/>
		</g>
		<g>
			<rect x="177.6" y="296.9" class="st9" width="7.8" height="0.4"/>
		</g>
		<g>
			<rect x="3.8" y="243.3" class="st9" width="355.7" height="0.4"/>
		</g>
		<g>
			<path class="st9" d="M181.9,339.6l-0.4,0c0.5-22.9-2.3-43.1-8.2-60.1c-5-14.3-12.3-26.5-21.8-36.2
				c-12.9-13.3-27.5-19.6-37.6-22.6c-10.9-3.2-18.8-3.3-18.8-3.3c-20,0.8-43.7,7.9-60.1,13.7c-17.8,6.3-31,12.5-31.1,12.5l-0.2-0.4
				c0.1-0.1,13.4-6.2,31.1-12.6c16.4-5.8,40.2-12.9,60.3-13.7c0.1,0,8.1,0.1,19,3.3c10.1,3,24.8,9.3,37.8,22.7
				c9.5,9.8,16.9,22,21.9,36.4C179.6,296.3,182.4,316.6,181.9,339.6z"/>
		</g>
		<g>
			<path class="st9" d="M181.8,339.6c-0.5-23,2.3-43.2,8.2-60.3c5-14.4,12.4-26.6,21.9-36.4c13-13.3,27.7-19.7,37.8-22.7
				c10.9-3.2,18.9-3.3,19-3.3c20.1,0.8,43.8,7.9,60.3,13.7c17.8,6.3,31,12.5,31.1,12.6l-0.2,0.4c-0.1-0.1-13.3-6.2-31.1-12.5
				c-16.4-5.8-40.1-12.9-60.1-13.7c-0.1,0-8,0.1-18.8,3.3c-10,3-24.7,9.3-37.6,22.6c-9.4,9.7-16.8,21.9-21.8,36.2
				c-5.9,17-8.7,37.2-8.2,60.1L181.8,339.6z"/>
		</g>
		<g>
			<path class="st9" d="M181.5,339.6c-0.3-43.5-8.9-75.9-25.4-96.4c-12.6-15.6-29.7-24.2-50.9-25.7c-1.1-0.1-2.1-0.1-3,0.1
				c-45,9.7-73.1,26-73.4,26.2l-0.2-0.4c0.3-0.2,28.5-16.5,73.5-26.2c1-0.2,2-0.2,3.1-0.1c21.3,1.5,38.6,10.2,51.2,25.9
				c16.6,20.6,25.2,53.1,25.5,96.7L181.5,339.6z"/>
		</g>
		<g>
			<path class="st9" d="M181.5,339.6c-0.8-42.5-5.5-74.3-13.9-94.7c-6.8-16.5-16.1-25.6-27.6-26.9c-0.2,0-0.4,0-0.6-0.1
				c-0.5-0.1-1-0.2-1.5-0.1c-6.4,0.9-16.8,4.2-30.5,14.1c-8.2,6-13.7,11.6-13.8,11.7l-0.3-0.3c0.1-0.1,5.6-5.7,13.8-11.7
				c13.8-10,24.3-13.3,30.7-14.2c0.6-0.1,1.1,0,1.7,0.1c0.2,0,0.4,0.1,0.5,0.1c11.7,1.4,21.1,10.5,28,27.2
				c8.4,20.4,13.1,52.3,13.9,94.8L181.5,339.6z"/>
		</g>
		<g>
			<g>
				<path class="st9" d="M181.8,339.6l-0.4,0c0.3-43.6,8.9-76.1,25.5-96.7c12.6-15.7,29.9-24.4,51.2-25.9c1.1-0.1,2.1-0.1,3.1,0.1
					c45,9.7,73.2,26.1,73.5,26.2l-0.2,0.4c-0.3-0.2-28.4-16.5-73.4-26.2c-0.9-0.2-1.9-0.2-3-0.1c-21.2,1.5-38.3,10.2-50.9,25.7
					C190.7,263.6,182.1,296.1,181.8,339.6z"/>
			</g>
			<g>
				<path class="st9" d="M181.8,339.6l-0.4,0c0.8-42.5,5.5-74.4,13.9-94.8c6.9-16.7,16.3-25.8,28-27.2c0.2,0,0.4,0,0.5-0.1
					c0.5-0.1,1.1-0.2,1.7-0.1c6.4,1,16.9,4.2,30.7,14.2c8.2,6,13.8,11.6,13.8,11.7l-0.3,0.3c-0.1-0.1-5.6-5.7-13.8-11.7
					c-13.7-10-24.1-13.2-30.5-14.1c-0.5-0.1-1,0-1.5,0.1c-0.2,0-0.4,0.1-0.6,0.1c-11.5,1.3-20.8,10.4-27.6,26.9
					C187.3,265.3,182.6,297.1,181.8,339.6z"/>
			</g>
		</g>
		<g>
			<g>
				<rect x="3.8" y="175.9" class="st9" width="1.3" height="0.4"/>
			</g>
			<g>
				<path class="st9" d="M354.1,176.4h-2.6v-0.4h2.6V176.4z M348.9,176.4h-2.6v-0.4h2.6V176.4z M343.6,176.4h-2.6v-0.4h2.6V176.4z
					 M338.3,176.4h-2.6v-0.4h2.6V176.4z M333,176.4h-2.6v-0.4h2.6V176.4z M327.7,176.4h-2.6v-0.4h2.6V176.4z M322.4,176.4h-2.6v-0.4
					h2.6V176.4z M317.1,176.4h-2.6v-0.4h2.6V176.4z M311.8,176.4h-2.6v-0.4h2.6V176.4z M306.5,176.4h-2.6v-0.4h2.6V176.4z
					 M301.3,176.4h-2.6v-0.4h2.6V176.4z M296,176.4h-2.6v-0.4h2.6V176.4z M290.7,176.4H288v-0.4h2.6V176.4z M285.4,176.4h-2.6v-0.4
					h2.6V176.4z M280.1,176.4h-2.6v-0.4h2.6V176.4z M274.8,176.4h-2.6v-0.4h2.6V176.4z M269.5,176.4h-2.6v-0.4h2.6V176.4z
					 M264.2,176.4h-2.6v-0.4h2.6V176.4z M258.9,176.4h-2.6v-0.4h2.6V176.4z M253.7,176.4H251v-0.4h2.6V176.4z M248.4,176.4h-2.6
					v-0.4h2.6V176.4z M243.1,176.4h-2.6v-0.4h2.6V176.4z M237.8,176.4h-2.6v-0.4h2.6V176.4z M232.5,176.4h-2.6v-0.4h2.6V176.4z
					 M227.2,176.4h-2.6v-0.4h2.6V176.4z M221.9,176.4h-2.6v-0.4h2.6V176.4z M216.6,176.4H214v-0.4h2.6V176.4z M211.3,176.4h-2.6
					v-0.4h2.6V176.4z M206.1,176.4h-2.6v-0.4h2.6V176.4z M200.8,176.4h-2.6v-0.4h2.6V176.4z M195.5,176.4h-2.6v-0.4h2.6V176.4z
					 M190.2,176.4h-2.6v-0.4h2.6V176.4z M184.9,176.4h-2.6v-0.4h2.6V176.4z M179.6,176.4H177v-0.4h2.6V176.4z M174.3,176.4h-2.6
					v-0.4h2.6V176.4z M169,176.4h-2.6v-0.4h2.6V176.4z M163.7,176.4h-2.6v-0.4h2.6V176.4z M158.5,176.4h-2.6v-0.4h2.6V176.4z
					 M153.2,176.4h-2.6v-0.4h2.6V176.4z M147.9,176.4h-2.6v-0.4h2.6V176.4z M142.6,176.4h-2.6v-0.4h2.6V176.4z M137.3,176.4h-2.6
					v-0.4h2.6V176.4z M132,176.4h-2.6v-0.4h2.6V176.4z M126.7,176.4h-2.6v-0.4h2.6V176.4z M121.4,176.4h-2.6v-0.4h2.6V176.4z
					 M116.1,176.4h-2.6v-0.4h2.6V176.4z M110.9,176.4h-2.6v-0.4h2.6V176.4z M105.6,176.4h-2.6v-0.4h2.6V176.4z M100.3,176.4h-2.6
					v-0.4h2.6V176.4z M95,176.4h-2.6v-0.4H95V176.4z M89.7,176.4h-2.6v-0.4h2.6V176.4z M84.4,176.4h-2.6v-0.4h2.6V176.4z
					 M79.1,176.4h-2.6v-0.4h2.6V176.4z M73.8,176.4h-2.6v-0.4h2.6V176.4z M68.5,176.4h-2.6v-0.4h2.6V176.4z M63.3,176.4h-2.6v-0.4
					h2.6V176.4z M58,176.4h-2.6v-0.4H58V176.4z M52.7,176.4H50v-0.4h2.6V176.4z M47.4,176.4h-2.6v-0.4h2.6V176.4z M42.1,176.4h-2.6
					v-0.4h2.6V176.4z M36.8,176.4h-2.6v-0.4h2.6V176.4z M31.5,176.4h-2.6v-0.4h2.6V176.4z M26.2,176.4h-2.6v-0.4h2.6V176.4z
					 M20.9,176.4h-2.6v-0.4h2.6V176.4z M15.7,176.4H13v-0.4h2.6V176.4z M10.4,176.4H7.7v-0.4h2.6V176.4z"/>
			</g>
			<g>
				<rect x="356.8" y="175.9" class="st9" width="1.3" height="0.4"/>
			</g>
		</g>
		<g>
			<g>
				<g>
					
						<rect x="346.5" y="212.6" transform="matrix(-0.9589 -0.2838 0.2838 -0.9589 624.0946 519.054)" class="st10" width="6.3" height="3.4"/>
				</g>
				<g>
					<g>
						<polygon class="st9" points="346.2,215 352.6,215.2 347.1,211.8 						"/>
					</g>
				</g>
			</g>
			<g>
				<g>
					
						<rect x="337.5" y="210" transform="matrix(-0.9589 -0.2838 0.2838 -0.9589 607.2153 511.2802)" class="st10" width="6.3" height="3.4"/>
				</g>
				<g>
					<g>
						<polygon class="st9" points="337.2,212.4 343.6,212.5 338.1,209.2 						"/>
					</g>
				</g>
			</g>
			<g>
				<g>
					
						<rect x="328.5" y="207.4" transform="matrix(-0.9631 -0.2691 0.2691 -0.9631 594.7324 499.6834)" class="st10" width="6.3" height="3.4"/>
				</g>
				<g>
					<g>
						<polygon class="st9" points="328.1,209.9 334.6,209.9 329.1,206.6 						"/>
					</g>
				</g>
			</g>
			<g>
				<g>
					
						<rect x="319.4" y="204.9" transform="matrix(-0.9631 -0.2691 0.2691 -0.9631 577.6611 492.2905)" class="st10" width="6.3" height="3.4"/>
				</g>
				<g>
					<g>
						<polygon class="st9" points="319.1,207.3 325.6,207.4 320,204.1 						"/>
					</g>
				</g>
			</g>
			<g>
				<g>
					
						<rect x="310.4" y="202.5" transform="matrix(-0.9676 -0.2526 0.2526 -0.9676 565.2574 480.8834)" class="st10" width="6.3" height="3.4"/>
				</g>
				<g>
					<g>
						<polygon class="st9" points="310,205 316.5,205 310.9,201.7 						"/>
					</g>
				</g>
			</g>
			<g>
				<g>
					
						<rect x="301.3" y="200.2" transform="matrix(-0.9723 -0.2338 0.2338 -0.9723 553.1469 469.2948)" class="st10" width="6.3" height="3.4"/>
				</g>
				<g>
					<g>
						<polygon class="st9" points="301,202.8 307.4,202.6 301.7,199.5 						"/>
					</g>
				</g>
			</g>
			<g>
				<g>
					
						<rect x="292.1" y="198" transform="matrix(-0.9772 -0.2124 0.2124 -0.9772 541.36 457.5391)" class="st10" width="6.3" height="3.4"/>
				</g>
				<g>
					<g>
						<polygon class="st9" points="291.8,200.7 298.3,200.4 292.6,197.4 						"/>
					</g>
				</g>
			</g>
			<g>
				<g>
					
						<rect x="282.9" y="196" transform="matrix(-0.9822 -0.1878 0.1878 -0.9822 529.9405 445.6373)" class="st10" width="6.3" height="3.4"/>
				</g>
				<g>
					<g>
						<polygon class="st9" points="282.7,198.8 289.2,198.3 283.3,195.5 						"/>
					</g>
				</g>
			</g>
			<g>
				<g>
					
						<rect x="273.7" y="194.4" transform="matrix(-0.9877 -0.1563 0.1563 -0.9877 519.644 432.9229)" class="st10" width="6.3" height="3.4"/>
				</g>
				<g>
					<g>
						<polygon class="st9" points="273.5,197.2 279.9,196.5 274,193.9 						"/>
					</g>
				</g>
			</g>
			<g>
				<g>
					
						<rect x="264.4" y="193.1" transform="matrix(-0.9934 -0.1149 0.1149 -0.9934 510.9325 418.9628)" class="st10" width="6.3" height="3.4"/>
				</g>
				<g>
					<g>
						<polygon class="st9" points="264.2,196.1 270.7,195.1 264.6,192.7 						"/>
					</g>
				</g>
			</g>
			<g>
				<g>
					
						<rect x="255" y="192.9" transform="matrix(-0.9995 3.055619e-02 -3.055619e-02 -0.9995 522.162 381.242)" class="st10" width="6.3" height="3.4"/>
				</g>
				<g>
					<g>
						<polygon class="st9" points="255.1,196.4 261.3,194.5 255,193 						"/>
					</g>
				</g>
			</g>
			<g>
				<g>
					
						<rect x="245.7" y="193.3" transform="matrix(-0.9796 0.2007 -0.2007 -0.9796 531.6786 336.118)" class="st10" width="6.3" height="3.4"/>
				</g>
				<g>
					<g>
						<polygon class="st9" points="246.1,197.3 251.9,194.4 245.4,194 						"/>
					</g>
				</g>
			</g>
			<g>
				<g>
					
						<rect x="236.5" y="195.2" transform="matrix(-0.9796 0.2007 -0.2007 -0.9796 513.8491 341.6954)" class="st10" width="6.3" height="3.4"/>
				</g>
				<g>
					<g>
						<polygon class="st9" points="236.9,199.2 242.7,196.3 236.2,195.9 						"/>
					</g>
				</g>
			</g>
			<g>
				<g>
					
						<rect x="227.7" y="198.6" transform="matrix(-0.9288 0.3705 -0.3705 -0.9288 519.4425 300.6916)" class="st10" width="6.3" height="3.4"/>
				</g>
				<g>
					<g>
						<polygon class="st9" points="228.6,203 233.7,199.1 227.3,199.8 						"/>
					</g>
				</g>
			</g>
			<g>
				<g>
					
						<rect x="219.6" y="203.2" transform="matrix(-0.8513 0.5246 -0.5246 -0.8513 519.8284 262.5312)" class="st10" width="6.3" height="3.4"/>
				</g>
				<g>
					<g>
						<polygon class="st9" points="220.9,208 225.4,203.3 219.2,205.1 						"/>
					</g>
				</g>
			</g>
			<g>
				<g>
					
						<rect x="212.3" y="209.1" transform="matrix(-0.7578 0.6525 -0.6525 -0.7578 516.1834 229.9413)" class="st10" width="6.3" height="3.4"/>
				</g>
				<g>
					<g>
						<polygon class="st9" points="214.1,214.1 217.8,208.7 211.9,211.6 						"/>
					</g>
				</g>
			</g>
			<g>
				<g>
					
						<rect x="205.9" y="215.9" transform="matrix(-0.6597 0.7516 -0.7516 -0.6597 510.4087 204.0886)" class="st10" width="6.3" height="3.4"/>
				</g>
				<g>
					<g>
						<polygon class="st9" points="208.2,221.1 211.1,215.3 205.7,218.9 						"/>
					</g>
				</g>
			</g>
			<g>
				<g>
					
						<rect x="200.5" y="223.6" transform="matrix(-0.5442 0.839 -0.839 -0.5442 503.3974 177.046)" class="st10" width="6.3" height="3.4"/>
				</g>
				<g>
					<g>
						<polygon class="st9" points="203.3,228.8 205.3,222.6 200.5,227 						"/>
					</g>
				</g>
			</g>
			<g>
				<g>
					
						<rect x="195.6" y="231.6" transform="matrix(-0.4235 0.9059 -0.9059 -0.4235 494.2502 152.0508)" class="st10" width="6.3" height="3.4"/>
				</g>
				<g>
					<g>
						<polygon class="st9" points="198.9,236.8 200.1,230.5 195.9,235.4 						"/>
					</g>
				</g>
			</g>
			<g>
				<g>
					
						<rect x="191.6" y="240.1" transform="matrix(-0.4235 0.9059 -0.9059 -0.4235 496.2944 167.76)" class="st10" width="6.3" height="3.4"/>
				</g>
				<g>
					<g>
						<polygon class="st9" points="195,245.3 196.1,239 191.9,243.9 						"/>
					</g>
				</g>
			</g>
			<g>
				<g>
					
						<rect x="188.3" y="248.9" transform="matrix(-0.3253 0.9456 -0.9456 -0.3253 490.6927 151.0449)" class="st10" width="6.3" height="3.4"/>
				</g>
				<g>
					<g>
						<polygon class="st9" points="192,254.1 192.5,247.6 188.9,253 						"/>
					</g>
				</g>
			</g>
			<g>
				<g>
					
						<rect x="185.5" y="257.8" transform="matrix(-0.2467 0.9691 -0.9691 -0.2467 486.6586 140.7305)" class="st10" width="6.3" height="3.4"/>
				</g>
				<g>
					<g>
						<polygon class="st9" points="189.5,263 189.4,256.5 186.2,262.1 						"/>
					</g>
				</g>
			</g>
			<g>
				<g>
					
						<rect x="183.2" y="266.9" transform="matrix(-0.2467 0.9691 -0.9691 -0.2467 492.5885 154.3179)" class="st10" width="6.3" height="3.4"/>
				</g>
				<g>
					<g>
						<polygon class="st9" points="187.2,272.1 187.1,265.6 183.9,271.2 						"/>
					</g>
				</g>
			</g>
		</g>
		<g>
			<g>
				<g>
					
						<rect x="1.6" y="215" transform="matrix(0.959 -0.2835 0.2835 0.959 -61.2263 10.2354)" class="st10" width="6.3" height="3.4"/>
				</g>
				<g>
					<g>
						<polygon class="st9" points="7.3,214.2 1.8,217.6 8.2,217.4 						"/>
					</g>
				</g>
			</g>
			<g>
				<g>
					
						<rect x="10.6" y="212.3" transform="matrix(0.959 -0.2835 0.2835 0.959 -60.1026 12.6784)" class="st10" width="6.3" height="3.4"/>
				</g>
				<g>
					<g>
						<polygon class="st9" points="16.3,211.5 10.8,214.9 17.2,214.7 						"/>
					</g>
				</g>
			</g>
			<g>
				<g>
					
						<rect x="19.6" y="209.7" transform="matrix(0.9633 -0.2683 0.2683 0.9633 -55.8869 13.8621)" class="st10" width="6.3" height="3.4"/>
				</g>
				<g>
					<g>
						<polygon class="st9" points="25.3,208.9 19.8,212.2 26.2,212.2 						"/>
					</g>
				</g>
			</g>
			<g>
				<g>
					
						<rect x="28.7" y="207.2" transform="matrix(0.9633 -0.2683 0.2683 0.9633 -54.8792 16.1966)" class="st10" width="6.3" height="3.4"/>
				</g>
				<g>
					<g>
						<polygon class="st9" points="34.4,206.4 28.8,209.7 35.3,209.6 						"/>
					</g>
				</g>
			</g>
			<g>
				<g>
					
						<rect x="37.7" y="204.7" transform="matrix(0.9678 -0.2517 0.2517 0.9678 -50.6375 16.9336)" class="st10" width="6.3" height="3.4"/>
				</g>
				<g>
					<g>
						<polygon class="st9" points="43.5,204 37.8,207.2 44.3,207.2 						"/>
					</g>
				</g>
			</g>
			<g>
				<g>
					
						<rect x="46.8" y="202.4" transform="matrix(0.9678 -0.2517 0.2517 0.9678 -49.7501 19.1446)" class="st10" width="6.3" height="3.4"/>
				</g>
				<g>
					<g>
						<polygon class="st9" points="52.6,201.6 46.9,204.8 53.4,204.9 						"/>
					</g>
				</g>
			</g>
			<g>
				<g>
					
						<rect x="56" y="200.1" transform="matrix(0.9724 -0.2334 0.2334 0.9724 -45.4653 19.3592)" class="st10" width="6.3" height="3.4"/>
				</g>
				<g>
					<g>
						<polygon class="st9" points="61.7,199.5 56,202.6 62.5,202.7 						"/>
					</g>
				</g>
			</g>
			<g>
				<g>
					
						<rect x="65.1" y="198.1" transform="matrix(0.977 -0.213 0.213 0.977 -40.9818 19.1201)" class="st10" width="6.3" height="3.4"/>
				</g>
				<g>
					<g>
						<polygon class="st9" points="70.9,197.4 65.2,200.4 71.6,200.7 						"/>
					</g>
				</g>
			</g>
			<g>
				<g>
					
						<rect x="74.3" y="196.1" transform="matrix(0.9817 -0.1904 0.1904 0.9817 -36.2512 18.3621)" class="st10" width="6.3" height="3.4"/>
				</g>
				<g>
					<g>
						<polygon class="st9" points="80.2,195.6 74.4,198.4 80.8,198.9 						"/>
					</g>
				</g>
			</g>
			<g>
				<g>
					
						<rect x="83.5" y="194.5" transform="matrix(0.9867 -0.1627 0.1627 0.9867 -30.7541 16.7092)" class="st10" width="6.3" height="3.4"/>
				</g>
				<g>
					<g>
						<polygon class="st9" points="89.5,194 83.6,196.7 90,197.3 						"/>
					</g>
				</g>
			</g>
			<g>
				<g>
					
						<rect x="92.8" y="193.2" transform="matrix(0.9961 -8.802927e-02 8.802927e-02 0.9961 -16.7834 9.2045)" class="st10" width="6.3" height="3.4"/>
				</g>
				<g>
					<g>
						<polygon class="st9" points="98.9,192.9 92.8,195.2 99.2,196.3 						"/>
					</g>
				</g>
			</g>
			<g>
				<g>
					
						<rect x="102.2" y="192.9" transform="matrix(0.9995 3.055619e-02 -3.055619e-02 0.9995 5.9958 -3.1279)" class="st10" width="6.3" height="3.4"/>
				</g>
				<g>
					<g>
						<polygon class="st9" points="108.5,193 102.2,194.5 108.4,196.4 						"/>
					</g>
				</g>
			</g>
			<g>
				<g>
					
						<rect x="111.6" y="193.3" transform="matrix(0.9796 0.2007 -0.2007 0.9796 41.4831 -19.0573)" class="st10" width="6.3" height="3.4"/>
				</g>
				<g>
					<g>
						<polygon class="st9" points="118.1,194 111.6,194.4 117.4,197.3 						"/>
					</g>
				</g>
			</g>
			<g>
				<g>
					
						<rect x="120.8" y="195.2" transform="matrix(0.9796 0.2007 -0.2007 0.9796 42.0487 -20.8653)" class="st10" width="6.3" height="3.4"/>
				</g>
				<g>
					<g>
						<polygon class="st9" points="127.3,195.9 120.8,196.3 126.6,199.2 						"/>
					</g>
				</g>
			</g>
			<g>
				<g>
					
						<rect x="129.5" y="198.6" transform="matrix(0.9288 0.3705 -0.3705 0.9288 83.6427 -34.9056)" class="st10" width="6.3" height="3.4"/>
				</g>
				<g>
					<g>
						<polygon class="st9" points="136.2,199.8 129.8,199.1 135,203 						"/>
					</g>
				</g>
			</g>
			<g>
				<g>
					
						<rect x="137.7" y="203.2" transform="matrix(0.8513 0.5246 -0.5246 0.8513 128.4264 -43.3967)" class="st10" width="6.3" height="3.4"/>
				</g>
				<g>
					<g>
						<polygon class="st9" points="144.3,205.1 138.1,203.3 142.6,208 						"/>
					</g>
				</g>
			</g>
			<g>
				<g>
					
						<rect x="145" y="209.1" transform="matrix(0.7578 0.6525 -0.6525 0.7578 173.4096 -45.578)" class="st10" width="6.3" height="3.4"/>
				</g>
				<g>
					<g>
						<polygon class="st9" points="151.6,211.6 145.7,208.7 149.4,214.1 						"/>
					</g>
				</g>
			</g>
			<g>
				<g>
					
						<rect x="151.4" y="215.9" transform="matrix(0.6597 0.7516 -0.7516 0.6597 216.13 -42.0652)" class="st10" width="6.3" height="3.4"/>
				</g>
				<g>
					<g>
						<polygon class="st9" points="157.8,218.9 152.4,215.3 155.3,221.1 						"/>
					</g>
				</g>
			</g>
			<g>
				<g>
					
						<rect x="156.8" y="223.6" transform="matrix(0.5442 0.839 -0.839 0.5442 261.8815 -31.471)" class="st10" width="6.3" height="3.4"/>
				</g>
				<g>
					<g>
						<polygon class="st9" points="163,227 158.2,222.6 160.2,228.8 						"/>
					</g>
				</g>
			</g>
			<g>
				<g>
					
						<rect x="161.6" y="231.6" transform="matrix(0.4235 0.9059 -0.9059 0.4235 306.3135 -14.7705)" class="st10" width="6.3" height="3.4"/>
				</g>
				<g>
					<g>
						<polygon class="st9" points="167.6,235.4 163.4,230.5 164.6,236.8 						"/>
					</g>
				</g>
			</g>
			<g>
				<g>
					
						<rect x="165.6" y="240.1" transform="matrix(0.4235 0.9059 -0.9059 0.4235 316.3103 -13.4696)" class="st10" width="6.3" height="3.4"/>
				</g>
				<g>
					<g>
						<polygon class="st9" points="171.6,243.9 167.4,239 168.5,245.3 						"/>
					</g>
				</g>
			</g>
			<g>
				<g>
					
						<rect x="168.9" y="248.9" transform="matrix(0.3253 0.9456 -0.9456 0.3253 353.0067 6.3638)" class="st10" width="6.3" height="3.4"/>
				</g>
				<g>
					<g>
						<polygon class="st9" points="174.6,253 171,247.6 171.5,254.1 						"/>
					</g>
				</g>
			</g>
			<g>
				<g>
					
						<rect x="171.7" y="257.8" transform="matrix(0.2467 0.9691 -0.9691 0.2467 383.2293 26.0245)" class="st10" width="6.3" height="3.4"/>
				</g>
				<g>
					<g>
						<polygon class="st9" points="177.3,262.1 174.1,256.5 174,263 						"/>
					</g>
				</g>
			</g>
			<g>
				<g>
					
						<rect x="174.1" y="266.9" transform="matrix(0.2467 0.9691 -0.9691 0.2467 393.7914 30.634)" class="st10" width="6.3" height="3.4"/>
				</g>
				<g>
					<g>
						<polygon class="st9" points="179.6,271.2 176.4,265.6 176.3,272.1 						"/>
					</g>
				</g>
			</g>
		</g>
		<g>
			<g>
				<g>
					<rect x="179.8" y="283.3" class="st10" width="3.4" height="6.3"/>
				</g>
				<g>
					<g>
						<polygon class="st9" points="183.2,289.6 181.5,283.3 179.8,289.6 						"/>
					</g>
				</g>
			</g>
			<g>
				<g>
					<rect x="179.8" y="292.7" class="st10" width="3.4" height="6.3"/>
				</g>
				<g>
					<g>
						<polygon class="st9" points="183.2,299 181.5,292.7 179.8,299 						"/>
					</g>
				</g>
			</g>
		</g>
	</g>
</g>
<g id="Layer_2">
</g>
<g id="Layer_3">
</g>
<g id="Layer_5">
</g>
<g id="Layer_6">
</g>
</svg>
