<?xml version="1.0" encoding="utf-8"?>
<!-- Generator: Adobe Illustrator 19.1.0, SVG Export Plug-In . SVG Version: 6.00 Build 0)  -->
<svg version="1.1" xmlns="http://www.w3.org/2000/svg" xmlns:xlink="http://www.w3.org/1999/xlink" x="0px" y="0px"
	 viewBox="0 0 360 540" style="enable-background:new 0 0 360 540;" xml:space="preserve">
<style type="text/css">
	.st0{display:none;}
	.st1{display:inline;fill:#666766;}
	.st2{fill:none;stroke:#000000;stroke-miterlimit:10;}
	.st3{fill:none;stroke:#CCCCCC;stroke-miterlimit:10;}
	.st4{fill:#CCCCCC;}
	.st5{fill:none;stroke:#CCCCCC;stroke-width:3;stroke-miterlimit:10;}
	.st6{fill:none;stroke:#CCCCCC;stroke-width:2;stroke-miterlimit:10;}
	.st7{fill:none;stroke:#FFFFFF;stroke-width:7;stroke-miterlimit:10;}
	.st8{fill:none;stroke:#FFFFFF;stroke-miterlimit:10;}
	.st9{fill:#FFFFFF;}
	.st10{fill:none;}
	.st11{fill:none;stroke:#CCCCCC;stroke-width:7;stroke-miterlimit:10;}
	.st12{fill:none;stroke:#CCCCCC;stroke-miterlimit:10;stroke-dasharray:12,12;}
	.st13{clip-path:url(#SVGID_2_);fill:none;stroke:#CCCCCC;stroke-miterlimit:10;}
	.st14{clip-path:url(#SVGID_2_);fill:none;stroke:#CCCCCC;stroke-width:7;stroke-miterlimit:10;}
	.st15{clip-path:url(#SVGID_2_);}
	.st16{clip-path:url(#SVGID_2_);fill:#CCCCCC;}
	.st17{clip-path:url(#SVGID_2_);fill:none;stroke:#CCCCCC;stroke-miterlimit:10;stroke-dasharray:12,12;}
	.st18{fill:#010101;stroke:#FFFFFF;stroke-width:2;stroke-miterlimit:10;}
	.st19{fill:#010101;}
	.st20{fill:none;stroke:#FFFFFF;stroke-width:2;stroke-miterlimit:10;}
	.st21{fill:none;stroke:#CCCCCC;stroke-width:2;stroke-miterlimit:10;stroke-dasharray:12;}
	.st22{clip-path:url(#SVGID_4_);fill:none;stroke:#CCCCCC;stroke-miterlimit:10;}
	.st23{clip-path:url(#SVGID_4_);}
	.st24{fill:none;stroke:#000000;stroke-width:7;stroke-miterlimit:10;}
	.st25{clip-path:url(#SVGID_6_);}
	.st26{fill:none;stroke:#FFFFFF;stroke-miterlimit:10;stroke-dasharray:12,12;}
</style>
<g id="Layer_4" class="st0">
</g>
<g id="Layer_1">
	<line class="st7" x1="153.3" y1="258.5" x2="109.7" y2="258.5"/>
	<line class="st7" x1="83.7" y1="243.1" x2="40.1" y2="243.1"/>
	<line class="st7" x1="222.8" y1="275.5" x2="179.2" y2="275.5"/>
	<line class="st8" x1="701.6" y1="243.1" x2="-10.5" y2="243.1"/>
	<line class="st8" x1="701.6" y1="275.5" x2="-10.5" y2="275.5"/>
	<line class="st8" x1="701.6" y1="258.5" x2="-10.5" y2="258.5"/>
	<g>
		<path class="st9" d="M313.6,290.9c0,0-0.3,0.3-0.9,0.9c-0.3,0.3-0.7,0.7-1.1,1.1c-0.5,0.4-1,0.9-1.6,1.4c-2.5,2.1-6.3,5-11.8,7.7
			c-2.7,1.3-5.9,2.6-9.4,3.5c-3.5,1-7.5,1.7-11.7,2c-4.2,0.3-8.8,0.1-13.5-0.7c-1.2-0.2-2.3-0.5-3.5-0.7c-0.6-0.1-1.2-0.3-1.8-0.5
			c-0.6-0.2-1.2-0.3-1.8-0.5c-0.6-0.2-1.2-0.4-1.8-0.6c-0.6-0.2-1.2-0.4-1.8-0.7c-0.3-0.1-0.6-0.2-0.9-0.3c-0.3-0.1-0.6-0.3-0.9-0.4
			c-0.6-0.3-1.2-0.5-1.8-0.8c-2.4-1.1-4.7-2.4-7-3.9c-2.3-1.5-4.5-3.2-6.6-5c-4.2-3.7-8-8.2-11.1-13.3c-1.5-2.6-2.9-5.3-4-8.1
			c-1.1-2.8-2-5.8-2.7-8.9c-0.7-3.1-1.1-6.2-1.3-9.4c-0.1-3.2,0-6.4,0.4-9.7c0.8-6.5,2.7-12.9,5.7-18.9c3.1-6,7.2-11.5,12.3-16.1
			c5-4.6,11-8.4,17.4-11c6.4-2.6,13.4-3.9,20.4-4c7-0.1,13.9,1.1,20.5,3.5c3.3,1.2,6.4,2.7,9.4,4.4c3,1.8,5.8,3.8,8.3,6.1
			c5.2,4.5,9.5,9.9,12.7,15.8c3.2,5.9,5.3,12.3,6.2,18.8c0.9,6.5,0.8,13-0.4,19.1c-0.6,3.1-1.5,6.1-2.5,9c-0.3,0.7-0.5,1.4-0.8,2.1
			c-0.3,0.7-0.6,1.4-0.9,2.1c-0.3,0.7-0.7,1.4-1,2c-0.3,0.7-0.7,1.3-1.1,2c-1.5,2.6-3.1,5.1-4.9,7.3c-0.1,0.2-0.2,0.3-0.4,0.5
			c0,0.1-0.1,0.1-0.1,0.2c-0.4,0.4-0.6,0.7-0.6,0.7l1.6,0.5c-0.9,0.5-1.8,0.9-2.7,1.4l-2.7,1.2l1-2.7c0.3-0.9,0.6-1.8,0.9-2.7
			l0.8,1.5c0,0,0.2-0.3,0.6-0.7c0-0.1,0.1-0.1,0.1-0.2c0.1-0.1,0.2-0.3,0.4-0.5c1.8-2.2,3.4-4.6,4.8-7.1c0.3-0.6,0.7-1.3,1-1.9
			c0.3-0.7,0.7-1.3,1-2c0.3-0.7,0.6-1.4,0.9-2c0.3-0.7,0.5-1.4,0.8-2.1c1-2.8,1.9-5.7,2.4-8.7c1.1-6,1.3-12.3,0.4-18.6
			c-0.9-6.3-3-12.5-6.1-18.3c-3.1-5.8-7.3-11-12.3-15.4c-2.5-2.2-5.2-4.2-8.1-5.9c-2.9-1.7-5.9-3.2-9.1-4.3
			c-6.3-2.3-13.1-3.5-19.9-3.4c-6.8,0.1-13.6,1.4-19.8,3.9c-6.3,2.5-12,6.2-17,10.7c-4.9,4.5-9,9.9-11.9,15.7
			c-3,5.8-4.8,12.1-5.6,18.4c-0.4,3.2-0.5,6.3-0.3,9.4c0.2,3.1,0.6,6.2,1.2,9.2c0.7,3,1.5,5.9,2.7,8.7c1.1,2.8,2.4,5.4,3.9,7.9
			c3,5,6.7,9.4,10.8,13c2,1.8,4.2,3.4,6.4,4.9c2.2,1.4,4.5,2.7,6.8,3.8c0.6,0.3,1.2,0.5,1.7,0.8l0.9,0.4c0.3,0.1,0.6,0.2,0.9,0.3
			c0.6,0.2,1.2,0.4,1.7,0.7c0.6,0.2,1.2,0.4,1.7,0.6c0.6,0.2,1.2,0.4,1.7,0.5c0.6,0.2,1.2,0.3,1.7,0.5c1.2,0.2,2.3,0.5,3.4,0.7
			c4.6,0.8,9,1,13.1,0.7c8.3-0.5,15.3-2.8,20.6-5.4c5.4-2.6,9.1-5.4,11.5-7.5c0.6-0.5,1.1-1,1.6-1.4c0.4-0.4,0.8-0.8,1.1-1.1
			c0.6-0.6,0.9-0.9,0.9-0.9L313.6,290.9z"/>
	</g>
	<path class="st10" d="M265.8,250.8c0,4.2,3.4,7.5,7.5,7.5v-15.1C269.2,243.3,265.8,246.7,265.8,250.8z"/>
	<path class="st9" d="M280.9,250.8c0-4.2-3.4-7.5-7.5-7.5v15.1C277.5,258.4,280.9,255,280.9,250.8z"/>
	<path class="st18" d="M273.3,258.4c-4.2,0-7.5-3.4-7.5-7.5c0-4.2,3.4-7.5,7.5-7.5v-0.1h1c-0.3,0-0.7-0.1-1-0.1
		c-4.2,0-7.7,3.4-7.7,7.7s3.4,7.7,7.7,7.7c0.3,0,0.7,0,1-0.1L273.3,258.4L273.3,258.4z"/>
	<path class="st19" d="M281,250.8c0-3.9-2.9-7.1-6.7-7.6h-1v0.1c4.2,0,7.5,3.4,7.5,7.5c0,4.2-3.4,7.5-7.5,7.5v0.1h1
		C278.1,257.9,281,254.7,281,250.8z"/>
	<rect x="273.3" y="243.1" class="st20" width="56.2" height="15.4"/>
</g>
<g id="Layer_2">
</g>
<g id="Layer_3">
</g>
<g id="Layer_5">
</g>
<g id="Layer_6">
</g>
</svg>
