<?xml version="1.0" encoding="utf-8"?>
<!-- Generator: Adobe Illustrator 19.1.0, SVG Export Plug-In . SVG Version: 6.00 Build 0)  -->
<svg version="1.1" xmlns="http://www.w3.org/2000/svg" xmlns:xlink="http://www.w3.org/1999/xlink" x="0px" y="0px"
	 viewBox="0 0 360 540" style="enable-background:new 0 0 360 540;" xml:space="preserve">
<style type="text/css">
	.st0{display:none;}
	.st1{display:inline;fill:#666766;}
	.st2{fill:none;stroke:#000000;stroke-miterlimit:10;}
	.st3{fill:none;stroke:#CCCCCC;stroke-miterlimit:10;}
	.st4{fill:#CCCCCC;}
	.st5{fill:none;stroke:#CCCCCC;stroke-width:3;stroke-miterlimit:10;}
	.st6{fill:none;stroke:#CCCCCC;stroke-width:2;stroke-miterlimit:10;}
	.st7{fill:none;stroke:#FFFFFF;stroke-width:7;stroke-miterlimit:10;}
	.st8{fill:none;stroke:#FFFFFF;stroke-miterlimit:10;}
	.st9{fill:#FFFFFF;}
	.st10{fill:none;}
	.st11{fill:none;stroke:#CCCCCC;stroke-miterlimit:10;stroke-dasharray:12,12;}
	.st12{clip-path:url(#SVGID_2_);fill:none;stroke:#CCCCCC;stroke-miterlimit:10;}
	.st13{clip-path:url(#SVGID_2_);fill:none;stroke:#CCCCCC;stroke-width:7;stroke-miterlimit:10;}
	.st14{clip-path:url(#SVGID_2_);}
	.st15{clip-path:url(#SVGID_2_);fill:#CCCCCC;}
	.st16{clip-path:url(#SVGID_2_);fill:none;stroke:#CCCCCC;stroke-miterlimit:10;stroke-dasharray:12,12;}
	.st17{fill:#010101;stroke:#FFFFFF;stroke-width:2;stroke-miterlimit:10;}
	.st18{fill:#010101;}
	.st19{fill:none;stroke:#FFFFFF;stroke-width:2;stroke-miterlimit:10;}
	.st20{fill:none;stroke:#CCCCCC;stroke-width:2;stroke-miterlimit:10;stroke-dasharray:12;}
	.st21{fill:none;stroke:#CCCCCC;stroke-width:7;stroke-miterlimit:10;}
	.st22{clip-path:url(#SVGID_4_);fill:none;stroke:#FFFFFF;stroke-miterlimit:10;}
	.st23{clip-path:url(#SVGID_4_);}
	.st24{fill:none;stroke:#000000;stroke-width:7;stroke-miterlimit:10;}
	.st25{clip-path:url(#SVGID_6_);}
	.st26{fill:none;stroke:#FFFFFF;stroke-miterlimit:10;stroke-dasharray:12,12;}
</style>
<g id="Layer_4" class="st0">
</g>
<g id="Layer_1">
	<g>
		<circle class="st8" cx="350.4" cy="281.3" r="3.9"/>
		<g>
			<g>
				
					<rect x="137.8" y="174.9" transform="matrix(1.111898e-02 0.9999 -0.9999 1.111898e-02 315.5063 31.1906)" class="st9" width="8.4" height="0.4"/>
			</g>
			<g>
				
					<rect x="149.6" y="170.9" transform="matrix(0.999 4.496426e-02 -4.496426e-02 0.999 8.0253 -6.5573)" class="st9" width="0.4" height="8.5"/>
			</g>
			<g>
				<path class="st9" d="M145.4,348.2c-22.6,0-43.8-8.8-59.8-24.8c-16-16-24.8-37.2-24.8-59.8s8.8-43.8,24.8-59.8
					c16-16,37.2-24.8,59.8-24.8s43.8,8.8,59.8,24.8c16,16,24.8,37.2,24.8,59.8s-8.8,43.8-24.8,59.8
					C189.2,339.5,168,348.2,145.4,348.2z M145.4,179.5c-22.5,0-43.6,8.8-59.5,24.7s-24.7,37.1-24.7,59.5c0,22.5,8.8,43.6,24.7,59.5
					c15.9,15.9,37.1,24.7,59.5,24.7s43.6-8.8,59.5-24.7c15.9-15.9,24.7-37.1,24.7-59.5c0-22.5-8.8-43.6-24.7-59.5
					S167.9,179.5,145.4,179.5z"/>
			</g>
			<g>
				<path class="st9" d="M145.4,356.7c-24.8,0-48.2-9.7-65.8-27.2c-17.6-17.6-27.2-40.9-27.2-65.8c0-24.8,9.7-48.2,27.2-65.8
					c17.6-17.6,40.9-27.2,65.8-27.2c24.8,0,48.2,9.7,65.8,27.2c17.6,17.6,27.2,40.9,27.2,65.8c0,24.8-9.7,48.2-27.2,65.8
					C193.6,347,170.3,356.7,145.4,356.7z M145.4,171c-24.7,0-48,9.6-65.5,27.1c-17.5,17.5-27.1,40.8-27.1,65.5
					c0,24.7,9.6,48,27.1,65.5s40.8,27.1,65.5,27.1s48-9.6,65.5-27.1s27.1-40.8,27.1-65.5c0-24.7-9.6-48-27.1-65.5
					C193.4,180.6,170.2,171,145.4,171z"/>
			</g>
			<g>
				<path class="st9" d="M145.4,352c-23.6,0-45.8-9.2-62.5-25.9C66.2,309.5,57,287.3,57,263.7s9.2-45.8,25.9-62.5
					c16.7-16.7,38.9-25.9,62.5-25.9c23.6,0,45.8,9.2,62.5,25.9c16.7,16.7,25.9,38.9,25.9,62.5s-9.2,45.8-25.9,62.5
					C191.2,342.9,169,352,145.4,352z M145.4,175.7c-23.5,0-45.6,9.2-62.2,25.8c-16.6,16.6-25.8,38.7-25.8,62.2s9.2,45.6,25.8,62.2
					c16.6,16.6,38.7,25.8,62.2,25.8s45.6-9.2,62.2-25.8s25.8-38.7,25.8-62.2s-9.2-45.6-25.8-62.2S168.9,175.7,145.4,175.7z"/>
			</g>
			<g>
				<g>
					<path class="st9" d="M54.6,263.7l0,1.1c0,0,0,0.1-0.1,0.1c0,0-0.1,0-0.1-0.1v0l0-1.1C54.5,263.6,54.5,263.6,54.6,263.7
						C54.6,263.6,54.6,263.6,54.6,263.7z"/>
				</g>
				<g>
					<path class="st9" d="M54.7,268.1l0.1,1.1c0,0,0,0.1-0.1,0.1c0,0-0.1,0-0.1-0.1v0l-0.1-1.1C54.6,268.1,54.6,268,54.7,268.1
						C54.7,268,54.7,268.1,54.7,268.1z"/>
				</g>
				<g>
					<path class="st9" d="M55.1,272.5l0.1,1.1c0,0,0,0.1-0.1,0.1c0,0-0.1,0-0.1-0.1v0l-0.1-1.1C54.9,272.5,54.9,272.4,55.1,272.5
						C55,272.4,55.1,272.5,55.1,272.5z"/>
				</g>
				<g>
					<path class="st9" d="M55.6,276.9l0.2,1.1c0,0,0,0.1-0.1,0.1c0,0-0.1,0-0.1-0.1v0l-0.2-1.1C55.4,276.9,55.5,276.8,55.6,276.9
						C55.6,276.8,55.6,276.8,55.6,276.9z"/>
				</g>
				<g>
					<path class="st9" d="M56.4,281.2l0.2,1.1c0,0.1,0,0.1-0.1,0.1c-0.1,0-0.1,0-0.1-0.1l0,0l-0.2-1.1c0,0,0-0.1,0.1-0.1
						S56.3,281.2,56.4,281.2z"/>
				</g>
				<g>
					<path class="st9" d="M57.3,285.6l0.3,1.1c0,0.1,0,0.1-0.1,0.1c-0.1,0-0.1,0-0.1-0.1l0,0l-0.3-1.1c0-0.1,0-0.1,0.1-0.1
						C57.3,285.5,57.3,285.5,57.3,285.6z"/>
				</g>
				<g>
					<path class="st9" d="M58.5,289.8l0.3,1.1c0,0.1,0,0.1-0.1,0.1c-0.1,0-0.1,0-0.1-0.1l0,0l-0.3-1.1c0-0.1,0-0.1,0.1-0.1
						C58.4,289.7,58.5,289.8,58.5,289.8z"/>
				</g>
				<g>
					<path class="st9" d="M59.9,294l0.4,1c0,0.1,0,0.1-0.1,0.2c-0.1,0-0.1,0-0.2-0.1c0,0,0,0,0,0l-0.4-1c0-0.1,0-0.1,0.1-0.2
						C59.8,293.9,59.9,293.9,59.9,294z"/>
				</g>
				<g>
					<path class="st9" d="M61.5,298.1l0.4,1c0,0.1,0,0.2-0.1,0.2c-0.1,0-0.2,0-0.2-0.1l0,0l-0.4-1c0-0.1,0-0.2,0.1-0.2
						C61.4,298,61.5,298.1,61.5,298.1z"/>
				</g>
				<g>
					<path class="st9" d="M63.3,302.2l0.5,1c0,0.1,0,0.2-0.1,0.2c-0.1,0-0.2,0-0.2-0.1c0,0,0,0,0,0l-0.5-1c0-0.1,0-0.2,0.1-0.2
						C63.1,302,63.2,302.1,63.3,302.2z"/>
				</g>
				<g>
					<path class="st9" d="M65.3,306.1l0.5,1c0.1,0.1,0,0.2-0.1,0.3c-0.1,0.1-0.2,0-0.3-0.1c0,0,0,0,0,0l-0.5-1
						c-0.1-0.1,0-0.2,0.1-0.3C65.1,306,65.2,306,65.3,306.1z"/>
				</g>
				<g>
					<path class="st9" d="M67.5,309.9l0.6,0.9c0.1,0.1,0,0.2-0.1,0.3c-0.1,0.1-0.2,0-0.3-0.1l0,0l-0.6-1c-0.1-0.1,0-0.2,0.1-0.3
						C67.3,309.8,67.4,309.8,67.5,309.9z"/>
				</g>
				<g>
					<path class="st9" d="M69.8,313.7l0.6,0.9c0.1,0.1,0,0.3-0.1,0.3c-0.1,0.1-0.3,0-0.3-0.1c0,0,0,0,0,0l-0.6-0.9
						c-0.1-0.1,0-0.3,0.1-0.3C69.6,313.5,69.8,313.5,69.8,313.7z"/>
				</g>
				<g>
					<path class="st9" d="M72.4,317.3l0.7,0.9c0.1,0.1,0.1,0.3-0.1,0.4c-0.1,0.1-0.3,0.1-0.4-0.1c0,0,0,0,0,0l-0.7-0.9
						c-0.1-0.1-0.1-0.3,0.1-0.4C72.1,317.1,72.3,317.1,72.4,317.3z"/>
				</g>
				<g>
					<path class="st9" d="M75.1,320.7l0.7,0.8c0.1,0.1,0.1,0.3,0,0.4c-0.1,0.1-0.3,0.1-0.4,0c0,0,0,0,0,0l-0.7-0.9
						c-0.1-0.1-0.1-0.3,0-0.4C74.8,320.6,75,320.6,75.1,320.7z"/>
				</g>
				<g>
					<path class="st9" d="M78,324.1l0.7,0.8c0.1,0.1,0.1,0.3,0,0.5c-0.1,0.1-0.3,0.1-0.5,0c0,0,0,0,0,0l-0.7-0.8
						c-0.1-0.1-0.1-0.3,0-0.5C77.7,323.9,77.9,323.9,78,324.1z"/>
				</g>
				<g>
					<path class="st9" d="M81,327.3l0.8,0.8c0.1,0.1,0.1,0.4,0,0.5c-0.1,0.1-0.4,0.1-0.5,0c0,0,0,0,0,0l-0.8-0.8
						c-0.1-0.1-0.1-0.4,0-0.5C80.7,327.1,80.9,327.1,81,327.3z"/>
				</g>
				<g>
					<path class="st9" d="M84.2,330.3L85,331c0.2,0.1,0.2,0.4,0,0.5c-0.1,0.2-0.4,0.2-0.5,0c0,0,0,0,0,0l-0.8-0.7
						c-0.2-0.1-0.2-0.4,0-0.5C83.8,330.2,84.1,330.2,84.2,330.3z"/>
				</g>
				<g>
					<path class="st9" d="M87.5,333.2l0.9,0.7c0.2,0.1,0.2,0.4,0.1,0.6c-0.1,0.2-0.4,0.2-0.6,0.1c0,0,0,0,0,0l-0.8-0.7
						c-0.2-0.1-0.2-0.4-0.1-0.6C87.1,333.1,87.4,333,87.5,333.2z"/>
				</g>
				<g>
					<path class="st9" d="M91,335.9l0.9,0.7c0.2,0.1,0.2,0.4,0.1,0.6c-0.1,0.2-0.4,0.2-0.6,0.1l0,0l-0.9-0.7
						c-0.2-0.1-0.2-0.4-0.1-0.6C90.6,335.8,90.8,335.8,91,335.9z"/>
				</g>
				<g>
					<path class="st9" d="M94.6,338.5l0.9,0.6c0.2,0.1,0.3,0.4,0.1,0.6c-0.1,0.2-0.4,0.3-0.6,0.1l0,0l-0.9-0.6
						c-0.2-0.1-0.2-0.4-0.1-0.6C94.1,338.4,94.4,338.3,94.6,338.5z"/>
				</g>
				<g>
					<path class="st9" d="M98.3,340.8l0.9,0.6c0.2,0.1,0.3,0.4,0.2,0.6c-0.1,0.2-0.4,0.3-0.6,0.2l0,0l-0.9-0.6
						c-0.2-0.1-0.3-0.4-0.1-0.6C97.8,340.8,98.1,340.7,98.3,340.8z"/>
				</g>
				<g>
					<path class="st9" d="M102.1,343l1,0.5c0.2,0.1,0.3,0.4,0.2,0.6c-0.1,0.2-0.4,0.3-0.6,0.2l0,0l-1-0.5c-0.2-0.1-0.3-0.4-0.2-0.6
						C101.6,343,101.9,342.9,102.1,343z"/>
				</g>
				<g>
					<path class="st9" d="M106,345l1,0.5c0.2,0.1,0.3,0.4,0.2,0.6c-0.1,0.2-0.4,0.3-0.6,0.2l0,0l-1-0.5c-0.2-0.1-0.3-0.4-0.2-0.6
						C105.5,345,105.8,344.9,106,345z"/>
				</g>
				<g>
					<path class="st9" d="M110,346.8l1,0.4c0.2,0.1,0.4,0.4,0.3,0.6c-0.1,0.2-0.4,0.4-0.6,0.3l0,0l-1-0.4c-0.2-0.1-0.4-0.4-0.3-0.6
						C109.5,346.9,109.8,346.7,110,346.8z"/>
				</g>
				<g>
					<path class="st9" d="M114.1,348.5l1,0.4c0.3,0.1,0.4,0.4,0.3,0.6c-0.1,0.3-0.4,0.4-0.6,0.3l0,0l-1-0.4
						c-0.3-0.1-0.4-0.4-0.3-0.6C113.6,348.5,113.9,348.4,114.1,348.5z"/>
				</g>
				<g>
					<path class="st9" d="M118.3,349.9l1.1,0.3c0.3,0.1,0.4,0.4,0.3,0.6c-0.1,0.3-0.4,0.4-0.6,0.3l-1.1-0.3
						c-0.3-0.1-0.4-0.4-0.3-0.6S118,349.8,118.3,349.9L118.3,349.9z"/>
				</g>
				<g>
					<path class="st9" d="M122.5,351.1l1.1,0.3c0.3,0.1,0.4,0.3,0.4,0.6c-0.1,0.3-0.3,0.4-0.6,0.4l-1.1-0.3
						c-0.3-0.1-0.4-0.3-0.4-0.6C122,351.2,122.3,351,122.5,351.1L122.5,351.1z"/>
				</g>
				<g>
					<path class="st9" d="M126.8,352.1l1.1,0.2c0.3,0.1,0.4,0.3,0.4,0.6s-0.3,0.4-0.6,0.4l-1.1-0.2c-0.3-0.1-0.4-0.3-0.4-0.6
						C126.3,352.2,126.5,352.1,126.8,352.1L126.8,352.1z"/>
				</g>
				<g>
					<path class="st9" d="M131.1,352.9l1.1,0.2c0.3,0,0.4,0.3,0.4,0.5c0,0.3-0.3,0.4-0.5,0.4l-1.1-0.2c-0.3,0-0.4-0.3-0.4-0.5
						S130.9,352.9,131.1,352.9L131.1,352.9z"/>
				</g>
				<g>
					<path class="st9" d="M135.5,353.5l1.1,0.1c0.3,0,0.4,0.3,0.4,0.5c0,0.3-0.3,0.4-0.5,0.4l-1.1-0.1c-0.3,0-0.4-0.3-0.4-0.5
						C135,353.7,135.2,353.5,135.5,353.5L135.5,353.5z"/>
				</g>
				<g>
					<path class="st9" d="M139.9,353.9l1.1,0.1c0.3,0,0.5,0.2,0.4,0.5c0,0.3-0.2,0.5-0.5,0.4l-1.1-0.1c-0.3,0-0.5-0.2-0.4-0.5
						C139.4,354.1,139.6,353.9,139.9,353.9L139.9,353.9z"/>
				</g>
				<g>
					<path class="st9" d="M144.3,354l1.1,0c0.3,0,0.5,0.2,0.5,0.5c0,0.3-0.2,0.5-0.5,0.5l-1.1,0c-0.3,0-0.5-0.2-0.5-0.5
						C143.8,354.2,144,354,144.3,354L144.3,354z"/>
				</g>
				<g>
					<path class="st9" d="M148.7,354l1.1,0c0.2,0,0.5,0.2,0.5,0.4c0,0.2-0.2,0.5-0.4,0.5l-1.1,0.1c-0.2,0-0.5-0.2-0.5-0.4
						C148.2,354.2,148.4,354,148.7,354L148.7,354z"/>
				</g>
				<g>
					<path class="st9" d="M153.1,353.8l1.1-0.1c0.2,0,0.4,0.2,0.5,0.4c0,0.2-0.2,0.4-0.4,0.5l-1.1,0.1c-0.2,0-0.4-0.2-0.5-0.4
						C152.7,354,152.8,353.8,153.1,353.8L153.1,353.8z"/>
				</g>
				<g>
					<path class="st9" d="M157.5,353.3l1.1-0.1c0.2,0,0.4,0.1,0.5,0.3c0,0.2-0.1,0.4-0.3,0.5l-1.1,0.2c-0.2,0-0.4-0.1-0.5-0.3
						C157.1,353.5,157.2,353.3,157.5,353.3L157.5,353.3z"/>
				</g>
				<g>
					<path class="st9" d="M161.8,352.6l1.1-0.2c0.2,0,0.4,0.1,0.5,0.3c0,0.2-0.1,0.4-0.3,0.5l-1.1,0.2c-0.2,0-0.4-0.1-0.5-0.3
						C161.5,352.9,161.6,352.7,161.8,352.6L161.8,352.6z"/>
				</g>
				<g>
					<path class="st9" d="M166.1,351.8l1.1-0.3c0.2,0,0.4,0.1,0.4,0.3c0,0.2-0.1,0.4-0.3,0.4l-1.1,0.3c-0.2,0-0.4-0.1-0.5-0.3
						C165.8,352,165.9,351.8,166.1,351.8L166.1,351.8z"/>
				</g>
				<g>
					<path class="st9" d="M170.4,350.7l1.1-0.3c0.2-0.1,0.4,0.1,0.4,0.2c0.1,0.2-0.1,0.4-0.2,0.4l-1.1,0.3c-0.2,0.1-0.4-0.1-0.4-0.2
						C170.1,350.9,170.2,350.7,170.4,350.7L170.4,350.7z"/>
				</g>
				<g>
					<path class="st9" d="M174.6,349.4l1-0.4c0.2-0.1,0.4,0,0.4,0.2c0.1,0.2,0,0.4-0.2,0.4l-1,0.4c-0.2,0.1-0.4,0-0.4-0.2
						C174.3,349.6,174.4,349.4,174.6,349.4L174.6,349.4z"/>
				</g>
				<g>
					<path class="st9" d="M178.8,347.9l1-0.4c0.2-0.1,0.3,0,0.4,0.2c0.1,0.2,0,0.3-0.2,0.4l-1,0.4c-0.2,0.1-0.3,0-0.4-0.2
						C178.5,348.1,178.6,347.9,178.8,347.9L178.8,347.9z"/>
				</g>
				<g>
					<path class="st9" d="M182.8,346.1l1-0.5c0.1-0.1,0.3,0,0.4,0.1c0.1,0.1,0,0.3-0.1,0.4l-1,0.5c-0.1,0.1-0.3,0-0.4-0.1
						C182.6,346.4,182.7,346.2,182.8,346.1L182.8,346.1z"/>
				</g>
				<g>
					<path class="st9" d="M186.8,344.2l1-0.5c0.1-0.1,0.3,0,0.4,0.1c0.1,0.1,0,0.3-0.1,0.4l-1,0.5c-0.1,0.1-0.3,0-0.4-0.1
						C186.6,344.5,186.7,344.3,186.8,344.2L186.8,344.2z"/>
				</g>
				<g>
					<path class="st9" d="M190.7,342.1l1-0.6c0.1-0.1,0.3,0,0.3,0.1c0.1,0.1,0,0.3-0.1,0.3l-1,0.6c-0.1,0.1-0.3,0-0.3-0.1
						C190.5,342.4,190.6,342.2,190.7,342.1L190.7,342.1z"/>
				</g>
				<g>
					<path class="st9" d="M194.5,339.9l0.9-0.6c0.1-0.1,0.2,0,0.3,0.1c0.1,0.1,0,0.2-0.1,0.3l-0.9,0.6c-0.1,0.1-0.3,0-0.3-0.1
						C194.3,340.1,194.3,339.9,194.5,339.9L194.5,339.9z"/>
				</g>
				<g>
					<path class="st9" d="M198.1,337.4l0.9-0.6c0.1-0.1,0.2,0,0.3,0c0.1,0.1,0,0.2,0,0.3l-0.9,0.7c-0.1,0.1-0.2,0-0.3,0
						C198,337.6,198,337.5,198.1,337.4L198.1,337.4z"/>
				</g>
				<g>
					<path class="st9" d="M201.6,334.7l0.9-0.7c0.1-0.1,0.2-0.1,0.3,0c0.1,0.1,0.1,0.2,0,0.3l-0.9,0.7c-0.1,0.1-0.2,0.1-0.3,0
						C201.5,335,201.6,334.8,201.6,334.7L201.6,334.7z"/>
				</g>
				<g>
					<path class="st9" d="M205,331.9l0.8-0.7c0.1-0.1,0.2-0.1,0.3,0c0.1,0.1,0.1,0.2,0,0.3l-0.8,0.7c-0.1,0.1-0.2,0.1-0.3,0
						C204.9,332.1,205,332,205,331.9L205,331.9z"/>
				</g>
				<g>
					<path class="st9" d="M208.3,329l0.8-0.8c0.1-0.1,0.2-0.1,0.3,0c0.1,0.1,0.1,0.2,0,0.3l-0.8,0.8c-0.1,0.1-0.2,0.1-0.3,0
						C208.2,329.2,208.2,329,208.3,329L208.3,329z"/>
				</g>
				<g>
					<path class="st9" d="M211.4,325.8l0.8-0.8c0.1-0.1,0.2-0.1,0.3,0c0.1,0.1,0.1,0.2,0,0.3l-0.8,0.8c-0.1,0.1-0.2,0.1-0.3,0
						S211.3,325.9,211.4,325.8L211.4,325.8z"/>
				</g>
				<g>
					<path class="st9" d="M214.4,322.5l0.7-0.8c0.1-0.1,0.2-0.1,0.2,0c0.1,0.1,0.1,0.2,0,0.2l-0.7,0.8c-0.1,0.1-0.2,0.1-0.3,0
						C214.3,322.7,214.3,322.6,214.4,322.5L214.4,322.5z"/>
				</g>
				<g>
					<path class="st9" d="M217.2,319.1l0.7-0.9c0.1-0.1,0.2-0.1,0.2,0c0.1,0.1,0.1,0.2,0,0.2l-0.7,0.9c-0.1,0.1-0.2,0.1-0.2,0
						C217.1,319.3,217.1,319.2,217.2,319.1L217.2,319.1z"/>
				</g>
				<g>
					<path class="st9" d="M219.8,315.6l0.6-0.9c0.1-0.1,0.2-0.1,0.2,0c0.1,0.1,0.1,0.2,0,0.2l0,0l-0.6,0.9c-0.1,0.1-0.2,0.1-0.2,0
						C219.7,315.7,219.7,315.6,219.8,315.6z"/>
				</g>
				<g>
					<path class="st9" d="M222.2,311.9l0.6-0.9c0.1-0.1,0.2-0.1,0.2-0.1c0.1,0.1,0.1,0.2,0.1,0.2l0,0l-0.6,0.9
						c-0.1,0.1-0.2,0.1-0.2,0.1C222.2,312.1,222.2,312,222.2,311.9z"/>
				</g>
				<g>
					<path class="st9" d="M224.5,308.1l0.5-1c0-0.1,0.2-0.1,0.2-0.1c0.1,0,0.1,0.2,0.1,0.2l0,0l-0.5,1c0,0.1-0.2,0.1-0.2,0.1
						C224.4,308.3,224.4,308.2,224.5,308.1z"/>
				</g>
				<g>
					<path class="st9" d="M226.5,304.2l0.5-1c0-0.1,0.2-0.1,0.3-0.1c0.1,0,0.1,0.2,0.1,0.3l0,0l-0.5,1c0,0.1-0.2,0.1-0.2,0.1
						C226.5,304.4,226.5,304.3,226.5,304.2z"/>
				</g>
				<g>
					<path class="st9" d="M228.4,300.2l0.4-1c0-0.1,0.2-0.1,0.3-0.1c0.1,0,0.1,0.2,0.1,0.3l0,0l-0.4,1c0,0.1-0.2,0.1-0.3,0.1
						C228.4,300.4,228.4,300.3,228.4,300.2z"/>
				</g>
				<g>
					<path class="st9" d="M230.1,296.1l0.4-1c0-0.1,0.2-0.2,0.3-0.1c0.1,0,0.2,0.2,0.1,0.3l0,0l-0.4,1c0,0.1-0.2,0.2-0.3,0.1
						C230.1,296.3,230,296.2,230.1,296.1z"/>
				</g>
				<g>
					<path class="st9" d="M231.6,291.9l0.3-1.1c0-0.1,0.2-0.2,0.3-0.1c0.1,0,0.2,0.2,0.1,0.3l0,0l-0.3,1.1c0,0.1-0.1,0.2-0.3,0.1
						C231.6,292.2,231.5,292.1,231.6,291.9z"/>
				</g>
				<g>
					<path class="st9" d="M232.8,287.7l0.3-1.1c0-0.1,0.2-0.2,0.3-0.2c0.1,0,0.2,0.2,0.2,0.3l0,0l-0.3,1.1c0,0.1-0.1,0.2-0.3,0.2
						C232.9,287.9,232.8,287.8,232.8,287.7z"/>
				</g>
				<g>
					<path class="st9" d="M233.9,283.4l0.2-1.1c0-0.1,0.2-0.2,0.3-0.2c0.1,0,0.2,0.2,0.2,0.3l0,0l-0.2,1.1c0,0.1-0.2,0.2-0.3,0.2
						C233.9,283.7,233.8,283.6,233.9,283.4z"/>
				</g>
				<g>
					<path class="st9" d="M234.7,279.1l0.2-1.1c0-0.1,0.2-0.2,0.3-0.2c0.1,0,0.2,0.2,0.2,0.3l0,0l-0.2,1.1c0,0.1-0.2,0.2-0.3,0.2
						C234.8,279.4,234.7,279.2,234.7,279.1z"/>
				</g>
				<g>
					<path class="st9" d="M235.3,274.7l0.1-1.1c0-0.1,0.1-0.3,0.3-0.2c0.1,0,0.3,0.1,0.2,0.3l0,0l-0.1,1.1c0,0.1-0.1,0.2-0.3,0.2
						C235.4,275,235.3,274.9,235.3,274.7z"/>
				</g>
				<g>
					<path class="st9" d="M235.7,270.3l0.1-1.1c0-0.2,0.1-0.3,0.3-0.3c0.2,0,0.3,0.1,0.3,0.3l0,0l-0.1,1.1c0,0.2-0.1,0.3-0.3,0.3
						C235.8,270.6,235.7,270.5,235.7,270.3z"/>
				</g>
				<g>
					<path class="st9" d="M235.9,265.9l0-1.1c0-0.2,0.1-0.3,0.3-0.3c0.2,0,0.3,0.1,0.3,0.3l0,0l0,1.1c0,0.2-0.1,0.3-0.3,0.3
						C236.1,266.2,235.9,266.1,235.9,265.9z"/>
				</g>
				<g>
					<path class="st9" d="M235.9,261.5l0-1.1c0-0.2,0.1-0.3,0.3-0.3c0.2,0,0.3,0.1,0.3,0.3l0,0l0,1.1c0,0.2-0.1,0.3-0.3,0.3
						C236.1,261.8,235.9,261.7,235.9,261.5z"/>
				</g>
				<g>
					<path class="st9" d="M235.7,257.1l-0.1-1.1c0-0.2,0.1-0.3,0.3-0.4c0.2,0,0.3,0.1,0.4,0.3l0,0l0.1,1.1c0,0.2-0.1,0.3-0.3,0.3
						C235.9,257.4,235.7,257.3,235.7,257.1z"/>
				</g>
				<g>
					<path class="st9" d="M235.3,252.7l-0.1-1.1c0-0.2,0.1-0.4,0.3-0.4c0.2,0,0.4,0.1,0.4,0.3l0,0l0.1,1.1c0,0.2-0.1,0.4-0.3,0.4
						C235.5,253.1,235.3,252.9,235.3,252.7z"/>
				</g>
				<g>
					<path class="st9" d="M234.6,248.4l-0.2-1.1c0-0.2,0.1-0.4,0.3-0.4c0.2,0,0.4,0.1,0.4,0.3l0,0l0.2,1.1c0,0.2-0.1,0.4-0.3,0.4
						C234.8,248.7,234.6,248.6,234.6,248.4z"/>
				</g>
				<g>
					<path class="st9" d="M233.7,244.1l-0.2-1.1c0-0.2,0.1-0.4,0.3-0.5c0.2,0,0.4,0.1,0.5,0.3l0,0l0.2,1.1c0,0.2-0.1,0.4-0.3,0.4
						C234,244.4,233.8,244.3,233.7,244.1z"/>
				</g>
				<g>
					<path class="st9" d="M232.7,239.8l-0.3-1.1c-0.1-0.2,0.1-0.4,0.3-0.5c0.2-0.1,0.4,0.1,0.5,0.3l0,0l0.3,1.1
						c0.1,0.2-0.1,0.4-0.3,0.5C232.9,240.1,232.7,240,232.7,239.8z"/>
				</g>
				<g>
					<path class="st9" d="M231.4,235.6l-0.4-1c-0.1-0.2,0-0.4,0.3-0.5c0.2-0.1,0.4,0,0.5,0.3l0,0l0.3,1.1c0.1,0.2,0,0.4-0.3,0.5
						C231.7,235.9,231.5,235.8,231.4,235.6z"/>
				</g>
				<g>
					<path class="st9" d="M229.9,231.4l-0.4-1c-0.1-0.2,0-0.5,0.2-0.5c0.2-0.1,0.5,0,0.5,0.2l0,0l0.4,1c0.1,0.2,0,0.5-0.2,0.5
						C230.2,231.7,230,231.6,229.9,231.4z"/>
				</g>
				<g>
					<path class="st9" d="M228.2,227.3l-0.5-1c-0.1-0.2,0-0.5,0.2-0.6c0.2-0.1,0.5,0,0.6,0.2l0,0l0.4,1c0.1,0.2,0,0.5-0.2,0.6
						C228.6,227.7,228.3,227.6,228.2,227.3z"/>
				</g>
				<g>
					<path class="st9" d="M226.3,223.4l-0.5-1c-0.1-0.2,0-0.5,0.2-0.6c0.2-0.1,0.5,0,0.6,0.2l0,0l0.5,1c0.1,0.2,0,0.5-0.2,0.6
						C226.7,223.7,226.5,223.6,226.3,223.4z"/>
				</g>
				<g>
					<path class="st9" d="M224.3,219.5l-0.6-1c-0.1-0.2-0.1-0.5,0.2-0.6c0.2-0.1,0.5-0.1,0.6,0.2l0,0l0.5,1c0.1,0.2,0,0.5-0.2,0.6
						C224.7,219.8,224.4,219.7,224.3,219.5z"/>
				</g>
				<g>
					<path class="st9" d="M222,215.7l-0.6-0.9c-0.1-0.2-0.1-0.5,0.1-0.7c0.2-0.1,0.5-0.1,0.7,0.1l0,0l0.6,0.9
						c0.1,0.2,0.1,0.5-0.1,0.7C222.4,216,222.2,215.9,222,215.7z"/>
				</g>
				<g>
					<path class="st9" d="M219.6,212l-0.6-0.9c-0.2-0.2-0.1-0.5,0.1-0.7c0.2-0.2,0.5-0.1,0.7,0.1l0,0l0.6,0.9
						c0.2,0.2,0.1,0.5-0.1,0.7C220,212.3,219.7,212.3,219.6,212z"/>
				</g>
				<g>
					<path class="st9" d="M217,208.5l-0.7-0.9c-0.2-0.2-0.1-0.5,0.1-0.7c0.2-0.2,0.5-0.1,0.7,0.1l0,0l0.7,0.9
						c0.2,0.2,0.1,0.5-0.1,0.7C217.4,208.8,217.1,208.7,217,208.5z"/>
				</g>
				<g>
					<path class="st9" d="M214.2,205.1l-0.7-0.8c-0.2-0.2-0.2-0.5,0.1-0.7c0.2-0.2,0.5-0.2,0.7,0.1l0,0l0.7,0.8
						c0.2,0.2,0.2,0.5-0.1,0.7C214.7,205.3,214.4,205.3,214.2,205.1z"/>
				</g>
				<g>
					<path class="st9" d="M211.2,201.8l-0.8-0.8c-0.2-0.2-0.2-0.5,0-0.7c0.2-0.2,0.5-0.2,0.7,0l0,0l0.8,0.8c0.2,0.2,0.2,0.5,0,0.7
						C211.8,202,211.4,202,211.2,201.8z"/>
				</g>
				<g>
					<path class="st9" d="M208.2,198.7l-0.8-0.8c-0.2-0.2-0.2-0.5,0-0.7c0.2-0.2,0.5-0.2,0.7,0l0,0l0.8,0.8c0.2,0.2,0.2,0.5,0,0.7
						C208.7,198.9,208.4,198.9,208.2,198.7z"/>
				</g>
				<g>
					<path class="st9" d="M204.9,195.7l-0.8-0.7c-0.2-0.2-0.2-0.5-0.1-0.8c0.2-0.2,0.5-0.2,0.8-0.1l0,0l0.8,0.7
						c0.2,0.2,0.2,0.5,0.1,0.7C205.5,195.9,205.1,195.9,204.9,195.7z"/>
				</g>
				<g>
					<path class="st9" d="M201.5,192.9l-0.9-0.7c-0.2-0.2-0.3-0.5-0.1-0.8c0.2-0.2,0.5-0.3,0.8-0.1l0,0l0.9,0.7
						c0.2,0.2,0.3,0.5,0.1,0.8C202.1,193.1,201.8,193.1,201.5,192.9z"/>
				</g>
				<g>
					<path class="st9" d="M198,190.3l-0.9-0.6c-0.2-0.2-0.3-0.5-0.1-0.8c0.2-0.2,0.5-0.3,0.8-0.1l0,0l0.9,0.6
						c0.2,0.2,0.3,0.5,0.1,0.8C198.6,190.4,198.3,190.4,198,190.3z"/>
				</g>
				<g>
					<path class="st9" d="M194.4,187.8l-0.9-0.6c-0.3-0.2-0.3-0.5-0.2-0.8c0.2-0.3,0.5-0.3,0.8-0.2l0,0l0.9,0.6
						c0.3,0.2,0.3,0.5,0.2,0.8C195,187.9,194.6,188,194.4,187.8z"/>
				</g>
				<g>
					<path class="st9" d="M190.6,185.5l-1-0.5c-0.3-0.2-0.4-0.5-0.2-0.8c0.2-0.3,0.5-0.4,0.8-0.2l0,0l1,0.6c0.3,0.2,0.4,0.5,0.2,0.8
						C191.2,185.6,190.9,185.7,190.6,185.5z"/>
				</g>
				<g>
					<path class="st9" d="M186.8,183.4l-1-0.5c-0.3-0.1-0.4-0.5-0.2-0.8c0.1-0.3,0.5-0.4,0.8-0.2l0,0l1,0.5c0.3,0.1,0.4,0.5,0.2,0.8
						C187.4,183.4,187,183.5,186.8,183.4z"/>
				</g>
				<g>
					<path class="st9" d="M182.8,181.5l-1-0.5c-0.3-0.1-0.4-0.5-0.3-0.8c0.1-0.3,0.5-0.4,0.8-0.3l0,0l1,0.5c0.3,0.1,0.4,0.5,0.3,0.8
						C183.4,181.5,183.1,181.6,182.8,181.5z"/>
				</g>
				<g>
					<path class="st9" d="M178.8,179.8l-1-0.4c-0.3-0.1-0.4-0.5-0.3-0.8c0.1-0.3,0.5-0.4,0.8-0.3l0,0l1,0.4c0.3,0.1,0.4,0.5,0.3,0.8
						C179.4,179.7,179.1,179.9,178.8,179.8z"/>
				</g>
				<g>
					<path class="st9" d="M174.6,178.2l-1-0.3c-0.3-0.1-0.5-0.4-0.4-0.7c0.1-0.3,0.4-0.5,0.7-0.4l0,0l1,0.4c0.3,0.1,0.5,0.4,0.4,0.7
						C175.3,178.2,174.9,178.4,174.6,178.2z"/>
				</g>
				<g>
					<path class="st9" d="M170.5,176.9l-1.1-0.3c-0.3-0.1-0.5-0.4-0.4-0.7c0.1-0.3,0.4-0.5,0.7-0.4l1.1,0.3c0.3,0.1,0.5,0.4,0.4,0.7
						C171.1,176.8,170.8,177,170.5,176.9L170.5,176.9z"/>
				</g>
				<g>
					<path class="st9" d="M166.2,175.8l-1.1-0.2c-0.3-0.1-0.5-0.4-0.4-0.7c0.1-0.3,0.4-0.5,0.7-0.4l1.1,0.2c0.3,0.1,0.5,0.4,0.4,0.7
						C166.8,175.7,166.5,175.9,166.2,175.8L166.2,175.8z"/>
				</g>
				<g>
					<path class="st9" d="M161.9,174.9l-1.1-0.2c-0.3-0.1-0.5-0.4-0.5-0.7c0.1-0.3,0.4-0.5,0.7-0.5l1.1,0.2c0.3,0.1,0.5,0.4,0.5,0.7
						C162.5,174.8,162.2,175,161.9,174.9L161.9,174.9z"/>
				</g>
				<g>
					<path class="st9" d="M157.6,174.2l-1.1-0.1c-0.3,0-0.5-0.3-0.5-0.6c0-0.3,0.3-0.5,0.6-0.5l1.1,0.1c0.3,0,0.5,0.3,0.5,0.6
						C158.2,174,157.9,174.3,157.6,174.2L157.6,174.2z"/>
				</g>
				<g>
					<path class="st9" d="M153.2,173.7l-1.1-0.1c-0.3,0-0.6-0.3-0.5-0.6c0-0.3,0.3-0.6,0.6-0.5l1.1,0.1c0.3,0,0.6,0.3,0.5,0.6
						C153.8,173.5,153.5,173.8,153.2,173.7L153.2,173.7z"/>
				</g>
				<g>
					<path class="st9" d="M148.8,173.5l-1.1,0c-0.3,0-0.6-0.3-0.6-0.6c0-0.3,0.3-0.6,0.6-0.6l1.1,0c0.3,0,0.6,0.3,0.6,0.6
						C149.4,173.2,149.1,173.5,148.8,173.5L148.8,173.5z"/>
				</g>
				<g>
					<path class="st9" d="M144.4,173.4l-1.1,0c-0.3,0-0.6-0.2-0.6-0.6c0-0.3,0.2-0.6,0.6-0.6l1.1,0c0.3,0,0.6,0.2,0.6,0.6
						C145,173.1,144.7,173.4,144.4,173.4L144.4,173.4z"/>
				</g>
				<g>
					<path class="st9" d="M140,173.6l-1.1,0.1c-0.3,0-0.6-0.2-0.6-0.5c0-0.3,0.2-0.6,0.5-0.6l1.1-0.1c0.3,0,0.6,0.2,0.6,0.5
						C140.6,173.3,140.3,173.5,140,173.6L140,173.6z"/>
				</g>
				<g>
					<path class="st9" d="M135.6,173.9l-1.1,0.1c-0.3,0-0.6-0.2-0.6-0.5c0-0.3,0.2-0.6,0.5-0.6l1.1-0.1c0.3,0,0.6,0.2,0.6,0.5
						C136.2,173.6,135.9,173.9,135.6,173.9L135.6,173.9z"/>
				</g>
				<g>
					<path class="st9" d="M131.3,174.5l-1.1,0.2c-0.3,0.1-0.6-0.2-0.6-0.5c-0.1-0.3,0.2-0.6,0.5-0.6l1.1-0.2
						c0.3-0.1,0.6,0.2,0.6,0.5C131.8,174.1,131.6,174.4,131.3,174.5L131.3,174.5z"/>
				</g>
				<g>
					<path class="st9" d="M126.9,175.3l-1.1,0.2c-0.3,0.1-0.6-0.1-0.7-0.4c-0.1-0.3,0.1-0.6,0.4-0.7l1.1-0.2
						c0.3-0.1,0.6,0.1,0.7,0.4C127.4,174.9,127.2,175.2,126.9,175.3L126.9,175.3z"/>
				</g>
				<g>
					<path class="st9" d="M122.7,176.3l-1.1,0.3c-0.3,0.1-0.6-0.1-0.7-0.4c-0.1-0.3,0.1-0.6,0.4-0.7l1.1-0.3
						c0.3-0.1,0.6,0.1,0.7,0.4C123.1,175.9,123,176.2,122.7,176.3L122.7,176.3z"/>
				</g>
				<g>
					<path class="st9" d="M118.4,177.5l-1.1,0.3c-0.3,0.1-0.6-0.1-0.7-0.4c-0.1-0.3,0.1-0.6,0.4-0.7l1.1-0.3
						c0.3-0.1,0.6,0.1,0.7,0.4C118.9,177.1,118.7,177.4,118.4,177.5L118.4,177.5z"/>
				</g>
				<g>
					<path class="st9" d="M114.3,178.9l-1,0.4c-0.3,0.1-0.6,0-0.7-0.3c-0.1-0.3,0-0.6,0.3-0.7l1-0.4c0.3-0.1,0.6,0,0.7,0.3
						C114.7,178.5,114.5,178.8,114.3,178.9L114.3,178.9z"/>
				</g>
				<g>
					<path class="st9" d="M110.2,180.5l-1,0.4c-0.3,0.1-0.6,0-0.7-0.3c-0.1-0.3,0-0.6,0.3-0.7l1-0.4c0.3-0.1,0.6,0,0.7,0.3
						C110.6,180.1,110.4,180.4,110.2,180.5L110.2,180.5z"/>
				</g>
				<g>
					<path class="st9" d="M106.2,182.3l-1,0.5c-0.3,0.1-0.6,0-0.7-0.2c-0.1-0.2,0-0.5,0.2-0.7l1-0.5c0.3-0.1,0.6,0,0.7,0.2
						C106.5,181.9,106.4,182.2,106.2,182.3L106.2,182.3z"/>
				</g>
				<g>
					<path class="st9" d="M102.2,184.3l-1,0.5c-0.2,0.1-0.5,0-0.7-0.2c-0.1-0.2,0-0.5,0.2-0.7l1-0.5c0.2-0.1,0.5,0,0.7,0.2
						C102.6,183.8,102.5,184.1,102.2,184.3L102.2,184.3z"/>
				</g>
				<g>
					<path class="st9" d="M98.4,186.5l-0.9,0.6c-0.2,0.1-0.5,0.1-0.6-0.2c-0.1-0.2-0.1-0.5,0.2-0.6l0.9-0.6c0.2-0.1,0.5-0.1,0.7,0.2
						C98.7,186,98.6,186.3,98.4,186.5L98.4,186.5z"/>
				</g>
				<g>
					<path class="st9" d="M94.7,188.8l-0.9,0.6c-0.2,0.1-0.5,0.1-0.6-0.1c-0.1-0.2-0.1-0.5,0.1-0.6l0.9-0.6c0.2-0.1,0.5-0.1,0.6,0.1
						C95,188.4,94.9,188.7,94.7,188.8L94.7,188.8z"/>
				</g>
				<g>
					<path class="st9" d="M91.1,191.4l-0.9,0.7c-0.2,0.1-0.5,0.1-0.6-0.1c-0.1-0.2-0.1-0.5,0.1-0.6l0.9-0.7c0.2-0.1,0.5-0.1,0.6,0.1
						C91.3,191,91.3,191.2,91.1,191.4L91.1,191.4z"/>
				</g>
				<g>
					<path class="st9" d="M87.6,194.1l-0.9,0.7c-0.2,0.1-0.4,0.1-0.6-0.1c-0.1-0.2-0.1-0.4,0-0.6l0.8-0.7c0.2-0.1,0.4-0.1,0.6,0
						C87.8,193.7,87.8,193.9,87.6,194.1C87.6,194.1,87.6,194.1,87.6,194.1z"/>
				</g>
				<g>
					<path class="st9" d="M84.3,197l-0.8,0.7c-0.2,0.1-0.4,0.1-0.5,0c-0.1-0.2-0.1-0.4,0-0.5l0.8-0.8c0.2-0.1,0.4-0.1,0.6,0
						C84.5,196.6,84.5,196.8,84.3,197C84.3,197,84.3,197,84.3,197z"/>
				</g>
				<g>
					<path class="st9" d="M81.1,200l-0.8,0.8c-0.1,0.1-0.4,0.1-0.5,0c-0.1-0.1-0.1-0.4,0-0.5l0.8-0.8c0.1-0.1,0.4-0.1,0.5,0
						C81.3,199.6,81.3,199.9,81.1,200C81.1,200,81.1,200,81.1,200z"/>
				</g>
				<g>
					<path class="st9" d="M78.1,203.2l-0.7,0.8c-0.1,0.1-0.3,0.1-0.5,0c-0.1-0.1-0.1-0.3,0-0.5l0.7-0.8c0.1-0.1,0.3-0.2,0.5,0
						C78.2,202.8,78.2,203,78.1,203.2C78.1,203.2,78.1,203.2,78.1,203.2z"/>
				</g>
				<g>
					<path class="st9" d="M75.2,206.5l-0.7,0.9c-0.1,0.1-0.3,0.1-0.4,0c-0.1-0.1-0.1-0.3,0-0.4l0.7-0.9c0.1-0.1,0.3-0.2,0.4,0
						C75.3,206.2,75.3,206.4,75.2,206.5C75.2,206.5,75.2,206.5,75.2,206.5z"/>
				</g>
				<g>
					<path class="st9" d="M72.5,210l-0.7,0.9c-0.1,0.1-0.3,0.1-0.4,0.1c-0.1-0.1-0.1-0.3-0.1-0.4l0.6-0.9c0.1-0.1,0.3-0.2,0.4-0.1
						C72.5,209.7,72.6,209.9,72.5,210C72.5,210,72.5,210,72.5,210z"/>
				</g>
				<g>
					<path class="st9" d="M69.9,213.6l-0.6,0.9c-0.1,0.1-0.2,0.1-0.3,0.1c-0.1-0.1-0.1-0.2-0.1-0.3l0.6-0.9c0.1-0.1,0.2-0.2,0.4-0.1
						C70,213.3,70,213.5,69.9,213.6C69.9,213.6,69.9,213.6,69.9,213.6z"/>
				</g>
				<g>
					<path class="st9" d="M67.5,217.3l-0.6,0.9c-0.1,0.1-0.2,0.1-0.3,0.1c-0.1-0.1-0.1-0.2-0.1-0.3l0.6-1c0.1-0.1,0.2-0.1,0.3-0.1
						C67.6,217.1,67.6,217.2,67.5,217.3C67.5,217.3,67.5,217.3,67.5,217.3z"/>
				</g>
				<g>
					<path class="st9" d="M65.3,221.1l-0.5,1c-0.1,0.1-0.2,0.1-0.3,0.1c-0.1-0.1-0.1-0.2-0.1-0.3l0.5-1c0.1-0.1,0.2-0.1,0.3-0.1
						C65.4,220.9,65.4,221,65.3,221.1L65.3,221.1z"/>
				</g>
				<g>
					<path class="st9" d="M63.3,225.1l-0.5,1c0,0.1-0.1,0.1-0.2,0.1c-0.1,0-0.1-0.1-0.1-0.2l0.5-1c0-0.1,0.1-0.1,0.2-0.1
						C63.3,224.9,63.4,225,63.3,225.1L63.3,225.1z"/>
				</g>
				<g>
					<path class="st9" d="M61.5,229.1l-0.4,1c0,0.1-0.1,0.1-0.2,0.1c-0.1,0-0.1-0.1-0.1-0.2l0.4-1c0-0.1,0.1-0.1,0.2-0.1
						C61.5,228.9,61.6,229,61.5,229.1C61.5,229.1,61.5,229.1,61.5,229.1z"/>
				</g>
				<g>
					<path class="st9" d="M59.9,233.2l-0.4,1c0,0.1-0.1,0.1-0.2,0.1c-0.1,0-0.1-0.1-0.1-0.2l0.4-1c0-0.1,0.1-0.1,0.2-0.1
						C59.9,233.1,60,233.1,59.9,233.2L59.9,233.2z"/>
				</g>
				<g>
					<path class="st9" d="M58.5,237.4l-0.3,1.1c0,0.1-0.1,0.1-0.1,0.1c-0.1,0-0.1-0.1-0.1-0.1l0.3-1.1c0-0.1,0.1-0.1,0.1-0.1
						C58.5,237.3,58.6,237.3,58.5,237.4L58.5,237.4z"/>
				</g>
				<g>
					<path class="st9" d="M57.4,241.7l-0.3,1.1c0,0.1-0.1,0.1-0.1,0.1c-0.1,0-0.1-0.1-0.1-0.1l0.3-1.1c0-0.1,0.1-0.1,0.1-0.1
						C57.3,241.5,57.4,241.6,57.4,241.7L57.4,241.7z"/>
				</g>
				<g>
					<path class="st9" d="M56.4,246l-0.2,1.1c0,0.1-0.1,0.1-0.1,0.1c-0.1,0-0.1-0.1-0.1-0.1l0.2-1.1c0-0.1,0.1-0.1,0.1-0.1
						C56.4,245.9,56.4,245.9,56.4,246L56.4,246z"/>
				</g>
				<g>
					<path class="st9" d="M55.6,250.3l-0.2,1.1c0,0,0,0.1-0.1,0.1c0,0-0.1,0-0.1-0.1l0.2-1.1C55.5,250.3,55.5,250.2,55.6,250.3
						C55.6,250.2,55.6,250.3,55.6,250.3L55.6,250.3z"/>
				</g>
				<g>
					<path class="st9" d="M55.1,254.7l-0.1,1.1c0,0,0,0.1-0.1,0.1c0,0-0.1,0-0.1-0.1l0.1-1.1C54.9,254.7,55,254.6,55.1,254.7
						C55.1,254.6,55.1,254.7,55.1,254.7L55.1,254.7z"/>
				</g>
				<g>
					<path class="st9" d="M54.7,259.1l-0.1,1.1c0,0,0,0.1-0.1,0.1c0,0-0.1,0-0.1-0.1l0-1.1C54.6,259.1,54.6,259.1,54.7,259.1
						C54.7,259.1,54.7,259.1,54.7,259.1L54.7,259.1z"/>
				</g>
			</g>
			<g>
				<path class="st9" d="M233.7,396.5l-0.3-0.8c-8.6-25.7-20.2-50.9-34.5-74.9c-11.4-19.2-24.6-37.6-39.1-54.9
					c-24.7-29.3-45.2-45-45.4-45.2l-0.7-0.5l0.9,0.2c0.3,0.1,34.7,8.6,66.4,34.4c18.6,15.1,32.7,33.2,41.8,53.6
					c11.4,25.5,15.1,54.9,10.9,87.2L233.7,396.5z M115.4,221c3.8,3,22.5,18.4,44.7,44.7c14.5,17.2,27.7,35.7,39.2,54.9
					c14.2,23.8,25.7,48.7,34.2,74.2c4-32,0.3-61-11-86.2c-9.1-20.4-23.1-38.4-41.7-53.5C152,231.7,120.9,222.5,115.4,221z"/>
			</g>
			<g>
				<path class="st9" d="M210.6,398.7c-30.7,0-59.6-11.9-81.4-33.4c-21.7-21.5-33.7-50.2-33.7-80.6s12-59.1,33.7-80.6
					c21.7-21.5,50.6-33.4,81.4-33.4s59.6,11.9,81.4,33.4c21.7,21.5,33.7,50.2,33.7,80.6s-12,59.1-33.7,80.6
					C270.3,386.9,241.4,398.7,210.6,398.7z M210.6,171c-30.6,0-59.4,11.8-81.1,33.3c-21.7,21.5-33.6,50-33.6,80.4
					s11.9,58.9,33.6,80.4c21.7,21.5,50.5,33.3,81.1,33.3s59.4-11.8,81.1-33.3c21.7-21.5,33.6-50,33.6-80.4s-11.9-58.9-33.6-80.4
					C270.1,182.8,241.3,171,210.6,171z"/>
			</g>
			<g>
				<path class="st9" d="M167.1,419.6c-28.9,0-56.1-11-76.5-31.1c-20.4-20-31.7-46.7-31.7-75s11.3-55,31.7-75
					c20.4-20,47.6-31.1,76.5-31.1s56.1,11,76.5,31.1c20.4,20,31.7,46.7,31.7,75s-11.3,55-31.7,75C223.2,408.6,196,419.6,167.1,419.6
					z M167.1,207.8c-28.8,0-55.9,11-76.3,31c-20.4,20-31.6,46.5-31.6,74.8s11.2,54.8,31.6,74.8c20.4,20,47.4,31,76.3,31
					s55.9-11,76.3-31c20.4-20,31.6-46.5,31.6-74.8s-11.2-54.8-31.6-74.8C223,218.8,195.9,207.8,167.1,207.8z"/>
			</g>
			<g>
				<path class="st9" d="M133.8,450.5c-31.8,0-61.7-12-84.2-33.8C27.1,395,14.7,366,14.7,335.2c0-30.8,12.4-59.8,34.9-81.6
					c22.5-21.8,52.4-33.8,84.2-33.8s61.7,12,84.2,33.8c22.5,21.8,34.9,50.8,34.9,81.6c0,30.8-12.4,59.8-34.9,81.6
					C195.6,438.5,165.7,450.5,133.8,450.5z M133.8,220.1c-31.7,0-61.5,12-84,33.7c-22.4,21.7-34.8,50.6-34.8,81.3
					c0,30.7,12.4,59.6,34.8,81.3c22.4,21.7,52.2,33.7,84,33.7s61.5-12,84-33.7c22.4-21.7,34.8-50.6,34.8-81.3
					c0-30.7-12.4-59.6-34.8-81.3C195.4,232.1,165.6,220.1,133.8,220.1z"/>
			</g>
			<g>
				<path class="st9" d="M104.4,364.6c-27.1,0-52.5-10.4-71.7-29.3c-19.1-18.9-29.7-44-29.7-70.7c0-26.7,10.5-51.8,29.7-70.7
					c19.1-18.9,44.6-29.3,71.7-29.3s52.5,10.4,71.7,29.3c19.1,18.9,29.7,44,29.7,70.7c0,26.7-10.5,51.8-29.7,70.7
					C156.9,354.2,131.5,364.6,104.4,364.6z M104.4,165.1c-27,0-52.3,10.4-71.4,29.2C14,213,3.5,238.1,3.5,264.7S14,316.3,33,335.1
					c19.1,18.8,44.4,29.2,71.4,29.2s52.3-10.4,71.4-29.2c19.1-18.8,29.6-43.8,29.6-70.4s-10.5-51.6-29.6-70.4
					C156.8,175.4,131.4,165.1,104.4,165.1z"/>
			</g>
			<g>
				<path class="st9" d="M283,409.9c-2.2,0-4.5-0.1-6.8-0.3c-14.5-1.2-29.7-6.1-45.3-14.7c-32.1-17.5-62-48.2-84.4-86.4
					c-22.3-38.2-34.4-79.4-34-115.9c0.2-17.8,3.4-33.5,9.4-46.7c6.3-13.7,15.3-24.1,27-30.9c11.6-6.8,25.1-9.6,40.1-8.4
					c14.5,1.2,29.7,6.1,45.3,14.7c32.1,17.5,62,48.2,84.4,86.4c22.3,38.2,34.4,79.4,34,115.9c-0.2,17.8-3.4,33.5-9.4,46.7
					c-6.3,13.7-15.3,24.1-27,30.9C306.5,407,295.3,409.9,283,409.9z M146.8,308.3c22.3,38.1,52.2,68.8,84.2,86.3
					c15.5,8.5,30.7,13.4,45.2,14.6c14.9,1.3,28.3-1.5,39.9-8.3c11.6-6.8,20.6-17.1,26.8-30.7c6-13.2,9.2-28.8,9.4-46.5
					c0.4-36.5-11.6-77.5-33.9-115.7c-22.3-38.1-52.2-68.8-84.2-86.3c-15.5-8.5-30.7-13.4-45.2-14.6c-14.9-1.2-28.3,1.5-39.9,8.3
					c-11.6,6.8-20.6,17.1-26.8,30.7c-6,13.2-9.2,28.8-9.4,46.5C112.5,229.1,124.5,270.2,146.8,308.3z"/>
			</g>
			<g>
				
					<rect x="194.3" y="185.7" transform="matrix(0.8217 0.5699 -0.5699 0.8217 142.9105 -77.0089)" class="st9" width="0.4" height="8.4"/>
			</g>
			<g>
				
					<rect x="200.8" y="190.4" transform="matrix(0.766 0.6429 -0.6429 0.766 172.1529 -83.6534)" class="st9" width="0.4" height="8.4"/>
			</g>
			<g>
				
					<rect x="206.5" y="195.5" transform="matrix(0.6973 0.7168 -0.7168 0.6973 205.707 -87.7287)" class="st9" width="0.4" height="8.4"/>
			</g>
			<g>
				
					<rect x="212" y="201.1" transform="matrix(0.6503 0.7597 -0.7597 0.6503 230.196 -89.3507)" class="st9" width="0.4" height="8.4"/>
			</g>
			<g>
				
					<rect x="216.9" y="207.4" transform="matrix(0.5664 0.8242 -0.8242 0.5664 268.5518 -87.1913)" class="st9" width="0.4" height="8.4"/>
			</g>
			<g>
				
					<rect x="221.2" y="213.8" transform="matrix(0.4896 0.8719 -0.8719 0.4896 303.0246 -81.8253)" class="st9" width="0.4" height="8.3"/>
			</g>
			<g>
				
					<rect x="225" y="220.8" transform="matrix(0.4527 0.8917 -0.8917 0.4527 323.873 -77.6309)" class="st9" width="0.4" height="8.4"/>
			</g>
			<g>
				
					<rect x="228" y="227.7" transform="matrix(0.3845 0.9231 -0.9231 0.3845 354.5581 -67.8785)" class="st9" width="0.4" height="8.4"/>
			</g>
			<g>
				
					<rect x="230.5" y="235.3" transform="matrix(0.2927 0.9562 -0.9562 0.2927 392.1779 -51.1949)" class="st9" width="0.4" height="8.4"/>
			</g>
			<g>
				
					<rect x="232.3" y="242.7" transform="matrix(0.2264 0.974 -0.974 0.2264 420.3358 -35.3952)" class="st9" width="0.4" height="8.4"/>
			</g>
			<g>
				
					<rect x="233.6" y="250.7" transform="matrix(9.969727e-02 0.995 -0.995 9.969727e-02 463.9502 -3.2986)" class="st9" width="0.4" height="8"/>
			</g>
			<g>
				
					<rect x="233.8" y="258.6" transform="matrix(1.952753e-02 0.9998 -0.9998 1.952753e-02 492.2509 23.7236)" class="st9" width="0.4" height="8.4"/>
			</g>
			<g>
				
					<rect x="229.6" y="270.2" transform="matrix(0.9962 8.707420e-02 -8.707420e-02 0.9962 24.4353 -19.3227)" class="st9" width="8.3" height="0.4"/>
			</g>
			<g>
				
					<rect x="228.7" y="277.7" transform="matrix(0.9843 0.1767 -0.1767 0.9843 52.7645 -36.7741)" class="st9" width="8.4" height="0.4"/>
			</g>
			<g>
				
					<rect x="227.1" y="285.5" transform="matrix(0.9725 0.2328 -0.2328 0.9725 72.8522 -45.9894)" class="st9" width="8.4" height="0.4"/>
			</g>
			<g>
				
					<rect x="224.8" y="292.9" transform="matrix(0.9421 0.3354 -0.3354 0.9421 111.5685 -59.8377)" class="st9" width="8.4" height="0.4"/>
			</g>
			<g>
				
					<rect x="221.9" y="300.1" transform="matrix(0.9105 0.4135 -0.4135 0.9105 144.372 -66.5958)" class="st9" width="8.3" height="0.4"/>
			</g>
			<g>
				
					<rect x="218.4" y="306.9" transform="matrix(0.8884 0.4592 -0.4592 0.8884 165.871 -67.9534)" class="st9" width="8.4" height="0.4"/>
			</g>
			<g>
				
					<rect x="214.4" y="313.5" transform="matrix(0.8292 0.5589 -0.5589 0.8292 212.6541 -68.6083)" class="st9" width="8.4" height="0.4"/>
			</g>
			<g>
				
					<rect x="209.8" y="319.6" transform="matrix(0.797 0.604 -0.604 0.797 236.603 -64.3222)" class="st9" width="8.4" height="0.4"/>
			</g>
			<g>
				
					<rect x="204.6" y="325.3" transform="matrix(0.7258 0.6879 -0.6879 0.7258 281.1896 -54.422)" class="st9" width="8.4" height="0.4"/>
			</g>
			<g>
				
					<rect x="198.9" y="330.7" transform="matrix(0.7013 0.7128 -0.7128 0.7013 296.5426 -45.984)" class="st9" width="8.5" height="0.4"/>
			</g>
			<g>
				
					<rect x="192.7" y="335.6" transform="matrix(0.6186 0.7857 -0.7857 0.6186 338.9205 -26.707)" class="st9" width="8.4" height="0.4"/>
			</g>
			<g>
				
					<rect x="186.4" y="339.7" transform="matrix(0.5252 0.851 -0.851 0.5252 379.7735 -0.8216)" class="st9" width="8.4" height="0.4"/>
			</g>
			<g>
				
					<rect x="179.4" y="343.5" transform="matrix(0.4533 0.8913 -0.8913 0.4533 406.684 24.2329)" class="st9" width="8.4" height="0.4"/>
			</g>
			<g>
				
					<rect x="172.3" y="346.5" transform="matrix(0.3653 0.9309 -0.9309 0.3653 434.754 55.7605)" class="st9" width="8.4" height="0.4"/>
			</g>
			<g>
				
					<rect x="164.8" y="348.9" transform="matrix(0.272 0.9623 -0.9623 0.272 458.9754 91.4892)" class="st9" width="8.4" height="0.4"/>
			</g>
			<g>
				
					<rect x="157.2" y="350.7" transform="matrix(0.1638 0.9865 -0.9865 0.1638 481.0582 134.1465)" class="st9" width="8.4" height="0.4"/>
			</g>
			<g>
				
					<rect x="149.6" y="351.7" transform="matrix(9.958843e-02 0.995 -0.995 9.958843e-02 488.6125 163.8317)" class="st9" width="8.4" height="0.4"/>
			</g>
			<g>
				
					<rect x="142" y="352.1" transform="matrix(2.792493e-02 0.9996 -0.9996 2.792493e-02 494.3187 196.2488)" class="st9" width="8.4" height="0.4"/>
			</g>
			<g>
				
					<rect x="138.3" y="347.7" transform="matrix(0.9991 4.292914e-02 -4.292914e-02 0.9991 15.2373 -5.6209)" class="st9" width="0.4" height="8.5"/>
			</g>
			<g>
				
					<rect x="130.9" y="346.9" transform="matrix(0.9911 0.1329 -0.1329 0.9911 47.8403 -14.31)" class="st9" width="0.4" height="8.4"/>
			</g>
			<g>
				
					<rect x="123.3" y="345.3" transform="matrix(0.9662 0.2577 -0.2577 0.9662 94.2404 -20.0264)" class="st9" width="0.4" height="8.4"/>
			</g>
			<g>
				
					<rect x="115.9" y="343.1" transform="matrix(0.9412 0.3378 -0.3378 0.9412 124.1986 -18.7887)" class="st9" width="0.4" height="8.7"/>
			</g>
			<g>
				
					<rect x="108.8" y="340.2" transform="matrix(0.9095 0.4157 -0.4157 0.9095 153.0549 -14.1137)" class="st9" width="0.4" height="8.4"/>
			</g>
			<g>
				
					<rect x="102" y="336.8" transform="matrix(0.8685 0.4957 -0.4957 0.8685 182.483 -5.7826)" class="st9" width="0.4" height="8.4"/>
			</g>
			<g>
				
					<rect x="95.3" y="332.7" transform="matrix(0.8266 0.5628 -0.5628 0.8266 206.1798 4.6615)" class="st9" width="0.4" height="8.4"/>
			</g>
			<g>
				
					<rect x="89.1" y="328" transform="matrix(0.7632 0.6461 -0.6461 0.7632 235.8285 20.965)" class="st9" width="0.4" height="8.4"/>
			</g>
			<g>
				
					<rect x="83.3" y="322.8" transform="matrix(0.7349 0.6782 -0.6782 0.7349 243.9194 30.1013)" class="st9" width="0.4" height="8.4"/>
			</g>
			<g>
				
					<rect x="78.2" y="317.4" transform="matrix(0.6586 0.7525 -0.7525 0.6586 268.7878 50.8099)" class="st9" width="0.4" height="8.4"/>
			</g>
			<g>
				
					<rect x="73.5" y="311.4" transform="matrix(0.6149 0.7886 -0.7886 0.6149 277.2889 63.4919)" class="st9" width="0.4" height="8.4"/>
			</g>
			<g>
				
					<rect x="69.3" y="305.2" transform="matrix(0.5296 0.8482 -0.8482 0.5296 295.1767 86.5825)" class="st9" width="0.4" height="8.4"/>
			</g>
			<g>
				
					<rect x="65.5" y="298.2" transform="matrix(0.4299 0.9029 -0.9029 0.4299 310.5236 113.0915)" class="st9" width="0.4" height="8.4"/>
			</g>
			<g>
				
					<rect x="62.5" y="291.2" transform="matrix(0.3453 0.9385 -0.9385 0.3453 318.2407 134.5972)" class="st9" width="0.4" height="8.4"/>
			</g>
			<g>
				
					<rect x="60" y="284" transform="matrix(0.2517 0.9678 -0.9678 0.2517 323.9631 157.3534)" class="st9" width="0.4" height="8.4"/>
			</g>
			<g>
				
					<rect x="58.2" y="276.5" transform="matrix(0.1935 0.9811 -0.9811 0.1935 322.4935 169.0517)" class="st9" width="0.4" height="8.4"/>
			</g>
			<g>
				
					<rect x="57.1" y="268.7" transform="matrix(0.1339 0.991 -0.991 0.1339 320.0889 179.6416)" class="st9" width="0.4" height="8.4"/>
			</g>
			<g>
				<rect x="52.6" y="265.2" class="st9" width="8.4" height="0.4"/>
			</g>
			<g>
				
					<rect x="52.8" y="257.4" transform="matrix(0.9973 7.396308e-02 -7.396308e-02 0.9973 19.211 -3.5099)" class="st9" width="8.4" height="0.4"/>
			</g>
			<g>
				
					<rect x="53.7" y="249.4" transform="matrix(0.9763 0.2165 -0.2165 0.9763 55.4125 -6.6142)" class="st9" width="8.5" height="0.4"/>
			</g>
			<g>
				
					<rect x="55.2" y="241.9" transform="matrix(0.9568 0.2909 -0.2909 0.9568 72.9884 -6.824)" class="st9" width="8.5" height="0.4"/>
			</g>
			<g>
				
					<rect x="57.3" y="234.7" transform="matrix(0.9247 0.3808 -0.3808 0.9247 94.0849 -5.745)" class="st9" width="8.5" height="0.4"/>
			</g>
			<g>
				
					<rect x="60.3" y="227.3" transform="matrix(0.8909 0.4542 -0.4542 0.8909 110.3695 -4.4712)" class="st9" width="8.5" height="0.4"/>
			</g>
			<g>
				
					<rect x="63.5" y="220.7" transform="matrix(0.8477 0.5305 -0.5305 0.8477 127.5165 -2.3011)" class="st9" width="8.5" height="0.4"/>
			</g>
			<g>
				
					<rect x="67.7" y="213.9" transform="matrix(0.8126 0.5829 -0.5829 0.8126 138.2849 -1.7891)" class="st9" width="8.4" height="0.4"/>
			</g>
			<g>
				
					<rect x="72.1" y="208" transform="matrix(0.7786 0.6275 -0.6275 0.7786 147.5167 -1.8161)" class="st9" width="8.4" height="0.4"/>
			</g>
			<g>
				
					<rect x="77.2" y="202.2" transform="matrix(0.7014 0.7128 -0.7128 0.7014 168.612 2.3747)" class="st9" width="8.6" height="0.4"/>
			</g>
			<g>
				
					<rect x="82.7" y="196.9" transform="matrix(0.6636 0.748 -0.748 0.6636 176.6684 1.269)" class="st9" width="8.4" height="0.4"/>
			</g>
			<g>
				
					<rect x="88.6" y="192.1" transform="matrix(0.5901 0.8073 -0.8073 0.5901 193.3147 3.8862)" class="st9" width="8.4" height="0.4"/>
			</g>
			<g>
				
					<rect x="94.8" y="188" transform="matrix(0.5072 0.8619 -0.8619 0.5072 210.9557 7.4019)" class="st9" width="8.4" height="0.4"/>
			</g>
			<g>
				
					<rect x="101.5" y="184.2" transform="matrix(0.4617 0.887 -0.887 0.4617 220.486 5.4858)" class="st9" width="8.4" height="0.4"/>
			</g>
			<g>
				
					<rect x="108.3" y="181.1" transform="matrix(0.3959 0.9183 -0.9183 0.3959 234.5186 6.1783)" class="st9" width="8.4" height="0.4"/>
			</g>
			<g>
				
					<rect x="115.4" y="178.7" transform="matrix(0.3175 0.9483 -0.9483 0.3175 251.2596 8.6166)" class="st9" width="8.4" height="0.4"/>
			</g>
			<g>
				
					<rect x="122.6" y="176.8" transform="matrix(0.2252 0.9743 -0.9743 0.2252 270.7155 13.5942)" class="st9" width="8.4" height="0.4"/>
			</g>
			<g>
				
					<rect x="130.3" y="175.5" transform="matrix(9.094051e-02 0.9959 -0.9959 9.094051e-02 297.2365 25.8128)" class="st9" width="8.4" height="0.4"/>
			</g>
			<g>
				
					<rect x="157.7" y="171.7" transform="matrix(0.9841 0.1777 -0.1777 0.9841 33.7705 -25.2569)" class="st9" width="0.4" height="8.4"/>
			</g>
			<g>
				
					<rect x="165.5" y="173.1" transform="matrix(0.9585 0.285 -0.285 0.9585 57.4258 -39.8602)" class="st9" width="0.4" height="8.5"/>
			</g>
			<g>
				
					<rect x="173.2" y="175.3" transform="matrix(0.9294 0.369 -0.369 0.9294 78.5041 -51.32)" class="st9" width="0.4" height="8.5"/>
			</g>
			<g>
				
					<rect x="180.6" y="178.2" transform="matrix(0.8944 0.4472 -0.4472 0.8944 100.655 -61.597)" class="st9" width="0.4" height="8.5"/>
			</g>
			<g>
				
					<rect x="187.6" y="181.6" transform="matrix(0.8728 0.4881 -0.4881 0.8728 114.594 -68.0231)" class="st9" width="0.4" height="8.4"/>
			</g>
		</g>
	</g>
</g>
<g id="Layer_2">
</g>
<g id="Layer_3">
</g>
<g id="Layer_5">
</g>
<g id="Layer_6">
</g>
</svg>
