<?xml version="1.0" encoding="utf-8"?>
<!-- Generator: Adobe Illustrator 19.1.0, SVG Export Plug-In . SVG Version: 6.00 Build 0)  -->
<svg version="1.1" xmlns="http://www.w3.org/2000/svg" xmlns:xlink="http://www.w3.org/1999/xlink" x="0px" y="0px"
	 viewBox="0 0 360 540" style="enable-background:new 0 0 360 540;" xml:space="preserve">
<style type="text/css">
	.st0{display:none;}
	.st1{display:inline;fill:#666766;}
	.st2{fill:none;stroke:#000000;stroke-miterlimit:10;}
	.st3{fill:none;stroke:#CCCCCC;stroke-miterlimit:10;}
	.st4{fill:#CCCCCC;}
	.st5{fill:none;stroke:#CCCCCC;stroke-width:3;stroke-miterlimit:10;}
	.st6{fill:none;stroke:#CCCCCC;stroke-width:2;stroke-miterlimit:10;}
	.st7{fill:none;stroke:#FFFFFF;stroke-width:7;stroke-miterlimit:10;}
	.st8{fill:none;stroke:#FFFFFF;stroke-miterlimit:10;}
	.st9{fill:#FFFFFF;}
	.st10{fill:none;}
	.st11{fill:none;stroke:#CCCCCC;stroke-miterlimit:10;stroke-dasharray:12,12;}
	.st12{clip-path:url(#SVGID_2_);fill:none;stroke:#CCCCCC;stroke-miterlimit:10;}
	.st13{clip-path:url(#SVGID_2_);fill:none;stroke:#CCCCCC;stroke-width:7;stroke-miterlimit:10;}
	.st14{clip-path:url(#SVGID_2_);}
	.st15{clip-path:url(#SVGID_2_);fill:#CCCCCC;}
	.st16{clip-path:url(#SVGID_2_);fill:none;stroke:#CCCCCC;stroke-miterlimit:10;stroke-dasharray:12,12;}
	.st17{fill:#010101;stroke:#FFFFFF;stroke-width:2;stroke-miterlimit:10;}
	.st18{fill:#010101;}
	.st19{fill:none;stroke:#FFFFFF;stroke-width:2;stroke-miterlimit:10;}
	.st20{fill:none;stroke:#CCCCCC;stroke-width:2;stroke-miterlimit:10;stroke-dasharray:12;}
	.st21{fill:none;stroke:#CCCCCC;stroke-width:7;stroke-miterlimit:10;}
	.st22{clip-path:url(#SVGID_4_);fill:none;stroke:#FFFFFF;stroke-miterlimit:10;}
	.st23{clip-path:url(#SVGID_4_);}
	.st24{fill:none;stroke:#000000;stroke-width:7;stroke-miterlimit:10;}
	.st25{clip-path:url(#SVGID_6_);}
	.st26{fill:none;stroke:#FFFFFF;stroke-miterlimit:10;stroke-dasharray:12,12;}
</style>
<g id="Layer_4" class="st0">
</g>
<g id="Layer_1">
</g>
<g id="Layer_2">
</g>
<g id="Layer_3">
	<g>
		<line class="st7" x1="182.6" y1="116.3" x2="182.6" y2="166.4"/>
		<path class="st8" d="M101.5,334.4c0.8,0,81.5,28,81.5,28l56.5-36.6l-79.3-30.4L101.5,334.4z"/>
		<path class="st8" d="M101.5,88.6c0.8,0,81.5,28,81.5,28L239.4,80l-79.3-30.4L101.5,88.6z"/>
		<path class="st8" d="M182.9,373.9c0,0-0.7,115.7,0.1,116.5c0.8,0.8,56.5-37,56.5-37V325.8"/>
		<polyline class="st8" points="101.5,88.6 179.6,210.2 239.4,80 		"/>
		<g>
			<polygon class="st9" points="239.7,326.1 201,265.9 200.6,266.2 239.2,326.4 			"/>
			<polygon class="st9" points="101.2,334.8 101.7,335 135.5,261.4 135,261.1 			"/>
		</g>
		<g>
			<defs>
				<polygon id="SVGID_3_" points="175.4,141.4 58.7,233.2 184,279.1 301.3,187.6 				"/>
			</defs>
			<clipPath id="SVGID_2_">
				<use xlink:href="#SVGID_3_"  style="overflow:visible;"/>
			</clipPath>
			<polygon style="clip-path:url(#SVGID_2_);fill:none;stroke:#FFFFFF;stroke-miterlimit:10;" points="175.4,141.4 58.7,233.2 
				135,261.1 134,260.7 135,261.1 184,279.1 301.3,187.6 			"/>
			
				<line style="clip-path:url(#SVGID_2_);fill:none;stroke:#FFFFFF;stroke-miterlimit:10;" x1="63.2" y1="235" x2="180.1" y2="143.2"/>
			
				<line style="clip-path:url(#SVGID_2_);fill:none;stroke:#FFFFFF;stroke-miterlimit:10;" x1="67.4" y1="236.5" x2="184.2" y2="144.7"/>
			
				<line style="clip-path:url(#SVGID_2_);fill:none;stroke:#FFFFFF;stroke-miterlimit:10;" x1="71.5" y1="238" x2="188.4" y2="146.2"/>
			
				<line style="clip-path:url(#SVGID_2_);fill:none;stroke:#FFFFFF;stroke-miterlimit:10;" x1="75.7" y1="239.5" x2="192.5" y2="147.8"/>
			
				<line style="clip-path:url(#SVGID_2_);fill:none;stroke:#FFFFFF;stroke-miterlimit:10;" x1="79.8" y1="241" x2="196.7" y2="149.3"/>
			
				<line style="clip-path:url(#SVGID_2_);fill:none;stroke:#FFFFFF;stroke-miterlimit:10;" x1="84" y1="242.6" x2="200.8" y2="150.8"/>
			
				<line style="clip-path:url(#SVGID_2_);fill:none;stroke:#FFFFFF;stroke-miterlimit:10;" x1="88.1" y1="244.1" x2="205" y2="152.3"/>
			
				<line style="clip-path:url(#SVGID_2_);fill:none;stroke:#FFFFFF;stroke-miterlimit:10;" x1="92.3" y1="245.6" x2="209.1" y2="153.8"/>
			
				<line style="clip-path:url(#SVGID_2_);fill:none;stroke:#FFFFFF;stroke-miterlimit:10;" x1="96.4" y1="247.1" x2="213.3" y2="155.4"/>
			
				<line style="clip-path:url(#SVGID_2_);fill:none;stroke:#FFFFFF;stroke-miterlimit:10;" x1="100.6" y1="248.6" x2="217.4" y2="156.9"/>
			
				<line style="clip-path:url(#SVGID_2_);fill:none;stroke:#FFFFFF;stroke-miterlimit:10;" x1="104.7" y1="250.2" x2="221.6" y2="158.4"/>
			
				<line style="clip-path:url(#SVGID_2_);fill:none;stroke:#FFFFFF;stroke-miterlimit:10;" x1="108.9" y1="251.7" x2="225.7" y2="159.9"/>
			
				<line style="clip-path:url(#SVGID_2_);fill:none;stroke:#FFFFFF;stroke-miterlimit:10;" x1="113" y1="253.2" x2="229.9" y2="161.4"/>
			
				<line style="clip-path:url(#SVGID_2_);fill:none;stroke:#FFFFFF;stroke-miterlimit:10;" x1="116.8" y1="254" x2="234.3" y2="163.2"/>
			
				<line style="clip-path:url(#SVGID_2_);fill:none;stroke:#FFFFFF;stroke-miterlimit:10;" x1="120.9" y1="255.6" x2="238.5" y2="164.8"/>
			
				<line style="clip-path:url(#SVGID_2_);fill:none;stroke:#FFFFFF;stroke-miterlimit:10;" x1="125.1" y1="257.1" x2="242.6" y2="166.3"/>
			
				<line style="clip-path:url(#SVGID_2_);fill:none;stroke:#FFFFFF;stroke-miterlimit:10;" x1="129.2" y1="258.7" x2="246.7" y2="167.9"/>
			
				<line style="clip-path:url(#SVGID_2_);fill:none;stroke:#FFFFFF;stroke-miterlimit:10;" x1="133.3" y1="260.2" x2="250.9" y2="169.4"/>
			
				<line style="clip-path:url(#SVGID_2_);fill:none;stroke:#FFFFFF;stroke-miterlimit:10;" x1="137.5" y1="261.8" x2="255" y2="171"/>
			
				<line style="clip-path:url(#SVGID_2_);fill:none;stroke:#FFFFFF;stroke-miterlimit:10;" x1="141.6" y1="263.3" x2="259.2" y2="172.5"/>
			
				<line style="clip-path:url(#SVGID_2_);fill:none;stroke:#FFFFFF;stroke-miterlimit:10;" x1="145.8" y1="264.9" x2="263.3" y2="174.1"/>
			
				<line style="clip-path:url(#SVGID_2_);fill:none;stroke:#FFFFFF;stroke-miterlimit:10;" x1="149.9" y1="266.5" x2="267.4" y2="175.6"/>
			
				<line style="clip-path:url(#SVGID_2_);fill:none;stroke:#FFFFFF;stroke-miterlimit:10;" x1="154" y1="268" x2="271.6" y2="177.2"/>
			
				<line style="clip-path:url(#SVGID_2_);fill:none;stroke:#FFFFFF;stroke-miterlimit:10;" x1="158.2" y1="269.6" x2="275.7" y2="178.7"/>
			
				<line style="clip-path:url(#SVGID_2_);fill:none;stroke:#FFFFFF;stroke-miterlimit:10;" x1="162.3" y1="271.1" x2="279.8" y2="180.3"/>
			
				<line style="clip-path:url(#SVGID_2_);fill:none;stroke:#FFFFFF;stroke-miterlimit:10;" x1="166.4" y1="272.7" x2="284" y2="181.8"/>
			
				<line style="clip-path:url(#SVGID_2_);fill:none;stroke:#FFFFFF;stroke-miterlimit:10;" x1="170" y1="274.4" x2="288.2" y2="184.5"/>
			
				<line style="clip-path:url(#SVGID_2_);fill:none;stroke:#FFFFFF;stroke-miterlimit:10;" x1="174.1" y1="276" x2="292.4" y2="186.1"/>
			
				<line style="clip-path:url(#SVGID_2_);fill:none;stroke:#FFFFFF;stroke-miterlimit:10;" x1="178.2" y1="277.6" x2="296.5" y2="187.7"/>
			<g class="st14">
				<line class="st8" x1="12.1" y1="71" x2="235.1" y2="152.6"/>
				<line class="st8" x1="15.3" y1="77.4" x2="238.3" y2="158.9"/>
				<line class="st8" x1="18.5" y1="83.7" x2="241.4" y2="165.3"/>
				<line class="st8" x1="21.6" y1="90.1" x2="244.6" y2="171.6"/>
				<line class="st8" x1="24.8" y1="96.4" x2="247.7" y2="177.9"/>
				<line class="st8" x1="27.9" y1="102.7" x2="250.9" y2="184.3"/>
				<line class="st8" x1="31.1" y1="109.1" x2="254" y2="190.6"/>
				<line class="st8" x1="34.2" y1="115.4" x2="257.2" y2="197"/>
				<line class="st8" x1="37.4" y1="121.8" x2="260.4" y2="203.3"/>
				<line class="st8" x1="40.6" y1="128.1" x2="263.5" y2="209.6"/>
				<line class="st8" x1="43.7" y1="134.4" x2="266.7" y2="216"/>
				<line class="st8" x1="46.9" y1="140.8" x2="269.8" y2="222.3"/>
				<line class="st8" x1="50" y1="147.1" x2="273" y2="228.7"/>
				<line class="st8" x1="53.2" y1="153.5" x2="276.2" y2="235"/>
				<line class="st8" x1="56.4" y1="159.8" x2="279.3" y2="241.3"/>
				<line class="st8" x1="59.5" y1="166.1" x2="282.5" y2="247.7"/>
				<line class="st8" x1="62.7" y1="172.5" x2="285.6" y2="254"/>
				<line class="st8" x1="65.8" y1="178.8" x2="288.8" y2="260.4"/>
				<line class="st8" x1="69" y1="185.2" x2="292" y2="266.7"/>
				<line class="st8" x1="72.2" y1="191.5" x2="295.1" y2="273"/>
				<line class="st8" x1="75.3" y1="197.8" x2="298.3" y2="279.4"/>
				<line class="st8" x1="78.5" y1="204.2" x2="301.4" y2="285.7"/>
				<line class="st8" x1="81.6" y1="210.5" x2="304.6" y2="292.1"/>
				<line class="st8" x1="84.8" y1="216.8" x2="307.8" y2="298.4"/>
				<line class="st8" x1="88" y1="223.2" x2="310.9" y2="304.7"/>
				<line class="st8" x1="91.1" y1="229.5" x2="314.1" y2="311.1"/>
				<line class="st8" x1="94.3" y1="235.9" x2="317.2" y2="317.4"/>
				<line class="st8" x1="97.4" y1="242.2" x2="320.4" y2="323.8"/>
				<line class="st8" x1="100.6" y1="248.5" x2="323.6" y2="330.1"/>
			</g>
		</g>
	</g>
</g>
<g id="Layer_5">
</g>
<g id="Layer_6">
</g>
</svg>
