<?xml version="1.0" encoding="utf-8"?>
<!-- Generator: Adobe Illustrator 19.1.0, SVG Export Plug-In . SVG Version: 6.00 Build 0)  -->
<svg version="1.1" xmlns="http://www.w3.org/2000/svg" xmlns:xlink="http://www.w3.org/1999/xlink" x="0px" y="0px"
	 viewBox="0 0 360 540" style="enable-background:new 0 0 360 540;" xml:space="preserve">
<style type="text/css">
	.st0{display:none;}
	.st1{display:inline;fill:#666766;}
	.st2{fill:none;stroke:#000000;stroke-miterlimit:10;}
	.st3{fill:none;stroke:#CCCCCC;stroke-miterlimit:10;}
	.st4{fill:#CCCCCC;}
	.st5{fill:none;stroke:#CCCCCC;stroke-width:3;stroke-miterlimit:10;}
	.st6{fill:none;stroke:#CCCCCC;stroke-width:2;stroke-miterlimit:10;}
	.st7{fill:none;stroke:#FFFFFF;stroke-width:7;stroke-miterlimit:10;}
	.st8{fill:none;stroke:#FFFFFF;stroke-miterlimit:10;}
	.st9{fill:#FFFFFF;}
	.st10{fill:none;}
	.st11{fill:none;stroke:#CCCCCC;stroke-miterlimit:10;stroke-dasharray:12,12;}
	.st12{clip-path:url(#SVGID_2_);fill:none;stroke:#CCCCCC;stroke-miterlimit:10;}
	.st13{clip-path:url(#SVGID_2_);fill:none;stroke:#CCCCCC;stroke-width:7;stroke-miterlimit:10;}
	.st14{clip-path:url(#SVGID_2_);}
	.st15{clip-path:url(#SVGID_2_);fill:#CCCCCC;}
	.st16{clip-path:url(#SVGID_2_);fill:none;stroke:#CCCCCC;stroke-miterlimit:10;stroke-dasharray:12,12;}
	.st17{fill:#010101;stroke:#FFFFFF;stroke-width:2;stroke-miterlimit:10;}
	.st18{fill:#010101;}
	.st19{fill:none;stroke:#FFFFFF;stroke-width:2;stroke-miterlimit:10;}
	.st20{fill:none;stroke:#CCCCCC;stroke-width:2;stroke-miterlimit:10;stroke-dasharray:12;}
	.st21{fill:none;stroke:#CCCCCC;stroke-width:7;stroke-miterlimit:10;}
	.st22{clip-path:url(#SVGID_4_);fill:none;stroke:#FFFFFF;stroke-miterlimit:10;}
	.st23{clip-path:url(#SVGID_4_);}
	.st24{fill:none;stroke:#000000;stroke-width:7;stroke-miterlimit:10;}
	.st25{clip-path:url(#SVGID_6_);}
	.st26{fill:none;stroke:#FFFFFF;stroke-miterlimit:10;stroke-dasharray:12,12;}
</style>
<g id="Layer_4" class="st0">
</g>
<g id="Layer_1">
</g>
<g id="Layer_2">
</g>
<g id="Layer_3">
	<g>
		<g>
			<g>
				<path class="st8" d="M101.9,157.3c-9.6,0-17.3,7.8-17.3,17.3c0,9.6,7.8,17.3,17.3,17.3s17.3-7.8,17.3-17.3
					C119.3,165.1,111.5,157.3,101.9,157.3z"/>
				<path class="st8" d="M120,191.1c-8.8,0-16-7.2-16-16c0-8.8,7.2-16,16-16c8.8,0,16,7.2,16,16C136,184,128.8,191.1,120,191.1z
					 M116.2,202.1c-3.6,0-6.5-2.9-6.5-6.5c0-3.6,2.9-6.5,6.5-6.5s6.5,2.9,6.5,6.5C122.7,199.2,119.8,202.1,116.2,202.1z M90.2,174.4
					c0-4.8,3.9-8.7,8.7-8.7s8.7,3.9,8.7,8.7c0,4.8-3.9,8.7-8.7,8.7S90.2,179.2,90.2,174.4z M125.8,159.3c-4.3-4.3-10-6.6-16-6.6
					c-6.1,0-11.8,2.4-16,6.6c-4.3,4.3-6.6,10-6.6,16s2.4,11.8,6.6,16c4.3,4.3,10,6.6,16,6.6c6.1,0,11.8-2.4,16-6.6
					c4.3-4.3,6.6-10,6.6-16S130.1,163.6,125.8,159.3z"/>
				<path class="st8" d="M138.2,190.3c-8,0-14.6-6.5-14.6-14.6c0-8,6.5-14.6,14.6-14.6c8,0,14.6,6.5,14.6,14.6
					C152.7,183.8,146.2,190.3,138.2,190.3z M126.9,218.4c-7.2,0-13-5.8-13-13s5.8-13,13-13s13,5.8,13,13S134,218.4,126.9,218.4z
					 M84.5,174.6c0-9.6,7.8-17.5,17.5-17.5s17.5,7.8,17.5,17.5c0,9.6-7.8,17.5-17.5,17.5S84.5,184.3,84.5,174.6z M149.6,144
					c-8.6-8.6-20-13.3-32.1-13.3c-12.1,0-23.5,4.7-32.1,13.3c-8.6,8.6-13.3,20-13.3,32.1c0,12.1,4.7,23.5,13.3,32.1
					c8.6,8.6,20,13.3,32.1,13.3c12.1,0,23.5-4.7,32.1-13.3c8.6-8.6,13.3-20,13.3-32.1C162.9,163.9,158.2,152.5,149.6,144z"/>
				<path class="st8" d="M127.9,145.9c8.1,0,15.6,3.2,21.2,8.8s8.8,13.1,8.8,21.2c0,8.1-3.2,15.6-8.8,21.2
					c-5.6,5.6-13.1,8.8-21.2,8.8c-8.1,0-15.6-3.2-21.2-8.8c-5.6-5.6-8.8-13.1-8.8-21.2c0-8.1,3.2-15.6,8.8-21.2
					C112.3,149.1,119.8,145.9,127.9,145.9z M122.2,161.5c7.9,0,15.2,3.1,20.7,8.6c5.5,5.5,8.6,12.8,8.6,20.7s-3.1,15.2-8.6,20.7
					c-5.5,5.5-12.8,8.6-20.7,8.6c-7.9,0-15.2-3.1-20.7-8.6c-5.5-5.5-8.6-12.8-8.6-20.7s3.1-15.2,8.6-20.7
					C107,164.6,114.3,161.5,122.2,161.5z M133.6,160c-4.3-4.3-10-6.6-16-6.6c-6.1,0-11.8,2.4-16,6.6c-4.3,4.3-6.6,10-6.6,16
					s2.4,11.8,6.6,16c4.3,4.3,10,6.6,16,6.6c6.1,0,11.8-2.4,16-6.6c4.3-4.3,6.6-10,6.6-16S137.9,164.3,133.6,160z M93.2,174.6
					c0-4.8,3.9-8.7,8.7-8.7s8.7,3.9,8.7,8.7s-3.9,8.7-8.7,8.7S93.2,179.5,93.2,174.6z"/>
				<path class="st8" d="M149.6,208.2c-8.6,8.6-20,13.3-32.1,13.3c-12.1,0-23.5-4.7-32.1-13.3c-8.6-8.6-13.3-20-13.3-32.1
					c0-12.1,4.7-23.5,13.3-32.1c8.6-8.6,20-13.3,32.1-13.3c12.1,0,23.5,4.7,32.1,13.3c8.6,8.6,13.3,20,13.3,32.1
					C162.9,188.2,158.2,199.6,149.6,208.2z M149.7,143.9c-8.6-8.6-20-13.3-32.2-13.3s-23.6,4.7-32.2,13.3
					c-8.6,8.6-13.3,20-13.3,32.2c0,12.2,4.7,23.6,13.3,32.2c8.6,8.6,20,13.3,32.2,13.3s23.6-4.7,32.2-13.3
					c8.6-8.6,13.3-20,13.3-32.2C163.1,163.9,158.3,152.5,149.7,143.9z"/>
				<path class="st8" d="M109.8,144c8.5,0,16.3,3.3,22.2,9.2c5.9,5.9,9.2,13.7,9.2,22.2c0,8.5-3.3,16.3-9.2,22.2
					c-5.9,5.9-13.7,9.2-22.2,9.2c-8.5,0-16.3-3.3-22.2-9.2c-5.9-5.9-9.2-13.7-9.2-22.2c0-8.5,3.3-16.3,9.2-22.2
					C93.4,147.3,101.3,144,109.8,144z M107.4,165.6c0-4.8-3.9-8.7-8.7-8.7c-4.8,0-8.7,3.9-8.7,8.7s3.9,8.7,8.7,8.7
					C103.5,174.3,107.4,170.4,107.4,165.6z M127.9,145.9c8.1,0,15.6,3.2,21.2,8.8c5.6,5.6,8.8,13.1,8.8,21.2
					c0,8.1-3.2,15.6-8.8,21.2c-5.6,5.6-13.1,8.8-21.2,8.8c-8.1,0-15.6-3.2-21.2-8.8c-5.6-5.6-8.8-13.1-8.8-21.2
					c0-8.1,3.2-15.6,8.8-21.2C112.3,149.1,119.8,145.9,127.9,145.9z M140.9,159.7c-4,0-7.3,3.3-7.3,7.3c0,4,3.3,7.3,7.3,7.3
					c4,0,7.3-3.3,7.3-7.3C148.2,162.9,144.9,159.7,140.9,159.7z M127.7,210.3c-3.5,0-6.4-2.9-6.4-6.4c0-3.5,2.9-6.4,6.4-6.4
					c3.5,0,6.4,2.9,6.4,6.4C134.1,207.4,131.3,210.3,127.7,210.3z M127.7,197.4c-3.6,0-6.5,2.9-6.5,6.5c0,3.6,2.9,6.5,6.5,6.5
					s6.5-2.9,6.5-6.5C134.2,200.3,131.3,197.4,127.7,197.4z"/>
				<g>
					<path class="st8" d="M101.9,192c-9.6,0-17.3-7.8-17.3-17.3c0-9.6,7.8-17.3,17.3-17.3s17.3,7.8,17.3,17.3
						C119.3,184.2,111.5,192,101.9,192z M119.4,174.6c0-9.6-7.8-17.5-17.5-17.5s-17.5,7.8-17.5,17.5c0,9.6,7.8,17.5,17.5,17.5
						S119.4,184.3,119.4,174.6z"/>
					<path class="st8" d="M138.2,190.2c-8,0-14.4-6.5-14.4-14.4c0-8,6.5-14.4,14.4-14.4c8,0,14.4,6.5,14.4,14.4
						C152.6,183.7,146.1,190.2,138.2,190.2z M138.2,161.2c-8,0-14.6,6.5-14.6,14.6c0,8,6.5,14.6,14.6,14.6c8,0,14.6-6.5,14.6-14.6
						C152.7,167.7,146.2,161.2,138.2,161.2z"/>
					<path class="st8" d="M126.9,218.3c-7.1,0-12.8-5.8-12.8-12.8c0-7.1,5.8-12.8,12.8-12.8c7.1,0,12.8,5.8,12.8,12.8
						C139.7,212.5,133.9,218.3,126.9,218.3z M126.9,192.4c-7.2,0-13,5.8-13,13s5.8,13,13,13s13-5.8,13-13S134,192.4,126.9,192.4z"/>
				</g>
			</g>
			<circle class="st8" cx="102" cy="174.6" r="6.7"/>
			<circle class="st8" cx="102" cy="174.6" r="7.4"/>
			<circle class="st8" cx="102" cy="174.6" r="8.1"/>
			<circle class="st8" cx="102" cy="174.6" r="8.9"/>
			<circle class="st8" cx="102" cy="174.6" r="9.8"/>
			<circle class="st8" cx="102" cy="174.6" r="10.8"/>
			<circle class="st8" cx="102" cy="174.6" r="11.9"/>
			<circle class="st8" cx="102" cy="174.6" r="13.1"/>
			<circle class="st8" cx="102" cy="174.6" r="14.4"/>
			<circle class="st8" cx="102" cy="174.6" r="15.8"/>
			<circle class="st8" cx="138.2" cy="175.7" r="2.8"/>
			<circle class="st8" cx="138.2" cy="175.7" r="3.4"/>
			<circle class="st8" cx="138.2" cy="175.7" r="4"/>
			<circle class="st8" cx="138.2" cy="175.7" r="4.9"/>
			<circle class="st8" cx="138.2" cy="175.7" r="5.8"/>
			<circle class="st8" cx="138.2" cy="175.7" r="7"/>
			<circle class="st8" cx="138.2" cy="175.7" r="8.4"/>
			<circle class="st8" cx="138.2" cy="175.7" r="10.1"/>
			<circle class="st8" cx="138.2" cy="175.7" r="12.1"/>
			<circle class="st8" cx="126.9" cy="205.4" r="2.8"/>
			<circle class="st8" cx="126.9" cy="205.4" r="3.4"/>
			<circle class="st8" cx="126.9" cy="205.4" r="4.1"/>
			<circle class="st8" cx="126.9" cy="205.4" r="5"/>
			<circle class="st8" cx="126.9" cy="205.4" r="6"/>
			<circle class="st8" cx="126.9" cy="205.4" r="7.3"/>
			<circle class="st8" cx="126.9" cy="205.4" r="8.8"/>
			<circle class="st8" cx="126.9" cy="205.4" r="10.7"/>
		</g>
		<g>
			<g>
				<path class="st8" d="M180.9,181.6c-1.8-20.2-19.7-35.3-39.9-33.5c-20.2,1.8-35.3,19.7-33.5,39.9s19.7,35.3,39.9,33.5
					C167.6,219.7,182.6,201.8,180.9,181.6z"/>
				<path class="st8" d="M112.6,226.2c-1.6-18.6,12.2-35.1,30.8-36.7c18.6-1.6,35.1,12.2,36.7,30.8c1.6,18.6-12.2,35.1-30.8,36.7
					C130.7,258.6,114.2,244.8,112.6,226.2z M142.6,159.9c10.2-0.9,19.2,6.7,20.1,16.9c0.9,10.2-6.7,19.2-16.9,20.1
					c-10.2,0.9-19.2-6.7-20.1-16.9S132.4,160.8,142.6,159.9z M88.6,220c-0.7-7.6,5-14.3,12.5-14.9s14.3,5,14.9,12.5
					s-5,14.3-12.5,14.9C96,233.2,89.3,227.6,88.6,220z M181.1,232.4c8.3-9.9,12.2-22.4,11.1-35.2c-1.1-12.8-7.2-24.5-17-32.7
					c-9.9-8.3-22.4-12.2-35.2-11.1s-24.5,7.2-32.7,17c-8.3,9.9-12.2,22.4-11.1,35.2c1.1,12.8,7.2,24.5,17,32.7s22.4,12.2,35.2,11.1
					C161.1,248.3,172.8,242.3,181.1,232.4z"/>
				<path class="st8" d="M117.7,264.3c-1.5-17,11.1-32,28.1-33.5c17-1.5,32,11.1,33.5,28.1c1.5,17-11.1,32-28.1,33.5
					C134.3,294,119.2,281.3,117.7,264.3z M140.9,147.8c20.4-1.8,38.5,13.4,40.2,33.8s-13.4,38.5-33.8,40.2s-38.5-13.4-40.2-33.8
					C105.4,167.6,120.5,149.6,140.9,147.8z M56.1,245.6c-1.3-15.2,9.9-28.6,25.1-29.9s28.6,9.9,29.9,25.1
					c1.3,15.2-9.9,28.6-25.1,29.9S57.4,260.8,56.1,245.6z M217.9,280.1c16.6-19.7,24.4-44.7,22.2-70.4
					c-2.2-25.7-14.4-48.9-34.1-65.5c-19.7-16.6-44.7-24.4-70.4-22.2c-25.7,2.2-48.9,14.4-65.5,34.1c-16.6,19.7-24.4,44.7-22.2,70.4
					c2.2,25.7,14.4,48.9,34.1,65.5s44.7,24.4,70.4,22.2S201.4,299.8,217.9,280.1z"/>
				<path class="st8" d="M140.7,176.4c17.1-1.5,33.6,3.8,46.5,14.7c12.9,10.8,21,26.2,22.5,43.2c1.5,17.1-3.8,33.6-14.7,46.5
					c-10.8,12.9-26.2,21-43.2,22.5c-17.1,1.5-33.6-3.8-46.5-14.7c-12.9-10.8-21-26.2-22.5-43.2c-1.5-17.1,3.8-33.6,14.7-46.5
					C108.3,186,123.7,177.9,140.7,176.4z M138.3,134.7c18-1.6,35.3,4.1,48.9,15.4c13.5,11.4,22.1,27.5,23.7,45.4
					c1.6,18-4.1,35.3-15.4,48.9c-11.4,13.5-27.5,22.1-45.4,23.7s-35.3-4.1-48.9-15.4c-13.5-11.4-22.1-27.5-23.7-45.4
					s4.1-35.3,15.4-48.9C104.2,144.8,120.3,136.3,138.3,134.7z M181,249.1c8.3-9.9,12.2-22.4,11.1-35.2c-1.1-12.8-7.2-24.5-17-32.7
					c-9.9-8.3-22.4-12.2-35.2-11.1s-24.5,7.2-32.7,17c-8.3,9.9-12.2,22.4-11.1,35.2c1.1,12.8,7.2,24.5,17,32.7
					c9.9,8.3,22.4,12.2,35.2,11.1C161.1,265,172.7,258.9,181,249.1z M69.8,244.5c-0.7-7.6,5-14.3,12.5-14.9s14.3,5,14.9,12.5
					s-5,14.3-12.5,14.9S70.4,252,69.8,244.5z"/>
				<path class="st8" d="M82,292c-19.7-16.6-31.8-39.8-34.1-65.5c-2.2-25.7,5.6-50.7,22.2-70.4c16.6-19.7,39.8-31.8,65.5-34.1
					c25.7-2.2,50.7,5.6,70.4,22.2c19.7,16.6,31.8,39.8,34.1,65.5c2.2,25.7-5.6,50.7-22.2,70.4c-16.6,19.7-39.8,31.8-65.5,34.1
					S101.8,308.5,82,292z M218.2,280.3c16.6-19.8,24.5-44.9,22.3-70.6c-2.3-25.7-14.4-49.1-34.2-65.7
					c-19.8-16.6-44.9-24.5-70.6-22.3c-25.7,2.3-49.1,14.4-65.7,34.2c-16.6,19.8-24.5,44.9-22.3,70.6c2.3,25.7,14.4,49.1,34.2,65.7
					c19.8,16.6,44.9,24.5,70.6,22.3S201.6,300.1,218.2,280.3z"/>
				<path class="st8" d="M138.3,135c17.9-1.6,35.2,4,48.7,15.3c13.5,11.3,22,27.4,23.6,45.2c1.6,17.9-4,35.2-15.3,48.7
					s-27.4,22-45.2,23.6c-17.9,1.6-35.2-4-48.7-15.3c-13.5-11.3-22-27.4-23.6-45.2c-1.6-17.9,4-35.2,15.3-48.7
					C104.4,145.1,120.4,136.6,138.3,135z M165.4,196.3c10.2-0.9,17.8-9.9,16.9-20.1c-0.9-10.2-9.9-17.8-20.1-16.9
					s-17.8,9.9-16.9,20.1S155.2,197.2,165.4,196.3z M140.7,176.4c17.1-1.5,33.6,3.8,46.5,14.7c12.9,10.8,21,26.2,22.5,43.2
					c1.5,17.1-3.8,33.6-14.7,46.5c-10.8,12.9-26.2,21-43.2,22.5c-17.1,1.5-33.6-3.8-46.5-14.7c-12.9-10.8-21-26.2-22.5-43.2
					c-1.5-17.1,3.8-33.6,14.7-46.5C108.3,186,123.7,177.9,140.7,176.4z M184.8,266.2c-0.7-8.5-8.3-14.8-16.8-14.1
					c-8.5,0.7-14.8,8.3-14.1,16.8c0.7,8.5,8.3,14.8,16.8,14.1C179.2,282.2,185.6,274.7,184.8,266.2z M73.1,247.3
					c-0.7-7.5,4.9-14.1,12.4-14.8c7.5-0.7,14.1,4.9,14.8,12.4c0.7,7.5-4.9,14.1-12.4,14.8C80.4,260.3,73.8,254.8,73.1,247.3z
					 M100.5,244.9c-0.7-7.6-7.4-13.2-14.9-12.5C78,233,72.3,239.7,73,247.3s7.4,13.2,14.9,12.5C95.5,259.1,101.1,252.4,100.5,244.9z
					"/>
				<g>
					<path class="st8" d="M107.5,188c-1.8-20.2,13.3-38.1,33.5-39.9c20.2-1.8,38.1,13.3,39.9,33.5s-13.3,38.1-33.5,39.9
						C127.1,223.2,109.2,208.2,107.5,188z M147.4,221.8c20.4-1.8,35.6-19.8,33.8-40.2s-19.8-35.6-40.2-33.8
						c-20.4,1.8-35.6,19.8-33.8,40.2C108.9,208.4,127,223.6,147.4,221.8z"/>
					<path class="st8" d="M118,264.3c-1.5-16.8,11-31.7,27.9-33.2c16.8-1.5,31.7,11,33.2,27.9c1.5,16.8-11,31.7-27.9,33.2
						C134.4,293.6,119.5,281.1,118,264.3z M179.4,258.9c-1.5-17-16.5-29.6-33.5-28.1c-17,1.5-29.6,16.5-28.1,33.5
						c1.5,17,16.5,29.6,33.5,28.1C168.3,291,180.9,275.9,179.4,258.9z"/>
					<path class="st8" d="M56.4,245.6c-1.3-15,9.8-28.2,24.8-29.6c15-1.3,28.2,9.8,29.6,24.8c1.3,15-9.8,28.2-24.8,29.6
						C71,271.7,57.7,260.6,56.4,245.6z M111.1,240.8c-1.3-15.2-14.7-26.4-29.9-25.1s-26.4,14.7-25.1,29.9
						c1.3,15.2,14.7,26.4,29.9,25.1S112.4,256,111.1,240.8z"/>
				</g>
			</g>
			<g>
				<path class="st8" d="M117.7,278.8c-58.4,44.6-22.6,130.6,50.2,120.5c6.8-0.9,16.8-5.1,22.3-9.3c58.4-44.6,22.6-130.6-50.2-120.5
					C133.2,270.5,123.1,274.7,117.7,278.8z"/>
				<path class="st8" d="M267.8,345.4c-6.1,19.5-30.9,29.8-49,20.4c-44.5-0.4-66.5-53.1-35.4-85c6.1-19.5,30.9-29.8,49-20.4
					C276.8,260.7,298.8,313.5,267.8,345.4z M214.8,255.9c0.5,13.5-7,23.6-17,27.7c-5,2.1-10.6,2.7-16.1,1.6c-5.5-1.1-10.9-4-15.5-9
					c-3.9-4.2-6.3-9.8-6.5-15.6c-0.5-13.5,7-23.5,17-27.7c5-2.1,10.6-2.7,16.1-1.6c5.5,1.1,10.9,4,15.5,9
					C212.3,244.6,214.6,250.1,214.8,255.9z M155.8,377.2c-36.8,5.1-54.8-38.3-25.3-60.8c3.3-2.5,7.1-4.1,11.1-4.6
					c36.8-5.1,54.9,38.3,25.3,60.8C163.7,375,159.9,376.6,155.8,377.2z M166.5,222.2c-47.6,2.1-83,37.7-84.9,85.3c0,0.6,0,1.3,0,1.9
					c2.1,47.6,37.7,83,85.2,84.9c0.6,0,1.3,0,1.9,0c47.6-2.1,83-37.7,84.9-85.3c0-0.6,0-1.3,0-1.9c-2.1-47.6-37.7-83-85.3-84.9
					C167.8,222.2,167.1,222.2,166.5,222.2z"/>
				<path class="st8" d="M345.3,300.7c-6.8,34.8-46.2,51.3-75.7,31.6c-16.2-10.8-24.4-30.4-20.6-49.5c6.8-34.8,46.2-51.3,75.7-31.6
					C340.9,262,349,281.6,345.3,300.7z M264.9,205c1.1,27.1-14,47.1-34,55.4c-10,4.2-21.2,5.4-32.2,3.1s-21.9-8.1-31.1-18
					c-7.9-8.5-12.5-19.5-13-31.1c-1.1-27.1,14-47.1,34-55.4c10-4.2,21.2-5.4,32.2-3.1c11,2.3,21.9,8.1,31.1,18
					C259.8,182.3,264.5,193.4,264.9,205z M168.1,399.9c-73.5,10.2-109.7-76.6-50.7-121.6c6.5-5,14.2-8.2,22.3-9.3
					c73.5-10.2,109.7,76.6,50.7,121.6C183.9,395.5,176.2,398.7,168.1,399.9z M179,110C83.9,114.2,13,185.3,9.3,280.5
					c0,1.3,0,2.5,0,3.8c4.2,95.2,75.3,166,170.5,169.7c1.3,0,2.5,0,3.8,0c95.2-4.1,166-75.3,169.8-170.5c0-1.3,0-2.5,0-3.8
					c-4.1-95.2-75.3-166-170.5-169.7C181.6,110,180.3,110,179,110z"/>
				<path class="st8" d="M314.4,206.4c24,23.1,36.2,54,34.6,84.8c-1.3,27-11.9,53.1-31.9,74c-0.5,0.6-1.1,1.1-1.7,1.6
					c-21.4,19.5-47.6,29.7-74,30.1c-26.4,0.5-53.1-8.7-75.6-27.9c-0.6-0.5-1.2-1.1-1.7-1.6c-24-23.1-36.2-54-34.6-84.8
					c1.3-27,11.9-53.1,31.9-74c0.5-0.6,1.1-1.1,1.7-1.6c21.4-19.5,47.6-29.7,74-30.1c26.4-0.5,53.1,8.7,75.6,27.9
					C313.2,205.3,313.8,205.8,314.4,206.4z M151.9,141.2c25.1-10.5,52.7-11.6,78.5-3c1.4,0.5,2.8,1,4.2,1.5
					c26.4,10,47.1,29.8,61.3,55.2c6.4,11.5,11.1,24.1,12.4,37.2c2.5,28.3-9,51.9-22.8,71.8c-21.2,30.9-52.4,54.7-94.1,55.2
					c-0.7,0-1.5,0-2.2-0.1c-30.1-2-56.9-14.9-76.7-35.7c-18.3-19.2-29.6-45-30.8-74c0-0.9,0-1.8,0-2.6
					C82.8,197.3,111.2,158.2,151.9,141.2z M180,196.2c-47.6,2.1-83,37.7-84.9,85.3c0,0.6,0,1.3,0,1.9c2.1,47.6,37.7,83,85.2,84.9
					c0.6,0,1.3,0,1.9,0c47.6-2.1,83-37.7,84.9-85.3c0-0.6,0-1.3,0-1.9c-2.1-47.6-37.7-83-85.3-84.9
					C181.3,196.2,180.6,196.2,180,196.2z M160.8,367.4c-36.8,5.1-54.8-38.3-25.3-60.8c3.3-2.5,7.1-4.1,11.1-4.6
					c36.8-5.1,54.9,38.3,25.3,60.8C168.7,365.2,164.9,366.8,160.8,367.4z"/>
				<path class="st8" d="M304,161.5c32.3,35,48.6,77.6,48.7,120.2s-15.9,85.3-48.1,120.4c-0.8,0.9-1.7,1.8-2.7,2.7
					c-35,32.3-77.6,48.6-120.2,48.7s-85.3-15.9-120.4-48.1c-0.9-0.8-1.8-1.7-2.7-2.7C26.3,367.7,10,325.1,10,282.4
					C9.9,239.8,25.9,197.1,58.1,162c0.8-0.9,1.7-1.8,2.7-2.7c35-32.3,77.6-48.6,120.2-48.7s85.3,15.9,120.4,48.1
					C302.3,159.7,303.2,160.5,304,161.5z M115.2,123.5C53.4,149.2,11.6,207.9,8.8,280.5c0,1.3,0,2.5,0,3.8
					c4.2,95.5,75.6,166.5,171,170.3c1.3,0,2.5,0,3.8,0c72.6-3.2,131.1-45.2,156.6-107.2c17.5-42.4,17.4-89.1-0.3-131.5
					c-17.7-42.4-50.8-75.3-93.2-92.8S157.6,105.8,115.2,123.5z"/>
				<path class="st8" d="M94.8,216.7c24.4-18.2,52.5-27.6,80.9-25.8c28.2,1.8,56.2,13.9,79.3,37c0.6,0.6,1.2,1.3,1.8,1.9
					c18.1,20.3,27.9,46.6,29,71.2c1.7,39.1-14.3,73.8-42.9,96.9c-0.8,0.6-1.6,1.2-2.4,1.8c-24.4,18.2-52.5,27.6-80.9,25.8
					c-28.2-1.8-56.2-13.9-79.3-37c-0.6-0.6-1.2-1.3-1.8-1.9c-18.1-20.3-27.9-46.6-29-71.2c-1.7-39.1,14.3-73.8,42.9-96.9
					C93.1,217.9,94,217.3,94.8,216.7z M153.6,330.1c-22.5-29.5-65.9-11.4-60.8,25.3c0.6,4,2.2,7.9,4.6,11.1
					c22.5,29.5,65.9,11.4,60.8-25.3C157.6,337.2,156,333.4,153.6,330.1z M152,141.5c25-10.4,52.6-11.5,78.4-3
					c1.4,0.5,2.8,0.9,4.1,1.5c26.4,10,47,29.8,61.1,55.1c6.5,11.6,11.2,24.2,12.4,37.4c2.5,28.1-9,51.4-22.6,71.3
					c-21.1,30.9-52.3,54.6-93.9,55.2c-0.7,0-1.5,0-2.2-0.1c-29.9-2-56.5-14.7-76.3-35.3c-18.5-19.2-29.9-45.2-31.1-74.3
					c0-0.9,0-1.8,0-2.6C83.1,197.3,111.4,158.4,152,141.5z M172.7,177.5c-19.8,18.5-6.8,49.8,20.3,48.7c5.8-0.2,11.3-2.5,15.6-6.5
					c19.8-18.5,6.8-49.8-20.3-48.7C182.4,171.2,176.9,173.5,172.7,177.5z M315.3,305.3c-4.8,13.4-20.1,19.8-33.1,13.8
					c-11.3-5.3-16.7-18.4-12.5-30.1c4.8-13.4,20.1-19.8,33.1-13.8C314.1,280.4,319.5,293.6,315.3,305.3z M272.3,283.3
					c-9.8,14.8-1.6,34.5,15.8,37.9c9.5,1.9,19.3-2.2,24.7-10.3c9.8-14.8,1.6-34.5-15.8-37.9C287.5,271.2,277.7,275.2,272.3,283.3z"
					/>
				<g>
					<path class="st8" d="M218.9,320.5c5,36.4-13.9,63.6-39.8,74.3c-12.9,5.4-27.5,6.7-41.7,2.9s-27.9-12.4-39.1-27
						c-4.2-5.4-8.4-15.5-9.3-22.3c-5-36.4,13.9-63.6,39.8-74.3c12.9-5.4,27.5-6.7,41.7-2.9c14.2,3.7,27.9,12.4,39.1,27
						C213.7,303.6,217.9,313.7,218.9,320.5z M210.1,298c-45-59-131.8-22.8-121.6,50.7c1.1,8.1,4.3,15.8,9.3,22.3
						c45,59,131.8,22.8,121.6-50.7C218.2,312.2,215,304.5,210.1,298z"/>
					<path class="st8" d="M264.4,205.2c1,26.7-13.9,46.5-33.7,54.7c-9.9,4.1-21,5.3-31.9,3.1c-10.9-2.2-21.6-7.9-30.7-17.7
						c-7.9-8.5-12.5-19.5-13-31.1c-1-26.7,13.9-46.5,33.7-54.7c9.9-4.1,21-5.3,31.9-3.1s21.6,7.9,30.7,17.7
						C259.3,182.5,263.9,193.6,264.4,205.2z M173.9,167.5c-39.6,36.9-13.5,99.5,40.6,97.4c11.6-0.5,22.6-5.1,31.1-13
						c39.6-36.9,13.5-99.5-40.6-97.4C193.4,155,182.4,159.6,173.9,167.5z"/>
					<path class="st8" d="M342.7,308.1c-9.6,26.9-40.3,39.6-66.1,27.6c-22.5-10.5-33.5-36.8-25.1-60.2c9.6-26.9,40.3-39.6,66.1-27.6
						C340.2,258.4,351.1,284.7,342.7,308.1z M256.6,264.2c-19.7,29.5-3.3,68.9,31.6,75.7c19.1,3.7,38.7-4.4,49.5-20.6
						c19.7-29.5,3.3-68.9-31.6-75.7C287,239.9,267.4,248,256.6,264.2z"/>
				</g>
			</g>
		</g>
	</g>
</g>
<g id="Layer_5">
</g>
<g id="Layer_6">
</g>
</svg>
