<?xml version="1.0" encoding="utf-8"?>
<!-- Generator: Adobe Illustrator 19.1.0, SVG Export Plug-In . SVG Version: 6.00 Build 0)  -->
<svg version="1.1" xmlns="http://www.w3.org/2000/svg" xmlns:xlink="http://www.w3.org/1999/xlink" x="0px" y="0px"
	 viewBox="0 0 360 540" style="enable-background:new 0 0 360 540;" xml:space="preserve">
<style type="text/css">
	.st0{display:none;}
	.st1{display:inline;fill:#666766;}
	.st2{fill:none;stroke:#000000;stroke-miterlimit:10;}
	.st3{fill:none;stroke:#CCCCCC;stroke-miterlimit:10;}
	.st4{fill:#CCCCCC;}
	.st5{fill:none;stroke:#CCCCCC;stroke-width:3;stroke-miterlimit:10;}
	.st6{fill:none;stroke:#CCCCCC;stroke-width:2;stroke-miterlimit:10;}
	.st7{fill:none;stroke:#FFFFFF;stroke-width:7;stroke-miterlimit:10;}
	.st8{fill:none;stroke:#FFFFFF;stroke-miterlimit:10;}
	.st9{fill:#FFFFFF;}
	.st10{fill:none;}
	.st11{fill:none;stroke:#CCCCCC;stroke-miterlimit:10;stroke-dasharray:12,12;}
	.st12{clip-path:url(#SVGID_2_);fill:none;stroke:#CCCCCC;stroke-miterlimit:10;}
	.st13{clip-path:url(#SVGID_2_);fill:none;stroke:#CCCCCC;stroke-width:7;stroke-miterlimit:10;}
	.st14{clip-path:url(#SVGID_2_);}
	.st15{clip-path:url(#SVGID_2_);fill:#CCCCCC;}
	.st16{clip-path:url(#SVGID_2_);fill:none;stroke:#CCCCCC;stroke-miterlimit:10;stroke-dasharray:12,12;}
	.st17{fill:#010101;stroke:#FFFFFF;stroke-width:2;stroke-miterlimit:10;}
	.st18{fill:#010101;}
	.st19{fill:none;stroke:#FFFFFF;stroke-width:2;stroke-miterlimit:10;}
	.st20{fill:none;stroke:#CCCCCC;stroke-width:2;stroke-miterlimit:10;stroke-dasharray:12;}
	.st21{fill:none;stroke:#CCCCCC;stroke-width:7;stroke-miterlimit:10;}
	.st22{clip-path:url(#SVGID_4_);fill:none;stroke:#FFFFFF;stroke-miterlimit:10;}
	.st23{clip-path:url(#SVGID_4_);}
	.st24{fill:none;stroke:#000000;stroke-width:7;stroke-miterlimit:10;}
	.st25{clip-path:url(#SVGID_6_);}
	.st26{fill:none;stroke:#FFFFFF;stroke-miterlimit:10;stroke-dasharray:12,12;}
</style>
<g id="Layer_4" class="st0">
</g>
<g id="Layer_1">
</g>
<g id="Layer_2">
</g>
<g id="Layer_3">
	<g>
		<g>
			<path class="st8" d="M120.5,195.7c-37.1,0-67.4,30.2-67.4,67.4c0,37.1,30.2,67.4,67.4,67.4s67.4-30.2,67.4-67.4
				C187.8,226,157.6,195.7,120.5,195.7z"/>
			<path class="st8" d="M190.8,327.2c-34.2,0-62-27.8-62-62s27.8-62,62-62c34.2,0,62,27.8,62,62S225,327.2,190.8,327.2z
				 M175.7,369.9c-13.9,0-25.2-11.3-25.2-25.2s11.3-25.2,25.2-25.2s25.2,11.3,25.2,25.2S189.6,369.9,175.7,369.9z M74.9,262.1
				c0-18.7,15.2-34,34-34s34,15.2,34,34s-15.2,34-34,34S74.9,280.8,74.9,262.1z M213.1,203.5c-16.7-16.7-38.8-25.8-62.4-25.8
				c-23.6,0-45.7,9.2-62.4,25.8c-16.7,16.7-25.8,38.8-25.8,62.4c0,23.6,9.2,45.7,25.8,62.4c16.7,16.7,38.8,25.8,62.4,25.8
				c23.6,0,45.7-9.2,62.4-25.8s25.8-38.8,25.8-62.4C239,242.3,229.8,220.2,213.1,203.5z"/>
			<path class="st8" d="M261.1,323.9c-31.2,0-56.6-25.4-56.6-56.6c0-31.2,25.4-56.6,56.6-56.6c31.2,0,56.6,25.4,56.6,56.6
				C317.7,298.6,292.3,323.9,261.1,323.9z M217.2,433.2c-27.8,0-50.4-22.6-50.4-50.4c0-27.8,22.6-50.4,50.4-50.4
				s50.4,22.6,50.4,50.4C267.7,410.5,245,433.2,217.2,433.2z M52.5,263.1c0-37.4,30.5-67.9,67.9-67.9s67.9,30.5,67.9,67.9
				S157.9,331,120.5,331S52.5,300.6,52.5,263.1z M305.8,143.9c-33.3-33.3-77.6-51.7-124.7-51.7c-47.1,0-91.4,18.3-124.7,51.7
				C23.1,177.2,4.7,221.5,4.7,268.6S23.1,360,56.4,393.3C89.7,426.6,134,445,181.1,445c47.1,0,91.4-18.3,124.7-51.7
				s51.7-77.6,51.7-124.7S339.1,177.2,305.8,143.9z"/>
			<path class="st8" d="M221.1,151.5c31.4,0,60.6,12.3,82.4,34.1s34.1,51,34.1,82.4c0,31.4-12.3,60.6-34.1,82.4
				c-21.8,21.8-51,34.1-82.4,34.1c-31.4,0-60.6-12.3-82.4-34.1c-21.8-21.8-34.1-51-34.1-82.4c0-31.4,12.3-60.6,34.1-82.4
				C160.5,163.9,189.8,151.5,221.1,151.5z M199.2,212c30.6,0,59.1,12,80.4,33.3c21.3,21.3,33.3,49.8,33.3,80.4s-12,59.1-33.3,80.4
				c-21.3,21.3-49.8,33.3-80.4,33.3s-59.1-12-80.4-33.3c-21.3-21.3-33.3-49.8-33.3-80.4s12-59.1,33.3-80.4
				C140.1,224,168.6,212,199.2,212z M243.4,206.3c-16.7-16.7-38.8-25.8-62.4-25.8c-23.6,0-45.7,9.2-62.4,25.8
				c-16.7,16.7-25.8,38.8-25.8,62.4c0,23.6,9.2,45.7,25.8,62.4c16.7,16.7,38.8,25.8,62.4,25.8c23.6,0,45.7-9.2,62.4-25.8
				s25.8-38.8,25.8-62.4C269.3,245.1,260.1,222.9,243.4,206.3z M86.4,263.1c0-18.7,15.2-34,34-34s34,15.2,34,34s-15.2,34-34,34
				S86.4,281.8,86.4,263.1z"/>
			<path class="st8" d="M305.8,393.3c-33.3,33.3-77.6,51.7-124.7,51.7c-47.1,0-91.4-18.3-124.7-51.7C23.1,360,4.7,315.7,4.7,268.6
				s18.3-91.4,51.7-124.7c33.3-33.3,77.6-51.7,124.7-51.7c47.1,0,91.4,18.3,124.7,51.7s51.7,77.6,51.7,124.7S339.1,360,305.8,393.3z
				 M306.2,143.5c-33.4-33.4-77.8-51.8-125.1-51.8S89.4,110.1,56,143.5C22.6,176.9,4.2,221.4,4.2,268.6S22.6,360.3,56,393.7
				c33.4,33.4,77.8,51.8,125.1,51.8s91.7-18.4,125.1-51.8c33.4-33.4,51.8-77.8,51.8-125.1S339.6,176.9,306.2,143.5z"/>
			<path class="st8" d="M150.8,144c32.8,0,63.4,12.9,86.2,35.7s35.7,53.3,35.7,86.2c0,32.8-12.9,63.4-35.7,86.2
				c-22.8,22.8-53.3,35.7-86.2,35.7c-32.8,0-63.4-12.9-86.2-35.7c-22.8-22.8-35.7-53.3-35.7-86.2c0-32.8,12.9-63.4,35.7-86.2
				C87.4,157,117.9,144,150.8,144z M141.6,227.9c0-18.7-15.2-34-34-34s-34,15.2-34,34s15.2,34,34,34S141.6,246.6,141.6,227.9z
				 M221.1,151.5c31.4,0,60.6,12.3,82.4,34.1c21.8,21.8,34.1,51,34.1,82.4c0,31.4-12.3,60.6-34.1,82.4c-21.8,21.8-51,34.1-82.4,34.1
				c-31.4,0-60.6-12.3-82.4-34.1c-21.8-21.8-34.1-51-34.1-82.4c0-31.4,12.3-60.6,34.1-82.4C160.5,163.9,189.8,151.5,221.1,151.5z
				 M271.8,204.9c-15.6,0-28.3,12.7-28.3,28.3c0,15.6,12.7,28.3,28.3,28.3c15.6,0,28.3-12.7,28.3-28.3
				C300.1,217.6,287.4,204.9,271.8,204.9z M220.6,401.6c-13.8,0-24.9-11.2-24.9-24.9c0-13.8,11.2-24.9,24.9-24.9
				c13.8,0,24.9,11.2,24.9,24.9C245.5,390.4,234.3,401.6,220.6,401.6z M220.6,351.4c-13.9,0-25.2,11.3-25.2,25.2
				s11.3,25.2,25.2,25.2s25.2-11.3,25.2-25.2S234.5,351.4,220.6,351.4z"/>
			<g>
				<path class="st8" d="M120.5,330.5c-37.1,0-67.4-30.2-67.4-67.4c0-37.1,30.2-67.4,67.4-67.4s67.4,30.2,67.4,67.4
					C187.8,300.2,157.6,330.5,120.5,330.5z M188.4,263.1c0-37.4-30.5-67.9-67.9-67.9s-67.9,30.5-67.9,67.9S83,331,120.5,331
					S188.4,300.6,188.4,263.1z"/>
				<path class="st8" d="M261.1,323.4c-30.9,0-56-25.1-56-56c0-30.9,25.1-56,56-56c30.9,0,56,25.1,56,56
					C317.2,298.3,292,323.4,261.1,323.4z M261.1,210.8c-31.2,0-56.6,25.4-56.6,56.6c0,31.2,25.4,56.6,56.6,56.6
					c31.2,0,56.6-25.4,56.6-56.6C317.7,236.1,292.3,210.8,261.1,210.8z"/>
				<path class="st8" d="M217.2,432.6c-27.5,0-49.9-22.4-49.9-49.9s22.4-49.9,49.9-49.9c27.5,0,49.9,22.4,49.9,49.9
					S244.7,432.6,217.2,432.6z M217.2,332.3c-27.8,0-50.4,22.6-50.4,50.4c0,27.8,22.6,50.4,50.4,50.4s50.4-22.6,50.4-50.4
					C267.7,354.9,245,332.3,217.2,332.3z"/>
			</g>
		</g>
		<circle class="st8" cx="120.7" cy="262.8" r="26.1"/>
		<circle class="st8" cx="120.7" cy="262.8" r="28.7"/>
		<circle class="st8" cx="120.7" cy="262.8" r="31.6"/>
		<circle class="st8" cx="120.7" cy="262.8" r="34.7"/>
		<circle class="st8" cx="120.7" cy="262.8" r="38.2"/>
		<circle class="st8" cx="120.7" cy="262.8" r="42"/>
		<circle class="st8" cx="120.7" cy="262.8" r="46.2"/>
		<circle class="st8" cx="120.7" cy="262.8" r="50.8"/>
		<circle class="st8" cx="120.7" cy="262.8" r="55.9"/>
		<circle class="st8" cx="120.7" cy="262.8" r="61.5"/>
		<circle class="st8" cx="261.4" cy="267.1" r="10.9"/>
		<circle class="st8" cx="261.4" cy="267.1" r="13.1"/>
		<circle class="st8" cx="261.4" cy="267.1" r="15.7"/>
		<circle class="st8" cx="261.4" cy="267.1" r="18.9"/>
		<circle class="st8" cx="261.4" cy="267.1" r="22.6"/>
		<circle class="st8" cx="261.4" cy="267.1" r="27.2"/>
		<circle class="st8" cx="261.4" cy="267.1" r="32.6"/>
		<circle class="st8" cx="261.4" cy="267.1" r="39.1"/>
		<circle class="st8" cx="261.4" cy="267.1" r="46.9"/>
		<circle class="st8" cx="217.5" cy="382.5" r="10.9"/>
		<circle class="st8" cx="217.5" cy="382.5" r="13.2"/>
		<circle class="st8" cx="217.5" cy="382.5" r="16"/>
		<circle class="st8" cx="217.5" cy="382.5" r="19.3"/>
		<circle class="st8" cx="217.5" cy="382.5" r="23.4"/>
		<circle class="st8" cx="217.5" cy="382.5" r="28.3"/>
		<circle class="st8" cx="217.5" cy="382.5" r="34.3"/>
		<circle class="st8" cx="217.5" cy="382.5" r="41.4"/>
	</g>
</g>
<g id="Layer_5">
</g>
<g id="Layer_6">
</g>
</svg>
