<?xml version="1.0" encoding="utf-8"?>
<!-- Generator: Adobe Illustrator 19.1.0, SVG Export Plug-In . SVG Version: 6.00 Build 0)  -->
<svg version="1.1" xmlns="http://www.w3.org/2000/svg" xmlns:xlink="http://www.w3.org/1999/xlink" x="0px" y="0px"
	 viewBox="0 0 360 540" style="enable-background:new 0 0 360 540;" xml:space="preserve">
<style type="text/css">
	.st0{display:none;}
	.st1{display:inline;fill:#666766;}
	.st2{fill:none;stroke:#000000;stroke-miterlimit:10;}
	.st3{fill:none;stroke:#CCCCCC;stroke-miterlimit:10;}
	.st4{fill:#CCCCCC;}
	.st5{fill:none;stroke:#CCCCCC;stroke-width:3;stroke-miterlimit:10;}
	.st6{fill:none;stroke:#CCCCCC;stroke-width:2;stroke-miterlimit:10;}
	.st7{fill:none;stroke:#FFFFFF;stroke-width:7;stroke-miterlimit:10;}
	.st8{fill:none;stroke:#FFFFFF;stroke-miterlimit:10;}
	.st9{fill:#FFFFFF;}
	.st10{fill:none;}
	.st11{fill:none;stroke:#CCCCCC;stroke-miterlimit:10;stroke-dasharray:12,12;}
	.st12{clip-path:url(#SVGID_2_);fill:none;stroke:#CCCCCC;stroke-miterlimit:10;}
	.st13{clip-path:url(#SVGID_2_);fill:none;stroke:#CCCCCC;stroke-width:7;stroke-miterlimit:10;}
	.st14{clip-path:url(#SVGID_2_);}
	.st15{clip-path:url(#SVGID_2_);fill:#CCCCCC;}
	.st16{clip-path:url(#SVGID_2_);fill:none;stroke:#CCCCCC;stroke-miterlimit:10;stroke-dasharray:12,12;}
	.st17{fill:#010101;stroke:#FFFFFF;stroke-width:2;stroke-miterlimit:10;}
	.st18{fill:#010101;}
	.st19{fill:none;stroke:#FFFFFF;stroke-width:2;stroke-miterlimit:10;}
	.st20{fill:none;stroke:#CCCCCC;stroke-width:2;stroke-miterlimit:10;stroke-dasharray:12;}
	.st21{fill:none;stroke:#CCCCCC;stroke-width:7;stroke-miterlimit:10;}
	.st22{clip-path:url(#SVGID_4_);fill:none;stroke:#FFFFFF;stroke-miterlimit:10;}
	.st23{clip-path:url(#SVGID_4_);}
	.st24{fill:none;stroke:#000000;stroke-width:7;stroke-miterlimit:10;}
	.st25{clip-path:url(#SVGID_6_);}
	.st26{fill:none;stroke:#FFFFFF;stroke-miterlimit:10;stroke-dasharray:12,12;}
</style>
<g id="Layer_4" class="st0">
</g>
<g id="Layer_1">
	<g>
		<line class="st7" x1="191.1" y1="272.9" x2="191.1" y2="336.2"/>
		<line class="st7" x1="168.7" y1="381.4" x2="168.7" y2="444.7"/>
		<line class="st7" x1="215.7" y1="155.1" x2="215.7" y2="218.3"/>
		<line class="st8" x1="168.7" y1="21.7" x2="168.7" y2="510.4"/>
		<line class="st8" x1="215.7" y1="21.7" x2="215.7" y2="510.4"/>
		<line class="st8" x1="191.1" y1="21.7" x2="191.1" y2="510.4"/>
		<polygon class="st8" points="338.9,119 192.9,34.6 192.6,34.5 30.2,127.3 29.4,127.7 116.6,174.8 117.5,175.3 144.4,160 
			143.5,159.5 143.5,159.5 85.1,125.5 189.7,61.2 283.2,119.4 221.8,154.8 221.8,154.8 220.9,155.4 245.5,169.1 246.4,168.5 
			338.2,119.4 		"/>
		<polygon class="st8" points="338.9,125.7 192.9,41.4 192.6,41.2 30.2,134.1 29.4,134.5 116.6,181.5 117.5,182.1 144.4,166.8 
			143.5,166.2 143.5,166.2 85.1,132.3 189.7,68 283.2,126.2 221.8,161.6 221.8,161.6 220.9,162.1 245.5,175.8 246.4,175.3 
			338.2,126.1 		"/>
		<polygon class="st8" points="338.9,280.1 192.9,195.7 192.6,195.6 30.2,288.5 29.4,288.9 116.6,335.9 117.5,336.5 144.4,321.2 
			143.5,320.6 143.5,320.6 85.1,286.7 189.7,222.4 283.2,280.5 221.8,316 221.8,316 220.9,316.5 245.5,330.2 246.4,329.7 
			338.2,280.5 		"/>
		<polygon class="st8" points="338.9,286.9 192.9,202.5 192.6,202.4 30.2,295.2 29.4,295.6 116.6,342.7 117.5,343.2 144.4,327.9 
			143.5,327.4 143.5,327.4 85.1,293.5 189.7,229.1 283.2,287.3 221.8,322.7 221.8,322.7 220.9,323.3 245.5,337 246.4,336.4 
			338.2,287.3 		"/>
		<polygon class="st8" points="338.9,293.6 192.9,209.3 192.6,209.1 30.2,302 29.4,302.4 116.6,349.4 117.5,350 144.4,334.7 
			143.5,334.1 143.5,334.1 85.1,300.2 189.7,235.9 283.2,294.1 221.8,329.5 221.8,329.5 220.9,330.1 245.5,343.8 246.4,343.2 
			338.2,294 		"/>
		<polygon class="st8" points="338.9,300.4 192.9,216 192.6,215.9 30.2,308.7 29.4,309.2 116.6,356.2 117.5,356.7 144.4,341.5 
			143.5,340.9 143.5,340.9 85.1,307 189.7,242.7 283.2,300.8 221.8,336.3 221.8,336.3 220.9,336.8 245.5,350.5 246.4,350 
			338.2,300.8 		"/>
		<polygon class="st8" points="338.9,307.2 192.9,222.8 192.6,222.7 30.2,315.5 29.4,315.9 116.6,363 117.5,363.5 144.4,348.2 
			143.5,347.7 143.5,347.7 85.1,313.8 189.7,249.4 283.2,307.6 221.8,343 221.8,343 220.9,343.6 245.5,357.3 246.4,356.7 
			338.2,307.6 		"/>
		<polygon class="st8" points="338.9,313.9 192.9,229.6 192.6,229.4 30.2,322.3 29.4,322.7 116.6,369.7 117.5,370.3 144.4,355 
			143.5,354.4 143.5,354.4 85.1,320.5 189.7,256.2 283.2,314.4 221.8,349.8 221.8,349.8 220.9,350.4 245.5,364.1 246.4,363.5 
			338.2,314.3 		"/>
		<polygon class="st8" points="338.9,320.7 192.9,236.3 192.6,236.2 30.2,329 29.4,329.5 116.6,376.5 117.5,377 144.4,361.8 
			143.5,361.2 143.5,361.2 85.1,327.3 189.7,262.9 283.2,321.1 221.8,356.6 221.8,356.6 220.9,357.1 245.5,370.8 246.4,370.3 
			338.2,321.1 		"/>
		<polygon class="st8" points="338.9,327.5 192.9,243.1 192.6,243 30.2,335.8 29.4,336.2 116.6,383.3 117.5,383.8 144.4,368.5 
			143.5,368 143.5,368 85.1,334 189.7,269.7 283.2,327.9 221.8,363.3 221.8,363.3 220.9,363.9 245.5,377.6 246.4,377 338.2,327.9 		
			"/>
		<polygon class="st8" points="338.9,334.2 192.9,249.9 192.6,249.7 30.2,342.6 29.4,343 116.6,390 117.5,390.6 144.4,375.3 
			143.5,374.7 143.5,374.7 85.1,340.8 189.7,276.5 283.2,334.7 221.8,370.1 221.8,370.1 220.9,370.6 245.5,384.3 246.4,383.8 
			338.2,334.6 		"/>
		<path class="st9" d="M192.9,327.1l-0.2-0.1L30.2,419.8l-0.7,0.4l145.8,78.7l0.2,0.1l162.7-87.2l0.7-0.4L192.9,327.1z M175.5,498
			L31.4,420.2l161.3-92.2L337,411.4L175.5,498z"/>
	</g>
</g>
<g id="Layer_2">
</g>
<g id="Layer_3">
</g>
<g id="Layer_5">
</g>
<g id="Layer_6">
</g>
</svg>
