<?xml version="1.0" encoding="utf-8"?>
<!-- Generator: Adobe Illustrator 19.1.0, SVG Export Plug-In . SVG Version: 6.00 Build 0)  -->
<svg version="1.1" xmlns="http://www.w3.org/2000/svg" xmlns:xlink="http://www.w3.org/1999/xlink" x="0px" y="0px"
	 viewBox="0 0 360 540" style="enable-background:new 0 0 360 540;" xml:space="preserve">
<style type="text/css">
	.st0{display:none;}
	.st1{display:inline;fill:#666766;}
	.st2{fill:none;stroke:#000000;stroke-miterlimit:10;}
	.st3{fill:none;stroke:#CCCCCC;stroke-miterlimit:10;}
	.st4{fill:#CCCCCC;}
	.st5{fill:none;stroke:#CCCCCC;stroke-width:3;stroke-miterlimit:10;}
	.st6{fill:none;stroke:#CCCCCC;stroke-width:2;stroke-miterlimit:10;}
	.st7{fill:none;stroke:#FFFFFF;stroke-width:7;stroke-miterlimit:10;}
	.st8{fill:none;stroke:#FFFFFF;stroke-miterlimit:10;}
	.st9{fill:#FFFFFF;}
	.st10{fill:none;}
	.st11{fill:none;stroke:#CCCCCC;stroke-miterlimit:10;stroke-dasharray:12,12;}
	.st12{clip-path:url(#SVGID_2_);fill:none;stroke:#CCCCCC;stroke-miterlimit:10;}
	.st13{clip-path:url(#SVGID_2_);fill:none;stroke:#CCCCCC;stroke-width:7;stroke-miterlimit:10;}
	.st14{clip-path:url(#SVGID_2_);}
	.st15{clip-path:url(#SVGID_2_);fill:#CCCCCC;}
	.st16{clip-path:url(#SVGID_2_);fill:none;stroke:#CCCCCC;stroke-miterlimit:10;stroke-dasharray:12,12;}
	.st17{fill:#010101;stroke:#FFFFFF;stroke-width:2;stroke-miterlimit:10;}
	.st18{fill:#010101;}
	.st19{fill:none;stroke:#FFFFFF;stroke-width:2;stroke-miterlimit:10;}
	.st20{fill:none;stroke:#CCCCCC;stroke-width:2;stroke-miterlimit:10;stroke-dasharray:12;}
	.st21{fill:none;stroke:#CCCCCC;stroke-width:7;stroke-miterlimit:10;}
	.st22{clip-path:url(#SVGID_4_);fill:none;stroke:#FFFFFF;stroke-miterlimit:10;}
	.st23{clip-path:url(#SVGID_4_);}
	.st24{fill:none;stroke:#000000;stroke-width:7;stroke-miterlimit:10;}
	.st25{clip-path:url(#SVGID_6_);}
	.st26{fill:none;stroke:#FFFFFF;stroke-miterlimit:10;stroke-dasharray:12,12;}
</style>
<g id="Layer_4" class="st0">
</g>
<g id="Layer_1">
</g>
<g id="Layer_2">
</g>
<g id="Layer_3">
	<g>
		<path class="st8" d="M76.4,497.7c1.2,0,117.9-6.3,117.9-6.3l81.7,8.3l-114.8,6.9L76.4,497.7z"/>
		<path class="st8" d="M77.4,446.4c1,0,113.8-12.6,113.8-12.6l85.9,12.8l-110.7,12.6C166.4,459.2,77.5,446.4,77.4,446.4z"/>
		<path class="st8" d="M78.3,395.1c0.9,0,109.7-18.9,109.7-18.9l90,17.2l-106.5,18.4C171.4,411.8,78.6,395.1,78.3,395.1z"/>
		<path class="st8" d="M79.2,343.8c0.7,0,105.5-25.1,105.5-25.1l94.1,21.7l-102.4,24.2C176.5,364.5,79.7,343.8,79.2,343.8z"/>
		<path class="st8" d="M80.2,292.4c0.6,0,101.4-31.4,101.4-31.4l98.3,26.1l-98.3,29.9C181.6,317.1,80.8,292.4,80.2,292.4z"/>
		<path class="st8" d="M81.1,241.1c0.4,0,97.3-37.7,97.3-37.7l102.4,30.6l-94.1,35.7C186.6,269.7,81.8,241.1,81.1,241.1z"/>
		<path class="st8" d="M82,189.8c0.3,0,93.1-43.9,93.1-43.9L281.7,181l-90,41.4C191.7,222.4,82.9,189.8,82,189.8z"/>
		<path class="st8" d="M83,138.5c0.1,0,89-50.2,89-50.2l110.7,39.5L196.8,175C196.8,175,84,138.5,83,138.5z"/>
		<path class="st8" d="M83.9,87.2c1.2,0,117.9,40.5,117.9,40.5l81.7-52.9l-114.8-44L83.9,87.2z"/>
	</g>
</g>
<g id="Layer_5">
</g>
<g id="Layer_6">
</g>
</svg>
